<?xml version="1.0" standalone="no"?>
<!DOCTYPE svg PUBLIC "-//W3C//DTD SVG 1.1//EN" "http://www.w3.org/Graphics/SVG/1.1/DTD/svg11.dtd" >
<svg xmlns="http://www.w3.org/2000/svg" xmlns:xlink="http://www.w3.org/1999/xlink" version="1.1">
<metadata>
Created by FontForge 20190801 at Fri Sep  7 15:58:00 2018
 By Jimmy Wärting
Copyright 2018 The Kodchasan Project Authors (https://github.com/cadsondemak/Kodchasan)
</metadata>
<defs>
<font id="Kodchasan-LightItalic" horiz-adv-x="0" >
  <font-face 
    font-family="Kodchasan Light"
    font-weight="300"
    font-style="italic"
    font-stretch="normal"
    units-per-em="1000"
    panose-1="0 0 4 0 0 0 0 0 0 0"
    ascent="800"
    descent="-200"
    x-height="499"
    cap-height="710"
    bbox="-604 -490 1233 1183"
    underline-thickness="50"
    underline-position="-100"
    slope="-10"
    unicode-range="U+000D-FB02"
  />
<missing-glyph horiz-adv-x="729" 
d="M95 848h536v-848h-536v848zM582 50v748h-439v-748h439z" />
    <glyph glyph-name="fi" unicode="fi" horiz-adv-x="632" 
d="M296.5 650.5q-43.5 -33.5 -53.5 -93.5l-10 -58h331q15 0 21.5 -9.5t4.5 -26.5l-77 -437q-7 -36 -39 -36q-25 0 -25 26q0 6 1 10l75 420h-301l-74 -420q-7 -36 -38 -36q-12 0 -19 6.5t-7 19.5q0 6 1 10l74 420h-52q-32 0 -32 21q0 15 11 23.5t30 8.5h52l10 54
q16 89 77 137.5t157 48.5q57 0 104 -19.5t76 -56.5q6 -7 6 -16q0 -12 -13 -23q-7 -6 -17 -6q-16 0 -28 13q-50 53 -137 53q-65 0 -108.5 -33.5z" />
    <glyph glyph-name="fl" unicode="fl" horiz-adv-x="651" 
d="M86 16q0 6 1 10l74 420h-52q-32 0 -32 21q0 15 11 23.5t30 8.5h52l10 54q16 91 76 138.5t158 47.5q56 0 103 -15.5t80 -44.5q12 -11 17.5 -25.5t3.5 -27.5l-106 -600q-3 -17 -13 -26.5t-25 -9.5q-25 0 -25 26q0 6 1 10l74 420h-301l-74 -420q-6 -36 -37 -36q-26 0 -26 26
zM533 499l23 135q-47 50 -151 50q-68 0 -110 -33t-52 -94l-11 -58h301z" />
    <glyph glyph-name="uni0E240E45" unicode="&#xe24;&#xe45;" horiz-adv-x="1003" 
d="M913.5 545q46.5 -39 46.5 -109q0 -17 -4 -41l-112 -629q-3 -18 -13 -27t-25 -9q-26 0 -26 25q0 8 1 11l112 629q3 18 3 35q0 49 -30.5 74t-89.5 25q-82 0 -165 -52l-2 -1q15 -36 15 -83q0 -32 -6 -62l-99 -565q-3 -17 -13 -26.5t-26 -9.5q-25 0 -25 25q0 3 -0.5 5.5
t0.5 5.5l100 567q6 36 6 55q0 141 -163 141q-83 0 -155 -42t-104 -110l60 -48q10 8 27.5 16.5t30.5 11.5q9 2 13 2q15 0 15 -24q0 -11 -4.5 -17t-14.5 -9q-39 -11 -64 -38t-32 -65l-8 -48q10 7 27 11.5t31 4.5q38 0 61.5 -20.5t23.5 -53.5q0 -49 -35 -79.5t-89 -30.5
q-43 0 -69 22t-26 58q0 11 2 22l19 107q9 56 46 90l-62 50q-17 12 -17 23v2l5 15q40 93 128 149t196 56q123 0 179 -65q45 32 97 48.5t106 16.5q82 0 128.5 -39zM155 114q-17 -15 -17 -41q0 -17 13 -27t36 -10q31 0 48.5 14.5t17.5 40.5q0 18 -13.5 28t-36.5 10
q-31 0 -48 -15z" />
    <glyph glyph-name="uni0E260E45" unicode="&#xe26;&#xe45;" horiz-adv-x="1030" 
d="M942 545.5q46 -38.5 46 -108.5q0 -18 -4 -42l-112 -629q-2 -17 -12 -26.5t-26 -9.5q-26 0 -26 25q0 8 1 11l112 629q3 20 3 35q0 99 -120 99q-81 0 -163 -51q17 -39 17 -87q0 -27 -6 -62l-99 -564q-6 -36 -38 -36q-26 0 -26 25q0 8 1 11l100 566q6 38 6 59
q0 70 -41 104.5t-124 34.5q-84 0 -156.5 -42t-104.5 -110l84 -49q9 7 27.5 15.5t32.5 13.5q8 2 12 2q8 0 12.5 -7t4.5 -18q0 -10 -4.5 -16t-15.5 -10q-28 -9 -43.5 -27.5t-21.5 -50.5l-24 -141q-8 -48 -40.5 -73.5t-84.5 -25.5q-42 0 -68.5 21.5t-26.5 55.5q0 47 32 77
t81 30q14 0 30.5 -4t25.5 -11l13 70q7 37 19 57l-92 52q-18 11 -18 21q0 6 6 19q41 94 130 150t196 56q118 0 176 -63q46 31 97 47t103 16q83 0 129 -38.5zM162 51q18 15 18 40q0 18 -13 28t-36 10q-30 0 -48 -15.5t-18 -40.5q0 -18 13 -27.5t37 -9.5q29 0 47 15z" />
    <glyph glyph-name=".notdef" horiz-adv-x="729" 
d="M95 848h536v-848h-536v848zM582 50v748h-439v-748h439z" />
    <glyph glyph-name="NULL" 
 />
    <glyph glyph-name="NULL" 
 />
    <glyph glyph-name="nonmarkingreturn" unicode="&#xd;" horiz-adv-x="268" 
 />
    <glyph glyph-name="space" unicode=" " horiz-adv-x="268" 
 />
    <glyph glyph-name="A" unicode="A" horiz-adv-x="738" 
d="M52 -3.5q-7 6.5 -7 19.5q0 6 1 10l71 399q25 141 108.5 213t221.5 72q115 0 179.5 -59t64.5 -162q0 -31 -6 -64l-71 -399q-3 -18 -13 -27t-25 -9q-27 0 -27 26q0 6 1 10l42 237h-440l-42 -237q-3 -18 -13.5 -27t-25.5 -9q-12 0 -19 6.5zM601 317l20 111q6 35 6 63
q0 163 -186 163q-219 0 -260 -226l-19 -111h439z" />
    <glyph glyph-name="Aacute" unicode="&#xc1;" horiz-adv-x="738" 
d="M52 -3.5q-7 6.5 -7 19.5q0 6 1 10l71 399q25 141 108.5 213t221.5 72q115 0 179.5 -59t64.5 -162q0 -31 -6 -64l-71 -399q-3 -18 -13 -27t-25 -9q-27 0 -27 26q0 6 1 10l42 237h-440l-42 -237q-3 -18 -13.5 -27t-25.5 -9q-12 0 -19 6.5zM601 317l20 111q6 35 6 63
q0 163 -186 163q-219 0 -260 -226l-19 -111h439zM445 805q0 7 6 17l87 140q17 27 34 27q8 0 16 -5q14 -8 14 -19q0 -10 -10 -23l-102 -138q-12 -15 -26 -15q-3 0 -9 2q-10 4 -10 14z" />
    <glyph glyph-name="Abreve" unicode="&#x102;" horiz-adv-x="738" 
d="M52 -3.5q-7 6.5 -7 19.5q0 6 1 10l71 399q25 141 108.5 213t221.5 72q115 0 179.5 -59t64.5 -162q0 -31 -6 -64l-71 -399q-3 -18 -13 -27t-25 -9q-27 0 -27 26q0 6 1 10l42 237h-440l-42 -237q-3 -18 -13.5 -27t-25.5 -9q-12 0 -19 6.5zM601 317l20 111q6 35 6 63
q0 163 -186 163q-219 0 -260 -226l-19 -111h439zM372 821.5q-33 32.5 -33 82.5q0 63 38 63q24 0 24 -23q0 -52 4.5 -73t18.5 -27.5t49 -6.5q45 0 71.5 25.5t34.5 69.5q6 35 35 35q24 0 24 -23q0 -40 -24.5 -75.5t-64.5 -57.5t-84 -22q-60 0 -93 32.5z" />
    <glyph glyph-name="uni1EAE" unicode="&#x1eae;" horiz-adv-x="738" 
d="M52 -3.5q-7 6.5 -7 19.5q0 6 1 10l71 399q25 141 108.5 213t221.5 72q115 0 179.5 -59t64.5 -162q0 -31 -6 -64l-71 -399q-3 -18 -13 -27t-25 -9q-27 0 -27 26q0 6 1 10l42 237h-440l-42 -237q-3 -18 -13.5 -27t-25.5 -9q-12 0 -19 6.5zM601 317l20 111q6 35 6 63
q0 163 -186 163q-219 0 -260 -226l-19 -111h439zM461 928q0 8 8 18l79 102q14 20 32 20q8 0 15 -4q12 -9 12 -19q0 -11 -11 -24l-94 -97q-11 -13 -22 -13q-6 0 -11 4q-8 5 -8 13zM366 808.5q-33 30.5 -33 72.5q0 51 36 51q25 0 25 -22q0 -37 5.5 -54t21 -23t48.5 -6
q46 0 71.5 20.5t30.5 50.5q3 18 11 26t24 8q25 0 25 -22q0 -32 -23.5 -63t-63 -50t-84.5 -19q-61 0 -94 30.5z" />
    <glyph glyph-name="uni1EB6" unicode="&#x1eb6;" horiz-adv-x="738" 
d="M52 -3.5q-7 6.5 -7 19.5q0 6 1 10l71 399q25 141 108.5 213t221.5 72q115 0 179.5 -59t64.5 -162q0 -31 -6 -64l-71 -399q-3 -18 -13 -27t-25 -9q-27 0 -27 26q0 6 1 10l42 237h-440l-42 -237q-3 -18 -13.5 -27t-25.5 -9q-12 0 -19 6.5zM601 317l20 111q6 35 6 63
q0 163 -186 163q-219 0 -260 -226l-19 -111h439zM265.5 -157q-11.5 11 -11.5 28q0 21 18 38t40 17q17 0 28.5 -11t11.5 -28q0 -21 -17 -38t-39 -17q-19 0 -30.5 11zM372 821.5q-33 32.5 -33 82.5q0 63 38 63q24 0 24 -23q0 -52 4.5 -73t18.5 -27.5t49 -6.5q45 0 71.5 25.5
t34.5 69.5q6 35 35 35q24 0 24 -23q0 -40 -24.5 -75.5t-64.5 -57.5t-84 -22q-60 0 -93 32.5z" />
    <glyph glyph-name="uni1EB0" unicode="&#x1eb0;" horiz-adv-x="738" 
d="M52 -3.5q-7 6.5 -7 19.5q0 6 1 10l71 399q25 141 108.5 213t221.5 72q115 0 179.5 -59t64.5 -162q0 -31 -6 -64l-71 -399q-3 -18 -13 -27t-25 -9q-27 0 -27 26q0 6 1 10l42 237h-440l-42 -237q-3 -18 -13.5 -27t-25.5 -9q-12 0 -19 6.5zM601 317l20 111q6 35 6 63
q0 163 -186 163q-219 0 -260 -226l-19 -111h439zM489 911q-10 0 -18 13l-58 97q-5 8 -5 16q0 17 19 26q10 5 18 5q16 0 24 -20l43 -102q2 -6 2 -11q0 -13 -13 -20q-7 -4 -12 -4zM367 808.5q-33 30.5 -33 72.5q0 51 36 51q25 0 25 -22q0 -37 5.5 -54t21 -23t48.5 -6
q46 0 71.5 20.5t30.5 50.5q3 18 11 26t24 8q25 0 25 -22q0 -32 -23.5 -63t-63 -50t-84.5 -19q-61 0 -94 30.5z" />
    <glyph glyph-name="uni1EB2" unicode="&#x1eb2;" horiz-adv-x="738" 
d="M52 -3.5q-7 6.5 -7 19.5q0 6 1 10l71 399q25 141 108.5 213t221.5 72q115 0 179.5 -59t64.5 -162q0 -31 -6 -64l-71 -399q-3 -18 -13 -27t-25 -9q-27 0 -27 26q0 6 1 10l42 237h-440l-42 -237q-3 -18 -13.5 -27t-25.5 -9q-12 0 -19 6.5zM601 317l20 111q6 35 6 63
q0 163 -186 163q-219 0 -260 -226l-19 -111h439zM464 903q-5 6 -3 18l1 8q2 17 13 28t31 24q20 14 28.5 22.5t8.5 21.5q0 25 -33 25q-18 0 -29.5 -5t-21.5 -16q-12 -13 -21 -13q-5 0 -11 3q-10 5 -10 15q0 8 6 15q16 19 41 31t57 12q38 0 55.5 -15.5t17.5 -40.5
q0 -27 -12.5 -42t-34.5 -29q-16 -11 -23.5 -18.5t-8.5 -18.5l-1 -7q-3 -12 -10.5 -18t-21.5 -6q-13 0 -18 6zM367 808.5q-33 30.5 -33 72.5q0 51 36 51q25 0 25 -22q0 -37 5.5 -54t21 -23t48.5 -6q46 0 71.5 20.5t30.5 50.5q3 18 11 26t24 8q25 0 25 -22q0 -32 -23.5 -63
t-63 -50t-84.5 -19q-61 0 -94 30.5z" />
    <glyph glyph-name="uni1EB4" unicode="&#x1eb4;" horiz-adv-x="738" 
d="M52 -3.5q-7 6.5 -7 19.5q0 6 1 10l71 399q25 141 108.5 213t221.5 72q115 0 179.5 -59t64.5 -162q0 -31 -6 -64l-71 -399q-3 -18 -13 -27t-25 -9q-27 0 -27 26q0 6 1 10l42 237h-440l-42 -237q-3 -18 -13.5 -27t-25.5 -9q-12 0 -19 6.5zM601 317l20 111q6 35 6 63
q0 163 -186 163q-219 0 -260 -226l-19 -111h439zM341 991q0 3 4 17q11 32 39 52.5t60 20.5q23 0 39 -8t36 -24q15 -12 24.5 -17.5t21.5 -5.5q33 0 52 41q9 20 25 20q5 0 8 -1q13 -3 13 -15q0 -7 -4 -16q-11 -32 -39 -52.5t-60 -20.5q-21 0 -35 7.5t-32 22.5q-15 12 -27 18.5
t-27 6.5q-17 0 -30 -11.5t-22 -30.5q-8 -19 -24 -19q-6 0 -9 1q-13 3 -13 14zM367 808.5q-33 30.5 -33 72.5q0 51 36 51q25 0 25 -22q0 -37 5.5 -54t21 -23t48.5 -6q46 0 71.5 20.5t30.5 50.5q3 18 11 26t24 8q25 0 25 -22q0 -32 -23.5 -63t-63 -50t-84.5 -19
q-61 0 -94 30.5z" />
    <glyph glyph-name="uni01CD" unicode="&#x1cd;" horiz-adv-x="738" 
d="M52 -3.5q-7 6.5 -7 19.5q0 6 1 10l71 399q25 141 108.5 213t221.5 72q115 0 179.5 -59t64.5 -162q0 -31 -6 -64l-71 -399q-3 -18 -13 -27t-25 -9q-27 0 -27 26q0 6 1 10l42 237h-440l-42 -237q-3 -18 -13.5 -27t-25.5 -9q-12 0 -19 6.5zM601 317l20 111q6 35 6 63
q0 163 -186 163q-219 0 -260 -226l-19 -111h439zM439 803l-84 127q-5 6 -5 16q0 15 17 26q9 6 18 6q13 0 24 -18l65 -114l107 114q19 19 33 19q8 0 14 -6q10 -7 10 -19t-13 -25l-129 -126q-16 -16 -32 -16q-14 0 -25 16z" />
    <glyph glyph-name="Acircumflex" unicode="&#xc2;" horiz-adv-x="738" 
d="M52 -3.5q-7 6.5 -7 19.5q0 6 1 10l71 399q25 141 108.5 213t221.5 72q115 0 179.5 -59t64.5 -162q0 -31 -6 -64l-71 -399q-3 -18 -13 -27t-25 -9q-27 0 -27 26q0 6 1 10l42 237h-440l-42 -237q-3 -18 -13.5 -27t-25.5 -9q-12 0 -19 6.5zM601 317l20 111q6 35 6 63
q0 163 -186 163q-219 0 -260 -226l-19 -111h439zM326 812q0 12 13 25l128 126q16 16 32 16q15 0 25 -16l84 -126q5 -6 5 -16q0 -17 -17 -27q-10 -6 -18 -6q-13 0 -24 18l-66 114l-107 -114q-17 -19 -31 -19q-8 0 -15 6q-9 9 -9 19z" />
    <glyph glyph-name="uni1EA4" unicode="&#x1ea4;" horiz-adv-x="738" 
d="M52 -3.5q-7 6.5 -7 19.5q0 6 1 10l71 399q25 141 108.5 213t221.5 72q115 0 179.5 -59t64.5 -162q0 -31 -6 -64l-71 -399q-3 -18 -13 -27t-25 -9q-27 0 -27 26q0 6 1 10l42 237h-440l-42 -237q-3 -18 -13.5 -27t-25.5 -9q-12 0 -19 6.5zM601 317l20 111q6 35 6 63
q0 163 -186 163q-219 0 -260 -226l-19 -111h439zM577 940q0 8 8 18l79 102q17 20 32 20q8 0 16 -5q11 -7 11 -18q0 -10 -11 -23l-94 -98q-11 -13 -22 -13q-6 0 -11 4q-8 5 -8 13zM325 813q0 10 13 23l126 111q18 16 31 16q9 0 13.5 -3.5t12.5 -12.5l86 -110q6 -7 6 -16
q0 -16 -18 -27q-9 -6 -17 -6q-13 0 -25 18l-68 98l-104 -99q-19 -17 -31 -17q-9 0 -15 6q-10 9 -10 19z" />
    <glyph glyph-name="uni1EAC" unicode="&#x1eac;" horiz-adv-x="738" 
d="M52 -3.5q-7 6.5 -7 19.5q0 6 1 10l71 399q25 141 108.5 213t221.5 72q115 0 179.5 -59t64.5 -162q0 -31 -6 -64l-71 -399q-3 -18 -13 -27t-25 -9q-27 0 -27 26q0 6 1 10l42 237h-440l-42 -237q-3 -18 -13.5 -27t-25.5 -9q-12 0 -19 6.5zM601 317l20 111q6 35 6 63
q0 163 -186 163q-219 0 -260 -226l-19 -111h439zM265.5 -157q-11.5 11 -11.5 28q0 21 18 38t40 17q17 0 28.5 -11t11.5 -28q0 -21 -17 -38t-39 -17q-19 0 -30.5 11zM326 812q0 12 13 25l128 126q16 16 32 16q15 0 25 -16l84 -126q5 -6 5 -16q0 -17 -17 -27q-10 -6 -18 -6
q-13 0 -24 18l-66 114l-107 -114q-17 -19 -31 -19q-8 0 -15 6q-9 9 -9 19z" />
    <glyph glyph-name="uni1EA6" unicode="&#x1ea6;" horiz-adv-x="738" 
d="M52 -3.5q-7 6.5 -7 19.5q0 6 1 10l71 399q25 141 108.5 213t221.5 72q115 0 179.5 -59t64.5 -162q0 -31 -6 -64l-71 -399q-3 -18 -13 -27t-25 -9q-27 0 -27 26q0 6 1 10l42 237h-440l-42 -237q-3 -18 -13.5 -27t-25.5 -9q-12 0 -19 6.5zM601 317l20 111q6 35 6 63
q0 163 -186 163q-219 0 -260 -226l-19 -111h439zM633 923q-12 0 -18 13l-58 98q-5 8 -5 16q0 15 20 26q8 4 16 4q19 0 26 -20l42 -102q3 -6 3 -12q0 -12 -14 -20q-6 -3 -12 -3zM325 813q0 10 13 23l126 111q18 16 31 16q8 0 13.5 -3.5t12.5 -12.5l87 -110q6 -7 6 -15
t-5 -15.5t-14 -12.5q-9 -6 -17 -6q-13 0 -25 18l-68 98l-104 -99q-19 -17 -31 -17q-9 0 -15 6q-10 9 -10 19z" />
    <glyph glyph-name="uni1EA8" unicode="&#x1ea8;" horiz-adv-x="738" 
d="M52 -3.5q-7 6.5 -7 19.5q0 6 1 10l71 399q25 141 108.5 213t221.5 72q115 0 179.5 -59t64.5 -162q0 -31 -6 -64l-71 -399q-3 -18 -13 -27t-25 -9q-27 0 -27 26q0 6 1 10l42 237h-440l-42 -237q-3 -18 -13.5 -27t-25.5 -9q-12 0 -19 6.5zM601 317l20 111q6 35 6 63
q0 163 -186 163q-219 0 -260 -226l-19 -111h439zM567 943l2 8q3 15 14 26t30 24q18 13 27.5 23t9.5 23q0 24 -33 24q-18 0 -30 -5t-23 -17q-11 -11 -20 -11q-5 0 -11 3q-10 5 -10 14q0 8 7 15q15 20 40 32t57 12q38 0 56 -16t18 -41q0 -27 -12 -41.5t-36 -29.5
q-15 -9 -23 -17t-10 -19l-1 -7q-3 -24 -30 -24q-28 0 -22 24zM325 813q0 10 13 23l126 111q18 16 31 16q8 0 13.5 -3.5t12.5 -12.5l87 -110q6 -7 6 -15t-5 -15.5t-14 -12.5q-9 -6 -17 -6q-13 0 -25 18l-68 98l-104 -99q-19 -17 -31 -17q-9 0 -15 6q-10 9 -10 19z" />
    <glyph glyph-name="uni1EAA" unicode="&#x1eaa;" horiz-adv-x="738" 
d="M52 -3.5q-7 6.5 -7 19.5q0 6 1 10l71 399q25 141 108.5 213t221.5 72q115 0 179.5 -59t64.5 -162q0 -31 -6 -64l-71 -399q-3 -18 -13 -27t-25 -9q-27 0 -27 26q0 6 1 10l42 237h-440l-42 -237q-3 -18 -13.5 -27t-25.5 -9q-12 0 -19 6.5zM601 317l20 111q6 35 6 63
q0 163 -186 163q-219 0 -260 -226l-19 -111h439zM352 995q0 8 4 16q12 33 39.5 53t59.5 20q23 0 39.5 -8.5t34.5 -23.5q15 -12 25 -17.5t22 -5.5q34 0 52 42q9 19 25 19q6 0 9 -1q12 -3 12 -14q0 -9 -4 -18q-11 -31 -39 -51.5t-60 -20.5q-21 0 -35.5 7.5t-32.5 22.5
q-16 13 -27 19t-26 6q-16 0 -29.5 -11t-21.5 -28q-6 -12 -11.5 -17t-13.5 -5q-2 0 -10 2q-12 3 -12 14zM325 813q0 12 13 24l125 111q7 6 15 11t16 5q17 0 26 -16l86 -111q6 -7 6 -16q0 -15 -17 -27q-9 -6 -17 -6q-13 0 -25 18l-69 99l-103 -99q-17 -17 -31 -17q-9 0 -16 6
q-9 8 -9 18z" />
    <glyph glyph-name="Adieresis" unicode="&#xc4;" horiz-adv-x="738" 
d="M52 -3.5q-7 6.5 -7 19.5q0 6 1 10l71 399q25 141 108.5 213t221.5 72q115 0 179.5 -59t64.5 -162q0 -31 -6 -64l-71 -399q-3 -18 -13 -27t-25 -9q-27 0 -27 26q0 6 1 10l42 237h-440l-42 -237q-3 -18 -13.5 -27t-25.5 -9q-12 0 -19 6.5zM601 317l20 111q6 35 6 63
q0 163 -186 163q-219 0 -260 -226l-19 -111h439zM339.5 820q-11.5 11 -11.5 27q0 20 17.5 37t38.5 17q16 0 27 -11.5t11 -27.5q0 -20 -17 -36.5t-37 -16.5q-17 0 -28.5 11zM541.5 820q-11.5 11 -11.5 27q0 20 17.5 37t38.5 17q16 0 27 -11.5t11 -27.5q0 -20 -17 -36.5
t-37 -16.5q-17 0 -28.5 11z" />
    <glyph glyph-name="uni1EA0" unicode="&#x1ea0;" horiz-adv-x="738" 
d="M52 -3.5q-7 6.5 -7 19.5q0 6 1 10l71 399q25 141 108.5 213t221.5 72q115 0 179.5 -59t64.5 -162q0 -31 -6 -64l-71 -399q-3 -18 -13 -27t-25 -9q-27 0 -27 26q0 6 1 10l42 237h-440l-42 -237q-3 -18 -13.5 -27t-25.5 -9q-12 0 -19 6.5zM601 317l20 111q6 35 6 63
q0 163 -186 163q-219 0 -260 -226l-19 -111h439zM265.5 -157q-11.5 11 -11.5 28q0 21 18 38t40 17q17 0 28.5 -11t11.5 -28q0 -21 -17 -38t-39 -17q-19 0 -30.5 11z" />
    <glyph glyph-name="Agrave" unicode="&#xc0;" horiz-adv-x="738" 
d="M52 -3.5q-7 6.5 -7 19.5q0 6 1 10l71 399q25 141 108.5 213t221.5 72q115 0 179.5 -59t64.5 -162q0 -31 -6 -64l-71 -399q-3 -18 -13 -27t-25 -9q-27 0 -27 26q0 6 1 10l42 237h-440l-42 -237q-3 -18 -13.5 -27t-25.5 -9q-12 0 -19 6.5zM601 317l20 111q6 35 6 63
q0 163 -186 163q-219 0 -260 -226l-19 -111h439zM465 789q-14 0 -20 15l-53 138q-3 8 -3 15q0 16 22 27q9 4 17 4q18 0 24 -26l39 -140q1 -3 1 -8q0 -16 -16 -23q-8 -2 -11 -2z" />
    <glyph glyph-name="uni1EA2" unicode="&#x1ea2;" horiz-adv-x="738" 
d="M52 -3.5q-7 6.5 -7 19.5q0 6 1 10l71 399q25 141 108.5 213t221.5 72q115 0 179.5 -59t64.5 -162q0 -31 -6 -64l-71 -399q-3 -18 -13 -27t-25 -9q-27 0 -27 26q0 6 1 10l42 237h-440l-42 -237q-3 -18 -13.5 -27t-25.5 -9q-12 0 -19 6.5zM601 317l20 111q6 35 6 63
q0 163 -186 163q-219 0 -260 -226l-19 -111h439zM435 786l1 8q3 17 15 28.5t34 26.5q22 16 31.5 25.5t9.5 24.5q0 12 -9 19.5t-26 7.5q-37 0 -61 -27q-12 -14 -23 -14q-5 0 -11 3q-11 6 -11 16q0 7 7 16q16 21 46 36.5t64 15.5q41 0 61 -17.5t20 -45.5t-13.5 -44t-38.5 -31
q-18 -12 -26 -20t-9 -20l-1 -8q-6 -27 -36 -27q-27 0 -24 27z" />
    <glyph glyph-name="Amacron" unicode="&#x100;" horiz-adv-x="738" 
d="M52 -3.5q-7 6.5 -7 19.5q0 6 1 10l71 399q25 141 108.5 213t221.5 72q115 0 179.5 -59t64.5 -162q0 -31 -6 -64l-71 -399q-3 -18 -13 -27t-25 -9q-27 0 -27 26q0 6 1 10l42 237h-440l-42 -237q-3 -18 -13.5 -27t-25.5 -9q-12 0 -19 6.5zM601 317l20 111q6 35 6 63
q0 163 -186 163q-219 0 -260 -226l-19 -111h439zM311 792q0 16 10 22.5t28 6.5h243q13 0 21 -3t8 -14q0 -30 -37 -30h-243q-30 0 -30 18z" />
    <glyph glyph-name="Aogonek" unicode="&#x104;" horiz-adv-x="738" 
d="M516.5 -68q-25.5 -27 -25.5 -59q0 -16 12 -25.5t34 -9.5q31 0 59 21q11 8 18 8q8 0 13 -7t5 -12q0 -11 -13 -21q-39 -35 -92 -35q-42 0 -66 20t-24 51q0 73 112 151q0 8 1 12l42 237h-440l-42 -237q-3 -18 -13.5 -27t-25.5 -9q-12 0 -19 6.5t-7 19.5q0 6 1 10l71 399
q25 141 108.5 213t221.5 72q115 0 179.5 -59t64.5 -162q0 -31 -6 -64l-71 -399q-4 -25 -22 -33q-50 -34 -75.5 -61zM601 317l20 111q6 35 6 63q0 163 -186 163q-219 0 -260 -226l-19 -111h439z" />
    <glyph glyph-name="Aring" unicode="&#xc5;" horiz-adv-x="738" 
d="M52 -3.5q-7 6.5 -7 19.5q0 6 1 10l71 399q25 141 108.5 213t221.5 72q115 0 179.5 -59t64.5 -162q0 -31 -6 -64l-71 -399q-3 -18 -13 -27t-25 -9q-27 0 -27 26q0 6 1 10l42 237h-440l-42 -237q-3 -18 -13.5 -27t-25.5 -9q-12 0 -19 6.5zM601 317l20 111q6 35 6 63
q0 163 -186 163q-219 0 -260 -226l-19 -111h439zM388.5 779q-25.5 23 -25.5 59q0 32 17.5 59.5t48 43.5t66.5 16q43 0 68 -23t25 -59q0 -32 -17.5 -59.5t-47 -43.5t-64.5 -16q-45 0 -70.5 23zM520.5 817.5q21.5 20.5 21.5 51.5q0 22 -14.5 35t-39.5 13q-33 0 -54.5 -20.5
t-21.5 -52.5q0 -22 15 -34.5t40 -12.5q32 0 53.5 20.5z" />
    <glyph glyph-name="Aringacute" unicode="&#x1fa;" horiz-adv-x="738" 
d="M52 -3.5q-7 6.5 -7 19.5q0 6 1 10l71 399q25 141 108.5 213t221.5 72q115 0 179.5 -59t64.5 -162q0 -31 -6 -64l-71 -399q-3 -18 -13 -27t-25 -9q-27 0 -27 26q0 6 1 10l42 237h-440l-42 -237q-3 -18 -13.5 -27t-25.5 -9q-12 0 -19 6.5zM601 317l20 111q6 35 6 63
q0 163 -186 163q-219 0 -260 -226l-19 -111h439zM388.5 779q-25.5 23 -25.5 59q0 32 17.5 59.5t48 43.5t66.5 16q43 0 68 -23t25 -59q0 -32 -17.5 -59.5t-47 -43.5t-64.5 -16q-45 0 -70.5 23zM520.5 817.5q21.5 20.5 21.5 51.5q0 22 -14.5 35t-39.5 13q-33 0 -54.5 -20.5
t-21.5 -52.5q0 -22 15 -34.5t40 -12.5q32 0 53.5 20.5zM479 999q0 7 6 17l87 140q17 27 34 27q8 0 16 -5q14 -8 14 -19q0 -10 -10 -23l-102 -138q-12 -15 -26 -15q-3 0 -9 2q-10 4 -10 14z" />
    <glyph glyph-name="Atilde" unicode="&#xc3;" horiz-adv-x="738" 
d="M52 -3.5q-7 6.5 -7 19.5q0 6 1 10l71 399q25 141 108.5 213t221.5 72q115 0 179.5 -59t64.5 -162q0 -31 -6 -64l-71 -399q-3 -18 -13 -27t-25 -9q-27 0 -27 26q0 6 1 10l42 237h-440l-42 -237q-3 -18 -13.5 -27t-25.5 -9q-12 0 -19 6.5zM601 317l20 111q6 35 6 63
q0 163 -186 163q-219 0 -260 -226l-19 -111h439zM309 826q0 6 5 19q13 33 41.5 54.5t62.5 21.5q24 0 41 -8.5t36 -24.5q15 -12 26 -18t24 -6q34 0 54 44q9 20 27 20q6 0 9 -1q13 -3 13 -15q0 -8 -5 -18q-14 -35 -42 -56t-62 -21q-22 0 -37.5 8t-34.5 23q-16 13 -28 19.5
t-27 6.5q-35 0 -54 -43q-9 -20 -26 -20q-6 0 -10 1q-13 3 -13 14z" />
    <glyph glyph-name="AE" unicode="&#xc6;" horiz-adv-x="1133" 
d="M52 -3.5q-7 6.5 -7 19.5q0 6 1 10l71 400q25 139 110 211.5t222 72.5q71 0 125.5 -27.5t82.5 -78.5q13 49 44.5 72.5t85.5 23.5h308q30 0 30 -20q0 -34 -40 -34h-309q-27 0 -43.5 -15t-21.5 -44l-36 -202h288q36 0 30 -27q-5 -28 -39 -28h-288l-39 -217q-1 -5 -1 -15
q0 -43 46 -43h331q18 0 25 -6.5t5 -21.5q-6 -27 -39 -27h-326q-49 0 -77 25t-28 67q0 16 2 24l27 147h-440l-42 -237q-3 -17 -13 -26.5t-26 -9.5q-12 0 -19 6.5zM601 317l20 111q5 26 5 58q0 81 -47.5 124.5t-137.5 43.5q-107 0 -173.5 -58.5t-86.5 -167.5l-19 -111h439z
" />
    <glyph glyph-name="AEacute" unicode="&#x1fc;" horiz-adv-x="1133" 
d="M52 -3.5q-7 6.5 -7 19.5q0 6 1 10l71 400q25 139 110 211.5t222 72.5q71 0 125.5 -27.5t82.5 -78.5q13 49 44.5 72.5t85.5 23.5h308q30 0 30 -20q0 -34 -40 -34h-309q-27 0 -43.5 -15t-21.5 -44l-36 -202h288q36 0 30 -27q-5 -28 -39 -28h-288l-39 -217q-1 -5 -1 -15
q0 -43 46 -43h331q18 0 25 -6.5t5 -21.5q-6 -27 -39 -27h-326q-49 0 -77 25t-28 67q0 16 2 24l27 147h-440l-42 -237q-3 -17 -13 -26.5t-26 -9.5q-12 0 -19 6.5zM601 317l20 111q5 26 5 58q0 81 -47.5 124.5t-137.5 43.5q-107 0 -173.5 -58.5t-86.5 -167.5l-19 -111h439z
M659 805q0 7 6 17l87 140q17 27 34 27q8 0 16 -5q14 -8 14 -19q0 -10 -10 -23l-102 -138q-12 -15 -26 -15q-3 0 -9 2q-10 4 -10 14z" />
    <glyph glyph-name="B" unicode="B" horiz-adv-x="729" 
d="M90 23q-28 25 -28 69q0 7 2 23l84 470q9 55 45 85t95 30h240q84 0 131 -39.5t47 -110.5q0 -67 -35.5 -119t-96.5 -75v-1q43 -16 65.5 -48t22.5 -76q0 -66 -31.5 -119t-87 -83.5t-123.5 -30.5h-253q-49 0 -77 25zM483 385q71 0 114.5 45.5t43.5 119.5q0 49 -30 72.5
t-93 23.5h-241q-23 0 -42 -17t-23 -42l-36 -202h307zM424 54q77 0 125 48t48 126q0 49 -33 76t-93 27h-304l-39 -219q-2 -12 -2 -16q0 -42 47 -42h251z" />
    <glyph glyph-name="C" unicode="C" horiz-adv-x="752" 
d="M208.5 24.5q-64.5 34.5 -99.5 98t-35 148.5q0 126 53 226t147 156.5t212 56.5q85 0 152 -28.5t98 -79.5q4 -7 4 -16q0 -12 -10.5 -22t-23.5 -10q-18 0 -26 13q-26 45 -75 66t-128 21q-97 0 -174.5 -49.5t-121 -137.5t-43.5 -199q0 -107 60 -164t172 -57q79 0 141.5 22
t103.5 65q13 13 30 13q10 0 17 -7t7 -17q0 -13 -11 -24q-50 -50 -129.5 -79.5t-168.5 -29.5q-87 0 -151.5 34.5z" />
    <glyph glyph-name="Cacute" unicode="&#x106;" horiz-adv-x="752" 
d="M208.5 24.5q-64.5 34.5 -99.5 98t-35 148.5q0 126 53 226t147 156.5t212 56.5q85 0 152 -28.5t98 -79.5q4 -7 4 -16q0 -12 -10.5 -22t-23.5 -10q-18 0 -26 13q-26 45 -75 66t-128 21q-97 0 -174.5 -49.5t-121 -137.5t-43.5 -199q0 -107 60 -164t172 -57q79 0 141.5 22
t103.5 65q13 13 30 13q10 0 17 -7t7 -17q0 -13 -11 -24q-50 -50 -129.5 -79.5t-168.5 -29.5q-87 0 -151.5 34.5zM485 805q0 7 6 17l87 140q17 27 34 27q8 0 16 -5q14 -8 14 -19q0 -10 -10 -23l-102 -138q-12 -15 -26 -15q-3 0 -9 2q-10 4 -10 14z" />
    <glyph glyph-name="Ccaron" unicode="&#x10c;" horiz-adv-x="752" 
d="M208.5 24.5q-64.5 34.5 -99.5 98t-35 148.5q0 126 53 226t147 156.5t212 56.5q85 0 152 -28.5t98 -79.5q4 -7 4 -16q0 -12 -10.5 -22t-23.5 -10q-18 0 -26 13q-26 45 -75 66t-128 21q-97 0 -174.5 -49.5t-121 -137.5t-43.5 -199q0 -107 60 -164t172 -57q79 0 141.5 22
t103.5 65q13 13 30 13q10 0 17 -7t7 -17q0 -13 -11 -24q-50 -50 -129.5 -79.5t-168.5 -29.5q-87 0 -151.5 34.5zM479 803l-84 127q-5 6 -5 16q0 15 17 26q9 6 18 6q13 0 24 -18l65 -114l107 114q19 19 33 19q8 0 14 -6q10 -7 10 -19t-13 -25l-129 -126q-16 -16 -32 -16
q-14 0 -25 16z" />
    <glyph glyph-name="Ccedilla" unicode="&#xc7;" horiz-adv-x="752" 
d="M740 586q0 -12 -10.5 -22t-23.5 -10q-18 0 -26 13q-26 45 -75 66t-128 21q-97 0 -174.5 -49.5t-121 -137.5t-43.5 -199q0 -107 60 -164t172 -57q79 0 141.5 22t103.5 65q13 13 30 13q10 0 17 -7t7 -17q0 -13 -11 -24q-47 -47 -120 -76t-155 -32l-2 -3l-32 -47
q36 1 53.5 -14t17.5 -40q0 -42 -32 -69.5t-79 -27.5q-32 0 -56 14.5t-35 34.5q-3 6 -3 11q0 12 13 21q6 5 14 5q11 0 17 -11q7 -14 21.5 -22t34.5 -8q24 0 38.5 13.5t14.5 35.5q0 27 -30 27q-8 0 -13 -1q-13 -2 -21.5 4t-8.5 16q0 7 5 15l30 46q-119 9 -187.5 84t-68.5 196
q0 126 53 226t147 156.5t212 56.5q85 0 152 -28.5t98 -79.5q4 -7 4 -16z" />
    <glyph glyph-name="Ccircumflex" unicode="&#x108;" horiz-adv-x="752" 
d="M208.5 24.5q-64.5 34.5 -99.5 98t-35 148.5q0 126 53 226t147 156.5t212 56.5q85 0 152 -28.5t98 -79.5q4 -7 4 -16q0 -12 -10.5 -22t-23.5 -10q-18 0 -26 13q-26 45 -75 66t-128 21q-97 0 -174.5 -49.5t-121 -137.5t-43.5 -199q0 -107 60 -164t172 -57q79 0 141.5 22
t103.5 65q13 13 30 13q10 0 17 -7t7 -17q0 -13 -11 -24q-50 -50 -129.5 -79.5t-168.5 -29.5q-87 0 -151.5 34.5zM366 812q0 12 13 25l128 126q16 16 32 16q15 0 25 -16l84 -126q5 -6 5 -16q0 -17 -17 -27q-10 -6 -18 -6q-13 0 -24 18l-66 114l-107 -114q-17 -19 -31 -19
q-8 0 -15 6q-9 9 -9 19z" />
    <glyph glyph-name="Cdotaccent" unicode="&#x10a;" horiz-adv-x="752" 
d="M208.5 24.5q-64.5 34.5 -99.5 98t-35 148.5q0 126 53 226t147 156.5t212 56.5q85 0 152 -28.5t98 -79.5q4 -7 4 -16q0 -12 -10.5 -22t-23.5 -10q-18 0 -26 13q-26 45 -75 66t-128 21q-97 0 -174.5 -49.5t-121 -137.5t-43.5 -199q0 -107 60 -164t172 -57q79 0 141.5 22
t103.5 65q13 13 30 13q10 0 17 -7t7 -17q0 -13 -11 -24q-50 -50 -129.5 -79.5t-168.5 -29.5q-87 0 -151.5 34.5zM478.5 818.5q-11.5 11.5 -11.5 28.5q0 20 17.5 37t39.5 17q16 0 27.5 -11.5t11.5 -27.5q0 -20 -17 -37.5t-38 -17.5q-18 0 -29.5 11.5z" />
    <glyph glyph-name="D" unicode="D" horiz-adv-x="750" 
d="M90.5 24.5q-27.5 24.5 -27.5 68.5q0 7 2 23l83 469q10 57 46.5 86t94.5 29h140q87 0 151.5 -33t99 -94t34.5 -143q0 -122 -52 -220.5t-143.5 -154t-205.5 -55.5h-145q-50 0 -77.5 24.5zM307 55q103 0 180 46.5t119.5 132t42.5 199.5q0 106 -60 159.5t-178 53.5h-133
q-25 0 -42.5 -16t-22.5 -43l-84 -474q-1 -4 -1 -13q0 -20 12.5 -32.5t33.5 -12.5h133z" />
    <glyph glyph-name="Eth" unicode="&#xd0;" horiz-adv-x="786" 
d="M134 24q-28 24 -28 67q0 16 2 25l38 209h-63q-31 0 -31 20q0 33 41 33h62l36 207q10 56 46.5 85.5t95.5 29.5h139q133 0 209 -72t76 -199q0 -122 -52.5 -220t-144.5 -153.5t-206 -55.5h-143q-49 0 -77 24zM350 55q102 0 179.5 46.5t120 131t42.5 195.5q0 107 -60.5 162.5
t-177.5 55.5h-133q-25 0 -42.5 -16.5t-22.5 -42.5l-37 -209h169q31 0 31 -20q0 -16 -10.5 -24.5t-30.5 -8.5h-168l-37 -211q-1 -4 -1 -13q0 -21 12 -33.5t33 -12.5h133z" />
    <glyph glyph-name="Dcaron" unicode="&#x10e;" horiz-adv-x="750" 
d="M90.5 24.5q-27.5 24.5 -27.5 68.5q0 7 2 23l83 469q10 57 46.5 86t94.5 29h140q87 0 151.5 -33t99 -94t34.5 -143q0 -122 -52 -220.5t-143.5 -154t-205.5 -55.5h-145q-50 0 -77.5 24.5zM307 55q103 0 180 46.5t119.5 132t42.5 199.5q0 106 -60 159.5t-178 53.5h-133
q-25 0 -42.5 -16t-22.5 -43l-84 -474q-1 -4 -1 -13q0 -20 12.5 -32.5t33.5 -12.5h133zM417 803l-84 127q-5 6 -5 16q0 15 17 26q9 6 18 6q13 0 24 -18l65 -114l107 114q19 19 33 19q8 0 14 -6q10 -7 10 -19t-13 -25l-129 -126q-16 -16 -32 -16q-14 0 -25 16z" />
    <glyph glyph-name="Dcroat" unicode="&#x110;" horiz-adv-x="786" 
d="M134 24q-28 24 -28 67q0 16 2 25l38 209h-63q-31 0 -31 20q0 33 41 33h62l36 207q10 56 46.5 85.5t95.5 29.5h139q133 0 209 -72t76 -199q0 -122 -52.5 -220t-144.5 -153.5t-206 -55.5h-143q-49 0 -77 24zM350 55q102 0 179.5 46.5t120 131t42.5 195.5q0 107 -60.5 162.5
t-177.5 55.5h-133q-25 0 -42.5 -16.5t-22.5 -42.5l-37 -209h169q31 0 31 -20q0 -16 -10.5 -24.5t-30.5 -8.5h-168l-37 -211q-1 -4 -1 -13q0 -21 12 -33.5t33 -12.5h133z" />
    <glyph glyph-name="uni1E0C" unicode="&#x1e0c;" horiz-adv-x="750" 
d="M90.5 24.5q-27.5 24.5 -27.5 68.5q0 7 2 23l83 469q10 57 46.5 86t94.5 29h140q87 0 151.5 -33t99 -94t34.5 -143q0 -122 -52 -220.5t-143.5 -154t-205.5 -55.5h-145q-50 0 -77.5 24.5zM307 55q103 0 180 46.5t119.5 132t42.5 199.5q0 106 -60 159.5t-178 53.5h-133
q-25 0 -42.5 -16t-22.5 -43l-84 -474q-1 -4 -1 -13q0 -20 12.5 -32.5t33.5 -12.5h133zM273.5 -157q-11.5 11 -11.5 28q0 21 18 38t40 17q17 0 28.5 -11t11.5 -28q0 -21 -17 -38t-39 -17q-19 0 -30.5 11z" />
    <glyph glyph-name="uni1E0E" unicode="&#x1e0e;" horiz-adv-x="750" 
d="M90.5 24.5q-27.5 24.5 -27.5 68.5q0 7 2 23l83 469q10 57 46.5 86t94.5 29h140q87 0 151.5 -33t99 -94t34.5 -143q0 -122 -52 -220.5t-143.5 -154t-205.5 -55.5h-145q-50 0 -77.5 24.5zM307 55q103 0 180 46.5t119.5 132t42.5 199.5q0 106 -60 159.5t-178 53.5h-133
q-25 0 -42.5 -16t-22.5 -43l-84 -474q-1 -4 -1 -13q0 -20 12.5 -32.5t33.5 -12.5h133zM159 -120q0 30 37 30h243q14 0 22 -3.5t8 -14.5q0 -29 -38 -29h-243q-29 0 -29 17z" />
    <glyph glyph-name="E" unicode="E" horiz-adv-x="637" 
d="M90.5 24.5q-27.5 24.5 -27.5 66.5q0 16 2 25l83 469q10 56 44 85.5t90 29.5h317q31 0 31 -22q0 -16 -10.5 -24t-29.5 -8h-313q-25 0 -42.5 -16.5t-22.5 -42.5l-35 -202h291q17 0 25 -7t5 -20q-6 -28 -40 -28h-291l-38 -216q-2 -12 -2 -17q0 -42 46 -42h334q31 0 31 -20
q0 -17 -10.5 -26t-29.5 -9h-331q-49 0 -76.5 24.5z" />
    <glyph glyph-name="Eacute" unicode="&#xc9;" horiz-adv-x="637" 
d="M90.5 24.5q-27.5 24.5 -27.5 66.5q0 16 2 25l83 469q10 56 44 85.5t90 29.5h317q31 0 31 -22q0 -16 -10.5 -24t-29.5 -8h-313q-25 0 -42.5 -16.5t-22.5 -42.5l-35 -202h291q17 0 25 -7t5 -20q-6 -28 -40 -28h-291l-38 -216q-2 -12 -2 -17q0 -42 46 -42h334q31 0 31 -20
q0 -17 -10.5 -26t-29.5 -9h-331q-49 0 -76.5 24.5zM416 805q0 7 6 17l87 140q17 27 34 27q8 0 16 -5q14 -8 14 -19q0 -10 -10 -23l-102 -138q-12 -15 -26 -15q-3 0 -9 2q-10 4 -10 14z" />
    <glyph glyph-name="Ebreve" unicode="&#x114;" horiz-adv-x="637" 
d="M90.5 24.5q-27.5 24.5 -27.5 66.5q0 16 2 25l83 469q10 56 44 85.5t90 29.5h317q31 0 31 -22q0 -16 -10.5 -24t-29.5 -8h-313q-25 0 -42.5 -16.5t-22.5 -42.5l-35 -202h291q17 0 25 -7t5 -20q-6 -28 -40 -28h-291l-38 -216q-2 -12 -2 -17q0 -42 46 -42h334q31 0 31 -20
q0 -17 -10.5 -26t-29.5 -9h-331q-49 0 -76.5 24.5zM342 821.5q-33 32.5 -33 82.5q0 63 38 63q24 0 24 -23q0 -52 4.5 -73t18 -27.5t48.5 -6.5q45 0 71.5 25.5t34.5 69.5q6 35 35 35q25 0 25 -23q0 -40 -25 -75.5t-65 -57.5t-84 -22q-59 0 -92 32.5z" />
    <glyph glyph-name="Ecaron" unicode="&#x11a;" horiz-adv-x="637" 
d="M90.5 24.5q-27.5 24.5 -27.5 66.5q0 16 2 25l83 469q10 56 44 85.5t90 29.5h317q31 0 31 -22q0 -16 -10.5 -24t-29.5 -8h-313q-25 0 -42.5 -16.5t-22.5 -42.5l-35 -202h291q17 0 25 -7t5 -20q-6 -28 -40 -28h-291l-38 -216q-2 -12 -2 -17q0 -42 46 -42h334q31 0 31 -20
q0 -17 -10.5 -26t-29.5 -9h-331q-49 0 -76.5 24.5zM411 803l-84 127q-5 6 -5 16q0 15 17 26q9 6 18 6q13 0 24 -18l65 -114l107 114q19 19 32 19q8 0 14 -6q10 -7 10 -19t-13 -25l-128 -126q-16 -16 -32 -16q-14 0 -25 16z" />
    <glyph glyph-name="Ecircumflex" unicode="&#xca;" horiz-adv-x="637" 
d="M90.5 24.5q-27.5 24.5 -27.5 66.5q0 16 2 25l83 469q10 56 44 85.5t90 29.5h317q31 0 31 -22q0 -16 -10.5 -24t-29.5 -8h-313q-25 0 -42.5 -16.5t-22.5 -42.5l-35 -202h291q17 0 25 -7t5 -20q-6 -28 -40 -28h-291l-38 -216q-2 -12 -2 -17q0 -42 46 -42h334q31 0 31 -20
q0 -17 -10.5 -26t-29.5 -9h-331q-49 0 -76.5 24.5zM298 812q0 12 13 25l128 126q16 16 31 16t26 -16l83 -126q5 -7 5 -17q0 -16 -16 -26q-10 -6 -18 -6q-14 0 -25 18l-65 114l-106 -114q-16 -19 -32 -19q-7 0 -15 6q-9 9 -9 19z" />
    <glyph glyph-name="uni1EBE" unicode="&#x1ebe;" horiz-adv-x="637" 
d="M90.5 24.5q-27.5 24.5 -27.5 66.5q0 16 2 25l83 469q10 56 44 85.5t90 29.5h317q31 0 31 -22q0 -16 -10.5 -24t-29.5 -8h-313q-25 0 -42.5 -16.5t-22.5 -42.5l-35 -202h291q17 0 25 -7t5 -20q-6 -28 -40 -28h-291l-38 -216q-2 -12 -2 -17q0 -42 46 -42h334q31 0 31 -20
q0 -17 -10.5 -26t-29.5 -9h-331q-49 0 -76.5 24.5zM548 940q0 8 8 18l79 102q17 20 32 20q8 0 16 -5q11 -7 11 -18q0 -10 -11 -23l-94 -98q-11 -13 -22 -13q-6 0 -11 4q-8 5 -8 13zM296 813q0 10 13 23l126 111q18 16 31 16q9 0 13.5 -3.5t12.5 -12.5l86 -110q6 -7 6 -16
q0 -16 -18 -27q-9 -6 -17 -6q-13 0 -25 18l-68 98l-104 -99q-19 -17 -31 -17q-9 0 -15 6q-10 9 -10 19z" />
    <glyph glyph-name="uni1EC6" unicode="&#x1ec6;" horiz-adv-x="637" 
d="M90.5 24.5q-27.5 24.5 -27.5 66.5q0 16 2 25l83 469q10 56 44 85.5t90 29.5h317q31 0 31 -22q0 -16 -10.5 -24t-29.5 -8h-313q-25 0 -42.5 -16.5t-22.5 -42.5l-35 -202h291q17 0 25 -7t5 -20q-6 -28 -40 -28h-291l-38 -216q-2 -12 -2 -17q0 -42 46 -42h334q31 0 31 -20
q0 -17 -10.5 -26t-29.5 -9h-331q-49 0 -76.5 24.5zM216.5 -157q-11.5 11 -11.5 28q0 21 18 38t40 17q17 0 28.5 -11t11.5 -28q0 -21 -17 -38t-39 -17q-19 0 -30.5 11zM298 812q0 12 13 25l128 126q16 16 31 16t26 -16l83 -126q5 -7 5 -17q0 -16 -16 -26q-10 -6 -18 -6
q-14 0 -25 18l-65 114l-106 -114q-16 -19 -32 -19q-7 0 -15 6q-9 9 -9 19z" />
    <glyph glyph-name="uni1EC0" unicode="&#x1ec0;" horiz-adv-x="637" 
d="M90.5 24.5q-27.5 24.5 -27.5 66.5q0 16 2 25l83 469q10 56 44 85.5t90 29.5h317q31 0 31 -22q0 -16 -10.5 -24t-29.5 -8h-313q-25 0 -42.5 -16.5t-22.5 -42.5l-35 -202h291q17 0 25 -7t5 -20q-6 -28 -40 -28h-291l-38 -216q-2 -12 -2 -17q0 -42 46 -42h334q31 0 31 -20
q0 -17 -10.5 -26t-29.5 -9h-331q-49 0 -76.5 24.5zM604 923q-12 0 -18 13l-58 98q-5 8 -5 16q0 15 20 26q8 4 16 4q19 0 26 -20l42 -102q3 -6 3 -12q0 -12 -14 -20q-6 -3 -12 -3zM296 813q0 10 13 23l126 111q18 16 31 16q8 0 13.5 -3.5t12.5 -12.5l87 -110q6 -7 6 -15
t-5 -15.5t-14 -12.5q-9 -6 -17 -6q-13 0 -25 18l-68 98l-104 -99q-19 -17 -31 -17q-9 0 -15 6q-10 9 -10 19z" />
    <glyph glyph-name="uni1EC2" unicode="&#x1ec2;" horiz-adv-x="637" 
d="M90.5 24.5q-27.5 24.5 -27.5 66.5q0 16 2 25l83 469q10 56 44 85.5t90 29.5h317q31 0 31 -22q0 -16 -10.5 -24t-29.5 -8h-313q-25 0 -42.5 -16.5t-22.5 -42.5l-35 -202h291q17 0 25 -7t5 -20q-6 -28 -40 -28h-291l-38 -216q-2 -12 -2 -17q0 -42 46 -42h334q31 0 31 -20
q0 -17 -10.5 -26t-29.5 -9h-331q-49 0 -76.5 24.5zM538 943l2 8q3 15 14 26t30 24q18 13 27.5 23t9.5 23q0 24 -33 24q-18 0 -30 -5t-23 -17q-11 -11 -20 -11q-5 0 -11 3q-10 5 -10 14q0 8 7 15q15 20 40 32t57 12q38 0 56 -16t18 -41q0 -27 -12 -41.5t-36 -29.5
q-15 -9 -23 -17t-10 -19l-1 -7q-3 -24 -30 -24q-28 0 -22 24zM296 813q0 10 13 23l126 111q18 16 31 16q8 0 13.5 -3.5t12.5 -12.5l87 -110q6 -7 6 -15t-5 -15.5t-14 -12.5q-9 -6 -17 -6q-13 0 -25 18l-68 98l-104 -99q-19 -17 -31 -17q-9 0 -15 6q-10 9 -10 19z" />
    <glyph glyph-name="uni1EC4" unicode="&#x1ec4;" horiz-adv-x="637" 
d="M90.5 24.5q-27.5 24.5 -27.5 66.5q0 16 2 25l83 469q10 56 44 85.5t90 29.5h317q31 0 31 -22q0 -16 -10.5 -24t-29.5 -8h-313q-25 0 -42.5 -16.5t-22.5 -42.5l-35 -202h291q17 0 25 -7t5 -20q-6 -28 -40 -28h-291l-38 -216q-2 -12 -2 -17q0 -42 46 -42h334q31 0 31 -20
q0 -17 -10.5 -26t-29.5 -9h-331q-49 0 -76.5 24.5zM324 995q0 8 4 16q12 33 39.5 53t59.5 20q23 0 39.5 -8.5t34.5 -23.5q15 -12 25 -17.5t22 -5.5q34 0 52 42q9 19 25 19q6 0 9 -1q12 -3 12 -14q0 -9 -4 -18q-11 -31 -39 -51.5t-60 -20.5q-21 0 -35.5 7.5t-32.5 22.5
q-16 13 -27 19t-26 6q-16 0 -29.5 -11t-21.5 -28q-6 -12 -11.5 -17t-13.5 -5q-2 0 -10 2q-12 3 -12 14zM297 813q0 12 13 24l125 111q7 6 15 11t16 5q17 0 26 -16l86 -111q6 -7 6 -16q0 -15 -17 -27q-9 -6 -17 -6q-13 0 -25 18l-69 99l-103 -99q-17 -17 -31 -17q-9 0 -16 6
q-9 8 -9 18z" />
    <glyph glyph-name="Edieresis" unicode="&#xcb;" horiz-adv-x="637" 
d="M90.5 24.5q-27.5 24.5 -27.5 66.5q0 16 2 25l83 469q10 56 44 85.5t90 29.5h317q31 0 31 -22q0 -16 -10.5 -24t-29.5 -8h-313q-25 0 -42.5 -16.5t-22.5 -42.5l-35 -202h291q17 0 25 -7t5 -20q-6 -28 -40 -28h-291l-38 -216q-2 -12 -2 -17q0 -42 46 -42h334q31 0 31 -20
q0 -17 -10.5 -26t-29.5 -9h-331q-49 0 -76.5 24.5zM311.5 820q-11.5 11 -11.5 27q0 20 17.5 37t38.5 17q16 0 27 -11.5t11 -27.5q0 -20 -17 -36.5t-37 -16.5q-17 0 -28.5 11zM513.5 820q-11.5 11 -11.5 27q0 20 17.5 37t38.5 17q16 0 27 -11.5t11 -27.5q0 -20 -17 -36.5
t-38 -16.5q-16 0 -27.5 11z" />
    <glyph glyph-name="Edotaccent" unicode="&#x116;" horiz-adv-x="637" 
d="M90.5 24.5q-27.5 24.5 -27.5 66.5q0 16 2 25l83 469q10 56 44 85.5t90 29.5h317q31 0 31 -22q0 -16 -10.5 -24t-29.5 -8h-313q-25 0 -42.5 -16.5t-22.5 -42.5l-35 -202h291q17 0 25 -7t5 -20q-6 -28 -40 -28h-291l-38 -216q-2 -12 -2 -17q0 -42 46 -42h334q31 0 31 -20
q0 -17 -10.5 -26t-29.5 -9h-331q-49 0 -76.5 24.5zM410 818.5q-12 11.5 -12 28.5q0 20 18 37t40 17q16 0 27.5 -11.5t11.5 -27.5q0 -20 -17.5 -37.5t-38.5 -17.5q-17 0 -29 11.5z" />
    <glyph glyph-name="uni1EB8" unicode="&#x1eb8;" horiz-adv-x="637" 
d="M90.5 24.5q-27.5 24.5 -27.5 66.5q0 16 2 25l83 469q10 56 44 85.5t90 29.5h317q31 0 31 -22q0 -16 -10.5 -24t-29.5 -8h-313q-25 0 -42.5 -16.5t-22.5 -42.5l-35 -202h291q17 0 25 -7t5 -20q-6 -28 -40 -28h-291l-38 -216q-2 -12 -2 -17q0 -42 46 -42h334q31 0 31 -20
q0 -17 -10.5 -26t-29.5 -9h-331q-49 0 -76.5 24.5zM216.5 -157q-11.5 11 -11.5 28q0 21 18 38t40 17q17 0 28.5 -11t11.5 -28q0 -21 -17 -38t-39 -17q-19 0 -30.5 11z" />
    <glyph glyph-name="Egrave" unicode="&#xc8;" horiz-adv-x="637" 
d="M90.5 24.5q-27.5 24.5 -27.5 66.5q0 16 2 25l83 469q10 56 44 85.5t90 29.5h317q31 0 31 -22q0 -16 -10.5 -24t-29.5 -8h-313q-25 0 -42.5 -16.5t-22.5 -42.5l-35 -202h291q17 0 25 -7t5 -20q-6 -28 -40 -28h-291l-38 -216q-2 -12 -2 -17q0 -42 46 -42h334q31 0 31 -20
q0 -17 -10.5 -26t-29.5 -9h-331q-49 0 -76.5 24.5zM439 789q-14 0 -20 15l-53 138q-3 8 -3 15q0 16 22 27q9 4 17 4q18 0 24 -26l39 -140q1 -3 1 -8q0 -16 -16 -23q-8 -2 -11 -2z" />
    <glyph glyph-name="uni1EBA" unicode="&#x1eba;" horiz-adv-x="637" 
d="M90.5 24.5q-27.5 24.5 -27.5 66.5q0 16 2 25l83 469q10 56 44 85.5t90 29.5h317q31 0 31 -22q0 -16 -10.5 -24t-29.5 -8h-313q-25 0 -42.5 -16.5t-22.5 -42.5l-35 -202h291q17 0 25 -7t5 -20q-6 -28 -40 -28h-291l-38 -216q-2 -12 -2 -17q0 -42 46 -42h334q31 0 31 -20
q0 -17 -10.5 -26t-29.5 -9h-331q-49 0 -76.5 24.5zM406 786l1 8q3 17 15 28.5t34 26.5q22 16 31.5 25.5t9.5 24.5q0 12 -9 19.5t-26 7.5q-37 0 -61 -27q-12 -14 -23 -14q-5 0 -11 3q-11 6 -11 16q0 7 7 16q16 21 46 36.5t64 15.5q41 0 61 -17.5t20 -45.5t-13.5 -44
t-38.5 -31q-18 -12 -26 -20t-9 -20l-1 -8q-6 -27 -36 -27q-27 0 -24 27z" />
    <glyph glyph-name="Emacron" unicode="&#x112;" horiz-adv-x="637" 
d="M90.5 24.5q-27.5 24.5 -27.5 66.5q0 16 2 25l83 469q10 56 44 85.5t90 29.5h317q31 0 31 -22q0 -16 -10.5 -24t-29.5 -8h-313q-25 0 -42.5 -16.5t-22.5 -42.5l-35 -202h291q17 0 25 -7t5 -20q-6 -28 -40 -28h-291l-38 -216q-2 -12 -2 -17q0 -42 46 -42h334q31 0 31 -20
q0 -17 -10.5 -26t-29.5 -9h-331q-49 0 -76.5 24.5zM286 809q0 16 9.5 22.5t27.5 6.5h243q14 0 21.5 -3.5t7.5 -13.5q0 -30 -37 -30h-243q-29 0 -29 18z" />
    <glyph glyph-name="Eogonek" unicode="&#x118;" horiz-adv-x="637" 
d="M630 678q0 -16 -10.5 -24t-29.5 -8h-313q-25 0 -42.5 -16.5t-22.5 -42.5l-35 -202h291q17 0 25 -7t5 -20q-6 -28 -40 -28h-291l-38 -216q-2 -12 -2 -17q0 -42 46 -42h334q31 0 31 -20q0 -17 -10.5 -26t-29.5 -9h-11l-8 -6q-52 -36 -77 -62.5t-25 -58.5q0 -16 12 -25.5
t34 -9.5q31 0 59 21q11 8 18 8q8 0 13 -7t5 -12q0 -11 -13 -21q-39 -35 -92 -35q-42 0 -66 20t-24 51q0 66 93 137h-249q-49 0 -76.5 24.5t-27.5 66.5q0 16 2 25l83 469q10 56 44 85.5t90 29.5h317q31 0 31 -22z" />
    <glyph glyph-name="uni1EBC" unicode="&#x1ebc;" horiz-adv-x="637" 
d="M90.5 24.5q-27.5 24.5 -27.5 66.5q0 16 2 25l83 469q10 56 44 85.5t90 29.5h317q31 0 31 -22q0 -16 -10.5 -24t-29.5 -8h-313q-25 0 -42.5 -16.5t-22.5 -42.5l-35 -202h291q17 0 25 -7t5 -20q-6 -28 -40 -28h-291l-38 -216q-2 -12 -2 -17q0 -42 46 -42h334q31 0 31 -20
q0 -17 -10.5 -26t-29.5 -9h-331q-49 0 -76.5 24.5zM279 821q0 8 4 17q14 34 42 55.5t62 21.5q25 0 41.5 -8.5t36.5 -24.5q15 -12 25.5 -18t23.5 -6q36 0 55 43q8 20 25 20q7 0 10 -1q13 -3 13 -16q0 -5 -4 -17q-14 -34 -43 -55t-62 -21q-21 0 -36.5 8t-34.5 23
q-18 13 -29.5 19.5t-26.5 6.5q-34 0 -54 -43q-9 -21 -26 -21q-6 0 -9 1q-13 4 -13 16z" />
    <glyph glyph-name="F" unicode="F" horiz-adv-x="615" 
d="M49 15q0 7 1 11l98 559q10 57 45.5 86t92.5 29h313q36 0 30 -27q-4 -27 -39 -27h-312q-25 0 -42.5 -16t-22.5 -43l-38 -212h291q31 0 31 -21q0 -34 -40 -34h-291l-52 -294q-3 -17 -13.5 -26.5t-25.5 -9.5q-26 0 -26 25z" />
    <glyph glyph-name="G" unicode="G" horiz-adv-x="771" 
d="M213.5 24.5q-67.5 34.5 -104 98t-36.5 147.5q0 126 53.5 226.5t148.5 157t213 56.5q85 0 153 -28.5t98 -79.5q5 -7 5 -16q0 -13 -10.5 -22.5t-24.5 -9.5q-17 0 -25 13q-51 87 -203 87q-99 0 -177 -49.5t-122 -137t-44 -197.5q0 -106 63 -164.5t179 -58.5q67 0 123.5 22.5
t92.5 62.5t45 91l7 36q2 14 2 20q0 19 -10 26t-35 7h-155q-31 0 -31 21q0 34 40 34h160q47 0 71.5 -20t24.5 -58q0 -8 -2 -24l-7 -38q-13 -71 -59.5 -124.5t-118 -83t-157.5 -29.5q-90 0 -157.5 34.5z" />
    <glyph glyph-name="Gbreve" unicode="&#x11e;" horiz-adv-x="771" 
d="M213.5 24.5q-67.5 34.5 -104 98t-36.5 147.5q0 126 53.5 226.5t148.5 157t213 56.5q85 0 153 -28.5t98 -79.5q5 -7 5 -16q0 -13 -10.5 -22.5t-24.5 -9.5q-17 0 -25 13q-51 87 -203 87q-99 0 -177 -49.5t-122 -137t-44 -197.5q0 -106 63 -164.5t179 -58.5q67 0 123.5 22.5
t92.5 62.5t45 91l7 36q2 14 2 20q0 19 -10 26t-35 7h-155q-31 0 -31 21q0 34 40 34h160q47 0 71.5 -20t24.5 -58q0 -8 -2 -24l-7 -38q-13 -71 -59.5 -124.5t-118 -83t-157.5 -29.5q-90 0 -157.5 34.5zM391 821.5q-33 32.5 -33 82.5q0 63 38 63q24 0 24 -23q0 -52 4.5 -73
t18 -27.5t48.5 -6.5q45 0 71.5 25.5t34.5 69.5q6 35 35 35q25 0 25 -23q0 -40 -25 -75.5t-65 -57.5t-84 -22q-59 0 -92 32.5z" />
    <glyph glyph-name="Gcaron" unicode="&#x1e6;" horiz-adv-x="771" 
d="M213.5 24.5q-67.5 34.5 -104 98t-36.5 147.5q0 126 53.5 226.5t148.5 157t213 56.5q85 0 153 -28.5t98 -79.5q5 -7 5 -16q0 -13 -10.5 -22.5t-24.5 -9.5q-17 0 -25 13q-51 87 -203 87q-99 0 -177 -49.5t-122 -137t-44 -197.5q0 -106 63 -164.5t179 -58.5q67 0 123.5 22.5
t92.5 62.5t45 91l7 36q2 14 2 20q0 19 -10 26t-35 7h-155q-31 0 -31 21q0 34 40 34h160q47 0 71.5 -20t24.5 -58q0 -8 -2 -24l-7 -38q-13 -71 -59.5 -124.5t-118 -83t-157.5 -29.5q-90 0 -157.5 34.5zM460 803l-84 127q-5 6 -5 16q0 15 17 26q9 6 18 6q13 0 24 -18l65 -114
l107 114q19 19 32 19q8 0 14 -6q10 -7 10 -19t-13 -25l-128 -126q-16 -16 -32 -16q-14 0 -25 16z" />
    <glyph glyph-name="Gcircumflex" unicode="&#x11c;" horiz-adv-x="771" 
d="M213.5 24.5q-67.5 34.5 -104 98t-36.5 147.5q0 126 53.5 226.5t148.5 157t213 56.5q85 0 153 -28.5t98 -79.5q5 -7 5 -16q0 -13 -10.5 -22.5t-24.5 -9.5q-17 0 -25 13q-51 87 -203 87q-99 0 -177 -49.5t-122 -137t-44 -197.5q0 -106 63 -164.5t179 -58.5q67 0 123.5 22.5
t92.5 62.5t45 91l7 36q2 14 2 20q0 19 -10 26t-35 7h-155q-31 0 -31 21q0 34 40 34h160q47 0 71.5 -20t24.5 -58q0 -8 -2 -24l-7 -38q-13 -71 -59.5 -124.5t-118 -83t-157.5 -29.5q-90 0 -157.5 34.5zM347 812q0 12 13 25l128 126q16 16 31 16t26 -16l83 -126q5 -7 5 -17
q0 -16 -16 -26q-10 -6 -18 -6q-14 0 -25 18l-65 114l-106 -114q-16 -19 -32 -19q-7 0 -15 6q-9 9 -9 19z" />
    <glyph glyph-name="uni0122" unicode="&#x122;" horiz-adv-x="771" 
d="M213.5 24.5q-67.5 34.5 -104 98t-36.5 147.5q0 126 53.5 226.5t148.5 157t213 56.5q85 0 153 -28.5t98 -79.5q5 -7 5 -16q0 -13 -10.5 -22.5t-24.5 -9.5q-17 0 -25 13q-51 87 -203 87q-99 0 -177 -49.5t-122 -137t-44 -197.5q0 -106 63 -164.5t179 -58.5q67 0 123.5 22.5
t92.5 62.5t45 91l7 36q2 14 2 20q0 19 -10 26t-35 7h-155q-31 0 -31 21q0 34 40 34h160q47 0 71.5 -20t24.5 -58q0 -8 -2 -24l-7 -38q-13 -71 -59.5 -124.5t-118 -83t-157.5 -29.5q-90 0 -157.5 34.5zM224 -282q0 10 20 25q64 44 73 82q-5 -2 -16 -2q-18 0 -30.5 11
t-12.5 28q0 27 20.5 45.5t49.5 18.5q23 0 36.5 -14t13.5 -39q0 -39 -28 -80.5t-77 -74.5q-11 -8 -20 -13t-14 -5q-6 0 -11 7q-4 8 -4 11z" />
    <glyph glyph-name="Gdotaccent" unicode="&#x120;" horiz-adv-x="771" 
d="M213.5 24.5q-67.5 34.5 -104 98t-36.5 147.5q0 126 53.5 226.5t148.5 157t213 56.5q85 0 153 -28.5t98 -79.5q5 -7 5 -16q0 -13 -10.5 -22.5t-24.5 -9.5q-17 0 -25 13q-51 87 -203 87q-99 0 -177 -49.5t-122 -137t-44 -197.5q0 -106 63 -164.5t179 -58.5q67 0 123.5 22.5
t92.5 62.5t45 91l7 36q2 14 2 20q0 19 -10 26t-35 7h-155q-31 0 -31 21q0 34 40 34h160q47 0 71.5 -20t24.5 -58q0 -8 -2 -24l-7 -38q-13 -71 -59.5 -124.5t-118 -83t-157.5 -29.5q-90 0 -157.5 34.5zM459 818.5q-12 11.5 -12 28.5q0 20 18 37t40 17q16 0 27.5 -11.5
t11.5 -27.5q0 -20 -17.5 -37.5t-38.5 -17.5q-17 0 -29 11.5z" />
    <glyph glyph-name="uni1E20" unicode="&#x1e20;" horiz-adv-x="771" 
d="M213.5 24.5q-67.5 34.5 -104 98t-36.5 147.5q0 126 53.5 226.5t148.5 157t213 56.5q85 0 153 -28.5t98 -79.5q5 -7 5 -16q0 -13 -10.5 -22.5t-24.5 -9.5q-17 0 -25 13q-51 87 -203 87q-99 0 -177 -49.5t-122 -137t-44 -197.5q0 -106 63 -164.5t179 -58.5q67 0 123.5 22.5
t92.5 62.5t45 91l7 36q2 14 2 20q0 19 -10 26t-35 7h-155q-31 0 -31 21q0 34 40 34h160q47 0 71.5 -20t24.5 -58q0 -8 -2 -24l-7 -38q-13 -71 -59.5 -124.5t-118 -83t-157.5 -29.5q-90 0 -157.5 34.5zM335 809q0 16 9.5 22.5t27.5 6.5h243q14 0 21.5 -3.5t7.5 -13.5
q0 -30 -37 -30h-243q-29 0 -29 18z" />
    <glyph glyph-name="H" unicode="H" horiz-adv-x="760" 
d="M56 -3.5q-7 6.5 -7 19.5q0 6 1 10l115 648q6 36 37 36q13 0 20.5 -7t7.5 -20q0 -6 -1 -9l-51 -287h454l50 287q3 17 13.5 26.5t25.5 9.5q27 0 27 -26q0 -7 -1 -10l-115 -648q-3 -18 -13 -27t-25 -9q-27 0 -27 26q0 6 1 10l54 306h-454l-54 -306q-3 -17 -13 -26.5
t-26 -9.5q-12 0 -19 6.5z" />
    <glyph glyph-name="Hbar" unicode="&#x126;" horiz-adv-x="796" 
d="M819 540q0 -5 -1 -8q-4 -25 -38 -25h-46l-85 -481q-4 -18 -14 -27t-25 -9q-27 0 -27 27q0 6 1 9l54 306h-453l-54 -306q-3 -17 -13.5 -26.5t-25.5 -9.5q-26 0 -26 25q0 7 1 11l85 481h-46q-34 0 -30 26q5 27 39 27h46l20 114q3 18 13 27t25 9q12 0 19.5 -7t7.5 -20
q0 -6 -1 -9l-20 -114h454l20 114q2 17 12.5 26.5t25.5 9.5q27 0 27 -26q0 -7 -1 -10l-20 -114h46q30 0 30 -20zM669 507h-453l-21 -120h453z" />
    <glyph glyph-name="uni1E2A" unicode="&#x1e2a;" horiz-adv-x="760" 
d="M56 -3.5q-7 6.5 -7 19.5q0 6 1 10l115 648q6 36 37 36q13 0 20.5 -7t7.5 -20q0 -6 -1 -9l-51 -287h454l50 287q3 17 13.5 26.5t25.5 9.5q27 0 27 -26q0 -7 -1 -10l-115 -648q-3 -18 -13 -27t-25 -9q-27 0 -27 26q0 6 1 10l54 306h-454l-54 -306q-3 -17 -13 -26.5
t-26 -9.5q-12 0 -19 6.5zM208 -217.5q-32 31.5 -32 81.5q0 63 37 63q23 0 23 -22q0 -51 4.5 -72.5t18.5 -28t49 -6.5q45 0 72 25t34 67q4 19 12 28t23 9q24 0 24 -23q0 -39 -24.5 -74.5t-64.5 -57t-84 -21.5q-60 0 -92 31.5z" />
    <glyph glyph-name="Hcircumflex" unicode="&#x124;" horiz-adv-x="760" 
d="M56 -3.5q-7 6.5 -7 19.5q0 6 1 10l115 648q6 36 37 36q13 0 20.5 -7t7.5 -20q0 -6 -1 -9l-51 -287h454l50 287q3 17 13.5 26.5t25.5 9.5q27 0 27 -26q0 -7 -1 -10l-115 -648q-3 -18 -13 -27t-25 -9q-27 0 -27 26q0 6 1 10l54 306h-454l-54 -306q-3 -17 -13 -26.5
t-26 -9.5q-12 0 -19 6.5zM320 812q0 12 13 25l128 126q16 16 31 16t26 -16l83 -126q5 -7 5 -17q0 -16 -16 -26q-10 -6 -18 -6q-14 0 -25 18l-65 114l-106 -114q-16 -19 -32 -19q-7 0 -15 6q-9 9 -9 19z" />
    <glyph glyph-name="uni1E24" unicode="&#x1e24;" horiz-adv-x="760" 
d="M56 -3.5q-7 6.5 -7 19.5q0 6 1 10l115 648q6 36 37 36q13 0 20.5 -7t7.5 -20q0 -6 -1 -9l-51 -287h454l50 287q3 17 13.5 26.5t25.5 9.5q27 0 27 -26q0 -7 -1 -10l-115 -648q-3 -18 -13 -27t-25 -9q-27 0 -27 26q0 6 1 10l54 306h-454l-54 -306q-3 -17 -13 -26.5
t-26 -9.5q-12 0 -19 6.5zM283.5 -157q-11.5 11 -11.5 28q0 21 18 38t40 17q17 0 28.5 -11t11.5 -28q0 -21 -17 -38t-39 -17q-19 0 -30.5 11z" />
    <glyph glyph-name="I" unicode="I" horiz-adv-x="304" 
d="M87 -3.5q-7 6.5 -7 19.5q0 6 1 10l115 648q2 17 12 26.5t25 9.5q13 0 20.5 -7t7.5 -20q0 -6 -1 -9l-115 -648q-3 -17 -13 -26.5t-26 -9.5q-12 0 -19 6.5z" />
    <glyph glyph-name="IJ" unicode="&#x132;" horiz-adv-x="802" 
d="M87 -3.5q-7 6.5 -7 19.5q0 6 1 10l115 648q6 36 37 36q13 0 20.5 -7t7.5 -20q0 -6 -1 -9l-115 -648q-3 -17 -13.5 -26.5t-25.5 -9.5q-12 0 -19 6.5zM231 104q-4 7 -4 15q0 15 15 27q10 7 20 7q16 0 25 -14q28 -51 66.5 -71t106.5 -20q74 0 123.5 43.5t63.5 122.5l81 460
q7 36 38 36q13 0 20.5 -7t7.5 -19q0 -6 -1 -9l-81 -457q-19 -105 -89.5 -166.5t-172.5 -61.5q-151 0 -219 114z" />
    <glyph glyph-name="Iacute" unicode="&#xcd;" horiz-adv-x="304" 
d="M87 -3.5q-7 6.5 -7 19.5q0 6 1 10l115 648q2 17 12 26.5t25 9.5q13 0 20.5 -7t7.5 -20q0 -6 -1 -9l-115 -648q-3 -17 -13 -26.5t-26 -9.5q-12 0 -19 6.5zM228 805q0 7 6 17l87 140q17 27 34 27q8 0 16 -5q14 -8 14 -19q0 -10 -10 -23l-102 -138q-12 -15 -26 -15
q-3 0 -9 2q-10 4 -10 14z" />
    <glyph glyph-name="Ibreve" unicode="&#x12c;" horiz-adv-x="304" 
d="M87 -3.5q-7 6.5 -7 19.5q0 6 1 10l115 648q2 17 12 26.5t25 9.5q13 0 20.5 -7t7.5 -20q0 -6 -1 -9l-115 -648q-3 -17 -13 -26.5t-26 -9.5q-12 0 -19 6.5zM153 821.5q-33 32.5 -33 82.5q0 63 38 63q24 0 24 -23q0 -52 4.5 -73t18 -27.5t48.5 -6.5q45 0 71.5 25.5
t34.5 69.5q6 35 35 35q25 0 25 -23q0 -40 -25 -75.5t-65 -57.5t-84 -22q-59 0 -92 32.5z" />
    <glyph glyph-name="uni01CF" unicode="&#x1cf;" horiz-adv-x="304" 
d="M87 -3.5q-7 6.5 -7 19.5q0 6 1 10l115 648q2 17 12 26.5t25 9.5q13 0 20.5 -7t7.5 -20q0 -6 -1 -9l-115 -648q-3 -17 -13 -26.5t-26 -9.5q-12 0 -19 6.5zM222 803l-84 127q-5 6 -5 16q0 15 17 26q9 6 18 6q13 0 24 -18l65 -114l107 114q19 19 32 19q8 0 14 -6
q10 -7 10 -19t-13 -25l-128 -126q-16 -16 -32 -16q-14 0 -25 16z" />
    <glyph glyph-name="Icircumflex" unicode="&#xce;" horiz-adv-x="304" 
d="M87 -3.5q-7 6.5 -7 19.5q0 6 1 10l115 648q2 17 12 26.5t25 9.5q13 0 20.5 -7t7.5 -20q0 -6 -1 -9l-115 -648q-3 -17 -13 -26.5t-26 -9.5q-12 0 -19 6.5zM109 812q0 12 13 25l128 126q16 16 31 16t26 -16l83 -126q5 -7 5 -17q0 -16 -16 -26q-10 -6 -18 -6q-14 0 -25 18
l-65 114l-106 -114q-16 -19 -32 -19q-7 0 -15 6q-9 9 -9 19z" />
    <glyph glyph-name="Idieresis" unicode="&#xcf;" horiz-adv-x="304" 
d="M87 -3.5q-7 6.5 -7 19.5q0 6 1 10l115 648q2 17 12 26.5t25 9.5q13 0 20.5 -7t7.5 -20q0 -6 -1 -9l-115 -648q-3 -17 -13 -26.5t-26 -9.5q-12 0 -19 6.5zM122.5 820q-11.5 11 -11.5 27q0 20 17.5 37t38.5 17q16 0 27 -11.5t11 -27.5q0 -20 -17 -36.5t-37 -16.5
q-17 0 -28.5 11zM324.5 820q-11.5 11 -11.5 27q0 20 17.5 37t38.5 17q16 0 27 -11.5t11 -27.5q0 -20 -17 -36.5t-38 -16.5q-16 0 -27.5 11z" />
    <glyph glyph-name="Idotaccent" unicode="&#x130;" horiz-adv-x="304" 
d="M87 -3.5q-7 6.5 -7 19.5q0 6 1 10l115 648q2 17 12 26.5t25 9.5q13 0 20.5 -7t7.5 -20q0 -6 -1 -9l-115 -648q-3 -17 -13 -26.5t-26 -9.5q-12 0 -19 6.5zM222 818.5q-12 11.5 -12 28.5q0 20 18 37t40 17q16 0 27.5 -11.5t11.5 -27.5q0 -20 -17.5 -37.5t-38.5 -17.5
q-17 0 -29 11.5z" />
    <glyph glyph-name="uni1ECA" unicode="&#x1eca;" horiz-adv-x="304" 
d="M87 -3.5q-7 6.5 -7 19.5q0 6 1 10l115 648q2 17 12 26.5t25 9.5q13 0 20.5 -7t7.5 -20q0 -6 -1 -9l-115 -648q-3 -17 -13 -26.5t-26 -9.5q-12 0 -19 6.5zM48.5 -157q-11.5 11 -11.5 28q0 21 18 38t40 17q17 0 28.5 -11t11.5 -28q0 -21 -17 -38t-39 -17q-19 0 -30.5 11z
" />
    <glyph glyph-name="Igrave" unicode="&#xcc;" horiz-adv-x="304" 
d="M87 -3.5q-7 6.5 -7 19.5q0 6 1 10l115 648q2 17 12 26.5t25 9.5q13 0 20.5 -7t7.5 -20q0 -6 -1 -9l-115 -648q-3 -17 -13 -26.5t-26 -9.5q-12 0 -19 6.5zM251 789q-14 0 -20 15l-53 138q-3 8 -3 15q0 16 22 27q9 4 17 4q18 0 24 -26l39 -140q1 -3 1 -8q0 -16 -16 -23
q-8 -2 -11 -2z" />
    <glyph glyph-name="uni1EC8" unicode="&#x1ec8;" horiz-adv-x="304" 
d="M87 -3.5q-7 6.5 -7 19.5q0 6 1 10l115 648q2 17 12 26.5t25 9.5q13 0 20.5 -7t7.5 -20q0 -6 -1 -9l-115 -648q-3 -17 -13 -26.5t-26 -9.5q-12 0 -19 6.5zM218 786l1 8q3 17 15 28.5t34 26.5q22 16 31.5 25.5t9.5 24.5q0 12 -9 19.5t-26 7.5q-37 0 -61 -27
q-12 -14 -23 -14q-5 0 -11 3q-11 6 -11 16q0 7 7 16q16 21 46 36.5t64 15.5q41 0 61 -17.5t20 -45.5t-13.5 -44t-38.5 -31q-18 -12 -26 -20t-9 -20l-1 -8q-6 -27 -36 -27q-27 0 -24 27z" />
    <glyph glyph-name="Imacron" unicode="&#x12a;" horiz-adv-x="304" 
d="M87 -3.5q-7 6.5 -7 19.5q0 6 1 10l115 648q2 17 12 26.5t25 9.5q13 0 20.5 -7t7.5 -20q0 -6 -1 -9l-115 -648q-3 -17 -13 -26.5t-26 -9.5q-12 0 -19 6.5zM97 809q0 16 9.5 22.5t27.5 6.5h243q14 0 21.5 -3.5t7.5 -13.5q0 -30 -37 -30h-243q-29 0 -29 18z" />
    <glyph glyph-name="Iogonek" unicode="&#x12e;" horiz-adv-x="304" 
d="M47 -68.5q-25 -26.5 -25 -58.5q0 -16 12 -25.5t34 -9.5q31 0 59 21q11 8 18 8q8 0 13 -7t5 -12q0 -11 -13 -21q-39 -35 -92 -35q-42 0 -66.5 20t-24.5 51q0 72 113 151q0 8 1 12l115 648q2 17 12 26.5t25 9.5q13 0 20.5 -7t7.5 -20q0 -6 -1 -9l-115 -648q-2 -8 -4 -13
q-1 -3 -5 -9t-11 -9l-0.5 -0.5l-0.5 -0.5q-52 -36 -77 -62.5z" />
    <glyph glyph-name="Itilde" unicode="&#x128;" horiz-adv-x="304" 
d="M87 -3.5q-7 6.5 -7 19.5q0 6 1 10l115 648q2 17 12 26.5t25 9.5q13 0 20.5 -7t7.5 -20q0 -6 -1 -9l-115 -648q-3 -17 -13 -26.5t-26 -9.5q-12 0 -19 6.5zM90 821q0 8 4 17q14 34 42 55.5t62 21.5q25 0 41.5 -8.5t36.5 -24.5q15 -12 25.5 -18t23.5 -6q36 0 55 43
q8 20 25 20q7 0 10 -1q13 -3 13 -16q0 -5 -4 -17q-14 -34 -43 -55t-62 -21q-21 0 -36.5 8t-34.5 23q-18 13 -29.5 19.5t-26.5 6.5q-34 0 -54 -43q-9 -21 -26 -21q-6 0 -9 1q-13 4 -13 16z" />
    <glyph glyph-name="J" unicode="J" horiz-adv-x="606" 
d="M125.5 19.5q-56.5 29.5 -90.5 84.5q-4 7 -4 14q0 16 16 28q8 7 20 7q16 0 24 -14q28 -50 66.5 -70.5t106.5 -20.5q76 0 124.5 43.5t62.5 122.5l82 460q6 36 37 36q13 0 20.5 -7t7.5 -20q0 -6 -1 -9l-81 -456q-19 -107 -88 -167.5t-172 -60.5q-74 0 -130.5 29.5z" />
    <glyph glyph-name="Jcircumflex" unicode="&#x134;" horiz-adv-x="606" 
d="M125.5 19.5q-56.5 29.5 -90.5 84.5q-4 7 -4 14q0 16 16 28q8 7 20 7q16 0 24 -14q28 -50 66.5 -70.5t106.5 -20.5q76 0 124.5 43.5t62.5 122.5l82 460q6 36 37 36q13 0 20.5 -7t7.5 -20q0 -6 -1 -9l-81 -456q-19 -107 -88 -167.5t-172 -60.5q-74 0 -130.5 29.5zM446 812
q0 12 13 25l128 126q16 16 31 16t26 -16l83 -126q5 -7 5 -17q0 -16 -16 -26q-10 -6 -18 -6q-14 0 -25 18l-65 114l-106 -114q-16 -19 -32 -19q-7 0 -15 6q-9 9 -9 19z" />
    <glyph glyph-name="K" unicode="K" horiz-adv-x="690" 
d="M538.5 -4.5q-8.5 6.5 -9.5 20.5q-5 89 -27 150.5t-68 111t-127 99.5l-149 -106l-43 -244q-3 -17 -13.5 -27t-25.5 -10q-26 0 -26 27q0 6 1 10l115 647q6 36 37 36q32 0 27 -36l-58 -330l473 354q8 7 19 7q13 0 20 -10q6 -7 6 -16q0 -14 -14 -25l-317 -239
q121 -87 173.5 -174.5t56.5 -213.5q1 -13 -7.5 -23.5t-21.5 -12.5t-21.5 4.5z" />
    <glyph glyph-name="uni0136" unicode="&#x136;" horiz-adv-x="690" 
d="M538.5 -4.5q-8.5 6.5 -9.5 20.5q-5 89 -27 150.5t-68 111t-127 99.5l-149 -106l-43 -244q-3 -17 -13.5 -27t-25.5 -10q-26 0 -26 27q0 6 1 10l115 647q6 36 37 36q32 0 27 -36l-58 -330l473 354q8 7 19 7q13 0 20 -10q6 -7 6 -16q0 -14 -14 -25l-317 -239
q121 -87 173.5 -174.5t56.5 -213.5q1 -13 -7.5 -23.5t-21.5 -12.5t-21.5 4.5zM182 -282q0 10 20 25q64 44 73 82q-5 -2 -16 -2q-18 0 -30.5 11t-12.5 28q0 27 20.5 45.5t49.5 18.5q23 0 36.5 -14t13.5 -39q0 -39 -28 -80.5t-77 -74.5q-11 -8 -20 -13t-14 -5q-6 0 -11 7
q-4 8 -4 11z" />
    <glyph glyph-name="L" unicode="L" horiz-adv-x="632" 
d="M94.5 25.5q-28.5 25.5 -28.5 67.5q0 7 2 23l99 558q7 36 38 36q13 0 20.5 -7t7.5 -19q0 -6 -1 -9l-100 -561q-1 -5 -1 -13q0 -22 12 -34t34 -12h335q31 0 31 -20q0 -16 -10.5 -25.5t-29.5 -9.5h-332q-48 0 -76.5 25.5z" />
    <glyph glyph-name="Lacute" unicode="&#x139;" horiz-adv-x="612" 
d="M94.5 25.5q-28.5 25.5 -28.5 67.5q0 7 2 23l99 558q7 36 38 36q13 0 20.5 -7t7.5 -19q0 -6 -1 -9l-100 -561q-1 -5 -1 -13q0 -22 12 -34t34 -12h335q31 0 31 -20q0 -16 -10.5 -25.5t-29.5 -9.5h-332q-48 0 -76.5 25.5zM180 805q0 7 6 17l87 140q17 27 34 27q8 0 16 -5
q14 -8 14 -19q0 -10 -10 -23l-102 -138q-12 -15 -26 -15q-3 0 -9 2q-10 4 -10 14z" />
    <glyph glyph-name="Lcaron" unicode="&#x13d;" horiz-adv-x="612" 
d="M94.5 25.5q-28.5 25.5 -28.5 67.5q0 7 2 23l99 558q7 36 38 36q13 0 20.5 -7t7.5 -19q0 -6 -1 -9l-100 -561q-1 -5 -1 -13q0 -22 12 -34t34 -12h335q31 0 31 -20q0 -16 -10.5 -25.5t-29.5 -9.5h-332q-48 0 -76.5 25.5zM414 504q0 10 21 25q63 46 70 80q-5 -2 -15 -2
q-17 0 -29.5 11.5t-12.5 28.5q0 26 20 44t49 18q23 0 35.5 -13.5t12.5 -38.5q0 -38 -26 -77t-75 -75q-25 -18 -35 -18q-8 0 -12 7q-3 6 -3 10z" />
    <glyph glyph-name="uni013B" unicode="&#x13b;" horiz-adv-x="632" 
d="M94.5 25.5q-28.5 25.5 -28.5 67.5q0 7 2 23l99 558q7 36 38 36q13 0 20.5 -7t7.5 -19q0 -6 -1 -9l-100 -561q-1 -5 -1 -13q0 -22 12 -34t34 -12h335q31 0 31 -20q0 -16 -10.5 -25.5t-29.5 -9.5h-332q-48 0 -76.5 25.5zM150 -282q0 10 20 25q64 44 73 82q-5 -2 -16 -2
q-18 0 -30.5 11t-12.5 28q0 27 20.5 45.5t49.5 18.5q23 0 36.5 -14t13.5 -39q0 -39 -28 -80.5t-77 -74.5q-11 -8 -20 -13t-14 -5q-6 0 -11 7q-4 8 -4 11z" />
    <glyph glyph-name="Ldot" unicode="&#x13f;" horiz-adv-x="632" 
d="M94.5 25.5q-28.5 25.5 -28.5 67.5q0 7 2 23l99 558q7 36 38 36q13 0 20.5 -7t7.5 -19q0 -6 -1 -9l-100 -561q-1 -5 -1 -13q0 -22 12 -34t34 -12h335q31 0 31 -20q0 -16 -10.5 -25.5t-29.5 -9.5h-332q-48 0 -76.5 25.5zM334.5 300q-13.5 13 -13.5 32q0 24 20.5 43.5
t45.5 19.5q19 0 32 -13.5t13 -32.5q0 -23 -20.5 -42.5t-44.5 -19.5q-19 0 -32.5 13z" />
    <glyph glyph-name="uni1E36" unicode="&#x1e36;" horiz-adv-x="632" 
d="M94.5 25.5q-28.5 25.5 -28.5 67.5q0 7 2 23l99 558q7 36 38 36q13 0 20.5 -7t7.5 -19q0 -6 -1 -9l-100 -561q-1 -5 -1 -13q0 -22 12 -34t34 -12h335q31 0 31 -20q0 -16 -10.5 -25.5t-29.5 -9.5h-332q-48 0 -76.5 25.5zM211.5 -157q-11.5 11 -11.5 28q0 21 18 38t40 17
q17 0 28.5 -11t11.5 -28q0 -21 -17 -38t-39 -17q-19 0 -30.5 11z" />
    <glyph glyph-name="uni1E38" unicode="&#x1e38;" horiz-adv-x="612" 
d="M94.5 25.5q-28.5 25.5 -28.5 67.5q0 7 2 23l99 558q7 36 38 36q13 0 20.5 -7t7.5 -19q0 -6 -1 -9l-100 -561q-1 -5 -1 -13q0 -22 12 -34t34 -12h335q31 0 31 -20q0 -16 -10.5 -25.5t-29.5 -9.5h-332q-48 0 -76.5 25.5zM211.5 -157q-11.5 11 -11.5 28q0 21 18 38t40 17
q17 0 28.5 -11t11.5 -28q0 -21 -17 -38t-39 -17q-19 0 -30.5 11zM43 809q0 16 9.5 22.5t27.5 6.5h243q14 0 21.5 -3.5t7.5 -13.5q0 -30 -37 -30h-243q-29 0 -29 18z" />
    <glyph glyph-name="uni1E3A" unicode="&#x1e3a;" horiz-adv-x="632" 
d="M94.5 25.5q-28.5 25.5 -28.5 67.5q0 7 2 23l99 558q7 36 38 36q13 0 20.5 -7t7.5 -19q0 -6 -1 -9l-100 -561q-1 -5 -1 -13q0 -22 12 -34t34 -12h335q31 0 31 -20q0 -16 -10.5 -25.5t-29.5 -9.5h-332q-48 0 -76.5 25.5zM96 -120q0 30 37 30h243q14 0 22 -3.5t8 -14.5
q0 -29 -38 -29h-243q-29 0 -29 17z" />
    <glyph glyph-name="Lslash" unicode="&#x141;" horiz-adv-x="678" 
d="M590 34q0 -16 -11 -25t-30 -9h-332q-48 0 -76 25t-28 67q0 15 2 24l43 244l-70 -44q-8 -5 -16 -5q-12 0 -18 11q-3 6 -3 12q0 16 15 26l104 66l44 248q6 36 37 36q13 0 20.5 -7t7.5 -19q0 -6 -1 -9l-36 -204l63 40q7 4 15 4q13 0 21 -12q2 -3 2 -10q0 -16 -15 -27
l-98 -61l-51 -291q-1 -5 -1 -14q0 -21 11.5 -33t33.5 -12h336q31 0 31 -21z" />
    <glyph glyph-name="M" unicode="M" horiz-adv-x="991" 
d="M46 16q0 6 1 10l80 460q20 110 85 167t171 57q61 0 108.5 -32.5t60.5 -84.5q33 53 91 85t122 32q90 0 139 -45.5t49 -126.5q0 -22 -5 -52l-81 -460q-3 -17 -13.5 -26.5t-25.5 -9.5q-26 0 -26 25q0 7 1 11l81 460q5 30 5 50q0 59 -32.5 88t-100.5 29q-73 0 -123.5 -44.5
t-63.5 -122.5l-81 -460q-3 -17 -13 -26.5t-25 -9.5q-25 0 -25 25q0 7 1 11l81 460q3 20 3 37q0 60 -35 95t-97 35q-79 0 -125 -41.5t-61 -125.5l-81 -460q-3 -17 -13.5 -26.5t-25.5 -9.5q-26 0 -26 26z" />
    <glyph glyph-name="uni1E42" unicode="&#x1e42;" horiz-adv-x="991" 
d="M46 16q0 6 1 10l80 460q20 110 85 167t171 57q61 0 108.5 -32.5t60.5 -84.5q33 53 91 85t122 32q90 0 139 -45.5t49 -126.5q0 -22 -5 -52l-81 -460q-3 -17 -13.5 -26.5t-25.5 -9.5q-26 0 -26 25q0 7 1 11l81 460q5 30 5 50q0 59 -32.5 88t-100.5 29q-73 0 -123.5 -44.5
t-63.5 -122.5l-81 -460q-3 -17 -13 -26.5t-25 -9.5q-25 0 -25 25q0 7 1 11l81 460q3 20 3 37q0 60 -35 95t-97 35q-79 0 -125 -41.5t-61 -125.5l-81 -460q-3 -17 -13.5 -26.5t-25.5 -9.5q-26 0 -26 26zM393.5 -157q-11.5 11 -11.5 28q0 21 18 38t40 17q17 0 28.5 -11
t11.5 -28q0 -21 -17 -38t-39 -17q-19 0 -30.5 11z" />
    <glyph glyph-name="N" unicode="N" horiz-adv-x="745" 
d="M51 -3.5q-7 6.5 -7 19.5q0 6 1 10l73 414q23 130 109 200t221 70q119 0 185.5 -57t66.5 -156q0 -24 -5 -57l-73 -414q-7 -36 -38 -36q-27 0 -27 26q0 6 1 10l73 417q5 25 5 55q0 77 -48 116.5t-143 39.5q-108 0 -176 -55t-86 -156l-74 -417q-3 -17 -13 -26.5t-26 -9.5
q-12 0 -19 6.5z" />
    <glyph glyph-name="Nacute" unicode="&#x143;" horiz-adv-x="745" 
d="M51 -3.5q-7 6.5 -7 19.5q0 6 1 10l73 414q23 130 109 200t221 70q119 0 185.5 -57t66.5 -156q0 -24 -5 -57l-73 -414q-7 -36 -38 -36q-27 0 -27 26q0 6 1 10l73 417q5 25 5 55q0 77 -48 116.5t-143 39.5q-108 0 -176 -55t-86 -156l-74 -417q-3 -17 -13 -26.5t-26 -9.5
q-12 0 -19 6.5zM446 805q0 7 6 17l87 140q17 27 34 27q8 0 16 -5q14 -8 14 -19q0 -10 -10 -23l-102 -138q-12 -15 -26 -15q-3 0 -9 2q-10 4 -10 14z" />
    <glyph glyph-name="Ncaron" unicode="&#x147;" horiz-adv-x="745" 
d="M51 -3.5q-7 6.5 -7 19.5q0 6 1 10l73 414q23 130 109 200t221 70q119 0 185.5 -57t66.5 -156q0 -24 -5 -57l-73 -414q-7 -36 -38 -36q-27 0 -27 26q0 6 1 10l73 417q5 25 5 55q0 77 -48 116.5t-143 39.5q-108 0 -176 -55t-86 -156l-74 -417q-3 -17 -13 -26.5t-26 -9.5
q-12 0 -19 6.5zM441 803l-84 127q-5 6 -5 16q0 15 17 26q9 6 18 6q13 0 24 -18l65 -114l107 114q19 19 32 19q8 0 14 -6q10 -7 10 -19t-13 -25l-128 -126q-16 -16 -32 -16q-14 0 -25 16z" />
    <glyph glyph-name="uni0145" unicode="&#x145;" horiz-adv-x="745" 
d="M51 -3.5q-7 6.5 -7 19.5q0 6 1 10l73 414q23 130 109 200t221 70q119 0 185.5 -57t66.5 -156q0 -24 -5 -57l-73 -414q-7 -36 -38 -36q-27 0 -27 26q0 6 1 10l73 417q5 25 5 55q0 77 -48 116.5t-143 39.5q-108 0 -176 -55t-86 -156l-74 -417q-3 -17 -13 -26.5t-26 -9.5
q-12 0 -19 6.5zM215 -282q0 10 20 25q64 44 73 82q-5 -2 -16 -2q-18 0 -30.5 11t-12.5 28q0 27 20.5 45.5t49.5 18.5q23 0 36.5 -14t13.5 -39q0 -39 -28 -80.5t-77 -74.5q-11 -8 -20 -13t-14 -5q-6 0 -11 7q-4 8 -4 11z" />
    <glyph glyph-name="uni1E44" unicode="&#x1e44;" horiz-adv-x="745" 
d="M51 -3.5q-7 6.5 -7 19.5q0 6 1 10l73 414q23 130 109 200t221 70q119 0 185.5 -57t66.5 -156q0 -24 -5 -57l-73 -414q-7 -36 -38 -36q-27 0 -27 26q0 6 1 10l73 417q5 25 5 55q0 77 -48 116.5t-143 39.5q-108 0 -176 -55t-86 -156l-74 -417q-3 -17 -13 -26.5t-26 -9.5
q-12 0 -19 6.5zM440 818.5q-12 11.5 -12 28.5q0 20 18 37t40 17q16 0 27.5 -11.5t11.5 -27.5q0 -20 -17.5 -37.5t-38.5 -17.5q-17 0 -29 11.5z" />
    <glyph glyph-name="uni1E46" unicode="&#x1e46;" horiz-adv-x="745" 
d="M51 -3.5q-7 6.5 -7 19.5q0 6 1 10l73 414q23 130 109 200t221 70q119 0 185.5 -57t66.5 -156q0 -24 -5 -57l-73 -414q-7 -36 -38 -36q-27 0 -27 26q0 6 1 10l73 417q5 25 5 55q0 77 -48 116.5t-143 39.5q-108 0 -176 -55t-86 -156l-74 -417q-3 -17 -13 -26.5t-26 -9.5
q-12 0 -19 6.5zM276.5 -157q-11.5 11 -11.5 28q0 21 18 38t40 17q17 0 28.5 -11t11.5 -28q0 -21 -17 -38t-39 -17q-19 0 -30.5 11z" />
    <glyph glyph-name="Eng" unicode="&#x14a;" horiz-adv-x="725" 
d="M121 -155q-5 10 -5 17q0 14 14 25q12 9 22 9q16 0 24 -15q28 -51 65 -70.5t107 -19.5q75 0 124 43.5t63 123.5l86 485q5 33 5 55q0 78 -48.5 117t-142.5 39q-108 0 -176 -55t-86 -156l-74 -417q-6 -36 -39 -36q-12 0 -19 6.5t-7 19.5q0 6 1 10l73 414q23 130 109 200
t221 70q119 0 185.5 -56.5t66.5 -156.5q0 -24 -5 -57l-85 -478q-18 -103 -88.5 -165.5t-169.5 -62.5q-161 0 -221 111z" />
    <glyph glyph-name="uni1E48" unicode="&#x1e48;" horiz-adv-x="745" 
d="M51 -3.5q-7 6.5 -7 19.5q0 6 1 10l73 414q23 130 109 200t221 70q119 0 185.5 -57t66.5 -156q0 -24 -5 -57l-73 -414q-7 -36 -38 -36q-27 0 -27 26q0 6 1 10l73 417q5 25 5 55q0 77 -48 116.5t-143 39.5q-108 0 -176 -55t-86 -156l-74 -417q-3 -17 -13 -26.5t-26 -9.5
q-12 0 -19 6.5zM162 -120q0 30 37 30h243q14 0 22 -3.5t8 -14.5q0 -29 -38 -29h-243q-29 0 -29 17z" />
    <glyph glyph-name="Ntilde" unicode="&#xd1;" horiz-adv-x="745" 
d="M51 -3.5q-7 6.5 -7 19.5q0 6 1 10l73 414q23 130 109 200t221 70q119 0 185.5 -57t66.5 -156q0 -24 -5 -57l-73 -414q-7 -36 -38 -36q-27 0 -27 26q0 6 1 10l73 417q5 25 5 55q0 77 -48 116.5t-143 39.5q-108 0 -176 -55t-86 -156l-74 -417q-3 -17 -13 -26.5t-26 -9.5
q-12 0 -19 6.5zM309 821q0 8 4 17q14 34 42 55.5t62 21.5q25 0 41.5 -8.5t36.5 -24.5q15 -12 25.5 -18t23.5 -6q36 0 55 43q8 20 25 20q7 0 10 -1q13 -3 13 -16q0 -5 -4 -17q-14 -34 -43 -55t-62 -21q-21 0 -36.5 8t-34.5 23q-18 13 -29.5 19.5t-26.5 6.5q-34 0 -54 -43
q-9 -21 -26 -21q-6 0 -9 1q-13 4 -13 16z" />
    <glyph glyph-name="O" unicode="O" horiz-adv-x="828" 
d="M216 26q-68 36 -105.5 103.5t-37.5 158.5q0 114 55.5 211t151.5 154t211 57q90 0 158 -36t105.5 -103.5t37.5 -157.5q0 -114 -56 -211t-152 -154.5t-210 -57.5q-90 0 -158 36zM555 96q80 49 126.5 132.5t46.5 182.5q0 115 -64 179t-176 64q-98 0 -178 -49t-126 -133
t-46 -183q0 -115 63.5 -178.5t175.5 -63.5q98 0 178 49z" />
    <glyph glyph-name="Oacute" unicode="&#xd3;" horiz-adv-x="828" 
d="M216 26q-68 36 -105.5 103.5t-37.5 158.5q0 114 55.5 211t151.5 154t211 57q90 0 158 -36t105.5 -103.5t37.5 -157.5q0 -114 -56 -211t-152 -154.5t-210 -57.5q-90 0 -158 36zM555 96q80 49 126.5 132.5t46.5 182.5q0 115 -64 179t-176 64q-98 0 -178 -49t-126 -133
t-46 -183q0 -115 63.5 -178.5t175.5 -63.5q98 0 178 49zM490 805q0 7 6 17l87 140q17 27 34 27q8 0 16 -5q14 -8 14 -19q0 -10 -10 -23l-102 -138q-12 -15 -26 -15q-3 0 -9 2q-10 4 -10 14z" />
    <glyph glyph-name="Obreve" unicode="&#x14e;" horiz-adv-x="828" 
d="M216 26q-68 36 -105.5 103.5t-37.5 158.5q0 114 55.5 211t151.5 154t211 57q90 0 158 -36t105.5 -103.5t37.5 -157.5q0 -114 -56 -211t-152 -154.5t-210 -57.5q-90 0 -158 36zM555 96q80 49 126.5 132.5t46.5 182.5q0 115 -64 179t-176 64q-98 0 -178 -49t-126 -133
t-46 -183q0 -115 63.5 -178.5t175.5 -63.5q98 0 178 49zM416 821.5q-33 32.5 -33 82.5q0 63 38 63q24 0 24 -23q0 -52 4.5 -73t18 -27.5t48.5 -6.5q45 0 71.5 25.5t34.5 69.5q6 35 35 35q25 0 25 -23q0 -40 -25 -75.5t-65 -57.5t-84 -22q-59 0 -92 32.5z" />
    <glyph glyph-name="uni01D1" unicode="&#x1d1;" horiz-adv-x="828" 
d="M216 26q-68 36 -105.5 103.5t-37.5 158.5q0 114 55.5 211t151.5 154t211 57q90 0 158 -36t105.5 -103.5t37.5 -157.5q0 -114 -56 -211t-152 -154.5t-210 -57.5q-90 0 -158 36zM555 96q80 49 126.5 132.5t46.5 182.5q0 115 -64 179t-176 64q-98 0 -178 -49t-126 -133
t-46 -183q0 -115 63.5 -178.5t175.5 -63.5q98 0 178 49zM485 803l-84 127q-5 6 -5 16q0 15 17 26q9 6 18 6q13 0 24 -18l65 -114l107 114q19 19 32 19q8 0 14 -6q10 -7 10 -19t-13 -25l-128 -126q-16 -16 -32 -16q-14 0 -25 16z" />
    <glyph glyph-name="Ocircumflex" unicode="&#xd4;" horiz-adv-x="828" 
d="M216 26q-68 36 -105.5 103.5t-37.5 158.5q0 114 55.5 211t151.5 154t211 57q90 0 158 -36t105.5 -103.5t37.5 -157.5q0 -114 -56 -211t-152 -154.5t-210 -57.5q-90 0 -158 36zM555 96q80 49 126.5 132.5t46.5 182.5q0 115 -64 179t-176 64q-98 0 -178 -49t-126 -133
t-46 -183q0 -115 63.5 -178.5t175.5 -63.5q98 0 178 49zM372 812q0 12 13 25l128 126q16 16 31 16t26 -16l83 -126q5 -7 5 -17q0 -16 -16 -26q-10 -6 -18 -6q-14 0 -25 18l-65 114l-106 -114q-16 -19 -32 -19q-7 0 -15 6q-9 9 -9 19z" />
    <glyph glyph-name="uni1ED0" unicode="&#x1ed0;" horiz-adv-x="828" 
d="M216 26q-68 36 -105.5 103.5t-37.5 158.5q0 114 55.5 211t151.5 154t211 57q90 0 158 -36t105.5 -103.5t37.5 -157.5q0 -114 -56 -211t-152 -154.5t-210 -57.5q-90 0 -158 36zM555 96q80 49 126.5 132.5t46.5 182.5q0 115 -64 179t-176 64q-98 0 -178 -49t-126 -133
t-46 -183q0 -115 63.5 -178.5t175.5 -63.5q98 0 178 49zM622 940q0 8 8 18l79 102q17 20 32 20q8 0 16 -5q11 -7 11 -18q0 -10 -11 -23l-94 -98q-11 -13 -22 -13q-6 0 -11 4q-8 5 -8 13zM370 813q0 10 13 23l126 111q18 16 31 16q9 0 13.5 -3.5t12.5 -12.5l86 -110
q6 -7 6 -16q0 -16 -18 -27q-9 -6 -17 -6q-13 0 -25 18l-68 98l-104 -99q-19 -17 -31 -17q-9 0 -15 6q-10 9 -10 19z" />
    <glyph glyph-name="uni1ED8" unicode="&#x1ed8;" horiz-adv-x="828" 
d="M216 26q-68 36 -105.5 103.5t-37.5 158.5q0 114 55.5 211t151.5 154t211 57q90 0 158 -36t105.5 -103.5t37.5 -157.5q0 -114 -56 -211t-152 -154.5t-210 -57.5q-90 0 -158 36zM555 96q80 49 126.5 132.5t46.5 182.5q0 115 -64 179t-176 64q-98 0 -178 -49t-126 -133
t-46 -183q0 -115 63.5 -178.5t175.5 -63.5q98 0 178 49zM310.5 -157q-11.5 11 -11.5 28q0 21 18 38t40 17q17 0 28.5 -11t11.5 -28q0 -21 -17 -38t-39 -17q-19 0 -30.5 11zM372 812q0 12 13 25l128 126q16 16 31 16t26 -16l83 -126q5 -7 5 -17q0 -16 -16 -26q-10 -6 -18 -6
q-14 0 -25 18l-65 114l-106 -114q-16 -19 -32 -19q-7 0 -15 6q-9 9 -9 19z" />
    <glyph glyph-name="uni1ED2" unicode="&#x1ed2;" horiz-adv-x="828" 
d="M216 26q-68 36 -105.5 103.5t-37.5 158.5q0 114 55.5 211t151.5 154t211 57q90 0 158 -36t105.5 -103.5t37.5 -157.5q0 -114 -56 -211t-152 -154.5t-210 -57.5q-90 0 -158 36zM555 96q80 49 126.5 132.5t46.5 182.5q0 115 -64 179t-176 64q-98 0 -178 -49t-126 -133
t-46 -183q0 -115 63.5 -178.5t175.5 -63.5q98 0 178 49zM678 923q-12 0 -18 13l-58 98q-5 8 -5 16q0 15 20 26q8 4 16 4q19 0 26 -20l42 -102q3 -6 3 -12q0 -12 -14 -20q-6 -3 -12 -3zM370 813q0 10 13 23l126 111q18 16 31 16q8 0 13.5 -3.5t12.5 -12.5l87 -110q6 -7 6 -15
t-5 -15.5t-14 -12.5q-9 -6 -17 -6q-13 0 -25 18l-68 98l-104 -99q-19 -17 -31 -17q-9 0 -15 6q-10 9 -10 19z" />
    <glyph glyph-name="uni1ED4" unicode="&#x1ed4;" horiz-adv-x="828" 
d="M216 26q-68 36 -105.5 103.5t-37.5 158.5q0 114 55.5 211t151.5 154t211 57q90 0 158 -36t105.5 -103.5t37.5 -157.5q0 -114 -56 -211t-152 -154.5t-210 -57.5q-90 0 -158 36zM555 96q80 49 126.5 132.5t46.5 182.5q0 115 -64 179t-176 64q-98 0 -178 -49t-126 -133
t-46 -183q0 -115 63.5 -178.5t175.5 -63.5q98 0 178 49zM612 943l2 8q3 15 14 26t30 24q18 13 27.5 23t9.5 23q0 24 -33 24q-18 0 -30 -5t-23 -17q-11 -11 -20 -11q-5 0 -11 3q-10 5 -10 14q0 8 7 15q15 20 40 32t57 12q38 0 56 -16t18 -41q0 -27 -12 -41.5t-36 -29.5
q-15 -9 -23 -17t-10 -19l-1 -7q-3 -24 -30 -24q-28 0 -22 24zM370 813q0 10 13 23l126 111q18 16 31 16q8 0 13.5 -3.5t12.5 -12.5l87 -110q6 -7 6 -15t-5 -15.5t-14 -12.5q-9 -6 -17 -6q-13 0 -25 18l-68 98l-104 -99q-19 -17 -31 -17q-9 0 -15 6q-10 9 -10 19z" />
    <glyph glyph-name="uni1ED6" unicode="&#x1ed6;" horiz-adv-x="828" 
d="M216 26q-68 36 -105.5 103.5t-37.5 158.5q0 114 55.5 211t151.5 154t211 57q90 0 158 -36t105.5 -103.5t37.5 -157.5q0 -114 -56 -211t-152 -154.5t-210 -57.5q-90 0 -158 36zM555 96q80 49 126.5 132.5t46.5 182.5q0 115 -64 179t-176 64q-98 0 -178 -49t-126 -133
t-46 -183q0 -115 63.5 -178.5t175.5 -63.5q98 0 178 49zM398 995q0 8 4 16q12 33 39.5 53t59.5 20q23 0 39.5 -8.5t34.5 -23.5q15 -12 25 -17.5t22 -5.5q34 0 52 42q9 19 25 19q6 0 9 -1q12 -3 12 -14q0 -9 -4 -18q-11 -31 -39 -51.5t-60 -20.5q-21 0 -35.5 7.5t-32.5 22.5
q-16 13 -27 19t-26 6q-16 0 -29.5 -11t-21.5 -28q-6 -12 -11.5 -17t-13.5 -5q-2 0 -10 2q-12 3 -12 14zM371 813q0 12 13 24l125 111q7 6 15 11t16 5q17 0 26 -16l86 -111q6 -7 6 -16q0 -15 -17 -27q-9 -6 -17 -6q-13 0 -25 18l-69 99l-103 -99q-17 -17 -31 -17q-9 0 -16 6
q-9 8 -9 18z" />
    <glyph glyph-name="Odieresis" unicode="&#xd6;" horiz-adv-x="828" 
d="M216 26q-68 36 -105.5 103.5t-37.5 158.5q0 114 55.5 211t151.5 154t211 57q90 0 158 -36t105.5 -103.5t37.5 -157.5q0 -114 -56 -211t-152 -154.5t-210 -57.5q-90 0 -158 36zM555 96q80 49 126.5 132.5t46.5 182.5q0 115 -64 179t-176 64q-98 0 -178 -49t-126 -133
t-46 -183q0 -115 63.5 -178.5t175.5 -63.5q98 0 178 49zM385.5 820q-11.5 11 -11.5 27q0 20 17.5 37t38.5 17q16 0 27 -11.5t11 -27.5q0 -20 -17 -36.5t-37 -16.5q-17 0 -28.5 11zM587.5 820q-11.5 11 -11.5 27q0 20 17.5 37t38.5 17q16 0 27 -11.5t11 -27.5
q0 -20 -17 -36.5t-38 -16.5q-16 0 -27.5 11z" />
    <glyph glyph-name="uni1ECC" unicode="&#x1ecc;" horiz-adv-x="828" 
d="M216 26q-68 36 -105.5 103.5t-37.5 158.5q0 114 55.5 211t151.5 154t211 57q90 0 158 -36t105.5 -103.5t37.5 -157.5q0 -114 -56 -211t-152 -154.5t-210 -57.5q-90 0 -158 36zM555 96q80 49 126.5 132.5t46.5 182.5q0 115 -64 179t-176 64q-98 0 -178 -49t-126 -133
t-46 -183q0 -115 63.5 -178.5t175.5 -63.5q98 0 178 49zM310.5 -157q-11.5 11 -11.5 28q0 21 18 38t40 17q17 0 28.5 -11t11.5 -28q0 -21 -17 -38t-39 -17q-19 0 -30.5 11z" />
    <glyph glyph-name="Ograve" unicode="&#xd2;" horiz-adv-x="828" 
d="M216 26q-68 36 -105.5 103.5t-37.5 158.5q0 114 55.5 211t151.5 154t211 57q90 0 158 -36t105.5 -103.5t37.5 -157.5q0 -114 -56 -211t-152 -154.5t-210 -57.5q-90 0 -158 36zM555 96q80 49 126.5 132.5t46.5 182.5q0 115 -64 179t-176 64q-98 0 -178 -49t-126 -133
t-46 -183q0 -115 63.5 -178.5t175.5 -63.5q98 0 178 49zM513 789q-14 0 -20 15l-53 138q-3 8 -3 15q0 16 22 27q9 4 17 4q18 0 24 -26l39 -140q1 -3 1 -8q0 -16 -16 -23q-8 -2 -11 -2z" />
    <glyph glyph-name="uni1ECE" unicode="&#x1ece;" horiz-adv-x="828" 
d="M216 26q-68 36 -105.5 103.5t-37.5 158.5q0 114 55.5 211t151.5 154t211 57q90 0 158 -36t105.5 -103.5t37.5 -157.5q0 -114 -56 -211t-152 -154.5t-210 -57.5q-90 0 -158 36zM555 96q80 49 126.5 132.5t46.5 182.5q0 115 -64 179t-176 64q-98 0 -178 -49t-126 -133
t-46 -183q0 -115 63.5 -178.5t175.5 -63.5q98 0 178 49zM480 786l1 8q3 17 15 28.5t34 26.5q22 16 31.5 25.5t9.5 24.5q0 12 -9 19.5t-26 7.5q-37 0 -61 -27q-12 -14 -23 -14q-5 0 -11 3q-11 6 -11 16q0 7 7 16q16 21 46 36.5t64 15.5q41 0 61 -17.5t20 -45.5t-13.5 -44
t-38.5 -31q-18 -12 -26 -20t-9 -20l-1 -8q-6 -27 -36 -27q-27 0 -24 27z" />
    <glyph glyph-name="Ohorn" unicode="&#x1a0;" horiz-adv-x="828" 
d="M863.5 672.5q-18.5 -31.5 -50.5 -54.5t-69 -30q48 -73 48 -175q0 -114 -56 -211t-152 -154.5t-210 -57.5q-90 0 -158 36t-105.5 103.5t-37.5 158.5q0 114 55.5 211t151.5 154t211 57q66 0 121 -20t95 -58l24 3q38 4 61 28t30 63q6 35 36 35q24 0 24 -24
q0 -33 -18.5 -64.5zM555 96q80 49 126.5 132.5t46.5 182.5q0 115 -64 179t-176 64q-98 0 -178 -49t-126 -133t-46 -183q0 -115 63.5 -178.5t175.5 -63.5q98 0 178 49z" />
    <glyph glyph-name="uni1EDA" unicode="&#x1eda;" horiz-adv-x="828" 
d="M863.5 672.5q-18.5 -31.5 -50.5 -54.5t-69 -30q48 -73 48 -175q0 -114 -56 -211t-152 -154.5t-210 -57.5q-90 0 -158 36t-105.5 103.5t-37.5 158.5q0 114 55.5 211t151.5 154t211 57q66 0 121 -20t95 -58l24 3q38 4 61 28t30 63q6 35 36 35q24 0 24 -24
q0 -33 -18.5 -64.5zM555 96q80 49 126.5 132.5t46.5 182.5q0 115 -64 179t-176 64q-98 0 -178 -49t-126 -133t-46 -183q0 -115 63.5 -178.5t175.5 -63.5q98 0 178 49zM475 805q0 7 6 17l87 140q17 27 34 27q8 0 16 -5q14 -8 14 -19q0 -10 -10 -23l-102 -138q-12 -15 -26 -15
q-3 0 -9 2q-10 4 -10 14z" />
    <glyph glyph-name="uni1EE2" unicode="&#x1ee2;" horiz-adv-x="828" 
d="M863.5 672.5q-18.5 -31.5 -50.5 -54.5t-69 -30q48 -73 48 -175q0 -114 -56 -211t-152 -154.5t-210 -57.5q-90 0 -158 36t-105.5 103.5t-37.5 158.5q0 114 55.5 211t151.5 154t211 57q66 0 121 -20t95 -58l24 3q38 4 61 28t30 63q6 35 36 35q24 0 24 -24
q0 -33 -18.5 -64.5zM555 96q80 49 126.5 132.5t46.5 182.5q0 115 -64 179t-176 64q-98 0 -178 -49t-126 -133t-46 -183q0 -115 63.5 -178.5t175.5 -63.5q98 0 178 49zM295.5 -157q-11.5 11 -11.5 28q0 21 18 38t40 17q17 0 28.5 -11t11.5 -28q0 -21 -17 -38t-39 -17
q-19 0 -30.5 11z" />
    <glyph glyph-name="uni1EDC" unicode="&#x1edc;" horiz-adv-x="828" 
d="M863.5 672.5q-18.5 -31.5 -50.5 -54.5t-69 -30q48 -73 48 -175q0 -114 -56 -211t-152 -154.5t-210 -57.5q-90 0 -158 36t-105.5 103.5t-37.5 158.5q0 114 55.5 211t151.5 154t211 57q66 0 121 -20t95 -58l24 3q38 4 61 28t30 63q6 35 36 35q24 0 24 -24
q0 -33 -18.5 -64.5zM555 96q80 49 126.5 132.5t46.5 182.5q0 115 -64 179t-176 64q-98 0 -178 -49t-126 -133t-46 -183q0 -115 63.5 -178.5t175.5 -63.5q98 0 178 49zM495 789q-14 0 -20 15l-53 138q-3 8 -3 15q0 16 22 27q9 4 17 4q18 0 24 -26l39 -140q1 -3 1 -8
q0 -16 -16 -23q-8 -2 -11 -2z" />
    <glyph glyph-name="uni1EDE" unicode="&#x1ede;" horiz-adv-x="828" 
d="M863.5 672.5q-18.5 -31.5 -50.5 -54.5t-69 -30q48 -73 48 -175q0 -114 -56 -211t-152 -154.5t-210 -57.5q-90 0 -158 36t-105.5 103.5t-37.5 158.5q0 114 55.5 211t151.5 154t211 57q66 0 121 -20t95 -58l24 3q38 4 61 28t30 63q6 35 36 35q24 0 24 -24
q0 -33 -18.5 -64.5zM555 96q80 49 126.5 132.5t46.5 182.5q0 115 -64 179t-176 64q-98 0 -178 -49t-126 -133t-46 -183q0 -115 63.5 -178.5t175.5 -63.5q98 0 178 49zM465 786l1 8q3 17 15 28.5t34 26.5q22 16 31.5 25.5t9.5 24.5q0 12 -9 19.5t-26 7.5q-37 0 -61 -27
q-12 -14 -23 -14q-5 0 -11 3q-11 6 -11 16q0 7 7 16q16 21 46 36.5t64 15.5q41 0 61 -17.5t20 -45.5t-13.5 -44t-38.5 -31q-18 -12 -26 -20t-9 -20l-1 -8q-6 -27 -36 -27q-27 0 -24 27z" />
    <glyph glyph-name="uni1EE0" unicode="&#x1ee0;" horiz-adv-x="828" 
d="M863.5 672.5q-18.5 -31.5 -50.5 -54.5t-69 -30q48 -73 48 -175q0 -114 -56 -211t-152 -154.5t-210 -57.5q-90 0 -158 36t-105.5 103.5t-37.5 158.5q0 114 55.5 211t151.5 154t211 57q66 0 121 -20t95 -58l24 3q38 4 61 28t30 63q6 35 36 35q24 0 24 -24
q0 -33 -18.5 -64.5zM555 96q80 49 126.5 132.5t46.5 182.5q0 115 -64 179t-176 64q-98 0 -178 -49t-126 -133t-46 -183q0 -115 63.5 -178.5t175.5 -63.5q98 0 178 49zM339 826q0 6 5 19q13 33 41.5 54.5t62.5 21.5q24 0 41 -8.5t36 -24.5q15 -12 26 -18t24 -6q34 0 54 44
q9 20 27 20q6 0 9 -1q13 -3 13 -15q0 -8 -5 -18q-14 -35 -42 -56t-62 -21q-22 0 -37.5 8t-34.5 23q-16 13 -28 19.5t-27 6.5q-35 0 -54 -43q-9 -20 -26 -20q-6 0 -10 1q-13 3 -13 14z" />
    <glyph glyph-name="Ohungarumlaut" unicode="&#x150;" horiz-adv-x="828" 
d="M216 26q-68 36 -105.5 103.5t-37.5 158.5q0 114 55.5 211t151.5 154t211 57q90 0 158 -36t105.5 -103.5t37.5 -157.5q0 -114 -56 -211t-152 -154.5t-210 -57.5q-90 0 -158 36zM555 96q80 49 126.5 132.5t46.5 182.5q0 115 -64 179t-176 64q-98 0 -178 -49t-126 -133
t-46 -183q0 -115 63.5 -178.5t175.5 -63.5q98 0 178 49zM571 799q0 9 8 20l116 146q9 12 17 18t17 6q6 0 16 -5q15 -9 15 -21q0 -10 -10 -22l-131 -145q-13 -15 -28 -15q-7 0 -10 2q-10 4 -10 16zM401 799q0 9 8 20l115 147q17 22 33 22q8 0 16 -4q15 -9 15 -21
q0 -9 -10 -22l-129 -145q-13 -15 -28 -15q-7 0 -10 2q-10 6 -10 16z" />
    <glyph glyph-name="Omacron" unicode="&#x14c;" horiz-adv-x="828" 
d="M216 26q-68 36 -105.5 103.5t-37.5 158.5q0 114 55.5 211t151.5 154t211 57q90 0 158 -36t105.5 -103.5t37.5 -157.5q0 -114 -56 -211t-152 -154.5t-210 -57.5q-90 0 -158 36zM555 96q80 49 126.5 132.5t46.5 182.5q0 115 -64 179t-176 64q-98 0 -178 -49t-126 -133
t-46 -183q0 -115 63.5 -178.5t175.5 -63.5q98 0 178 49zM360 809q0 16 9.5 22.5t27.5 6.5h243q14 0 21.5 -3.5t7.5 -13.5q0 -30 -37 -30h-243q-29 0 -29 18z" />
    <glyph glyph-name="Oslash" unicode="&#xd8;" horiz-adv-x="812" 
d="M749 567q35 -64 35 -145q0 -120 -55.5 -219t-151.5 -156t-213 -57q-69 0 -127 23l-42 -66q-5 -7 -13 -11.5t-16 -4.5q-10 0 -17 6.5t-7 15.5q0 10 5 16l43 68q-59 38 -91.5 100.5t-32.5 140.5q0 121 55 219.5t151 155.5t213 57q65 0 120 -20l40 63q4 7 12 12t17 5
q10 0 17 -6.5t7 -16.5q0 -5 -5 -14l-41 -65q62 -37 97 -101zM153.5 166q23.5 -49 68.5 -79l351 553q-44 14 -95 14q-98 0 -177.5 -49t-125 -134.5t-45.5 -190.5q0 -65 23.5 -114zM549 96q80 49 125.5 134.5t45.5 190.5q0 67 -26 117.5t-74 79.5l-351 -554q46 -17 102 -17
q98 0 178 49z" />
    <glyph glyph-name="Oslashacute" unicode="&#x1fe;" horiz-adv-x="812" 
d="M749 567q35 -64 35 -145q0 -120 -55.5 -219t-151.5 -156t-213 -57q-69 0 -127 23l-42 -66q-5 -7 -13 -11.5t-16 -4.5q-10 0 -17 6.5t-7 15.5q0 10 5 16l43 68q-59 38 -91.5 100.5t-32.5 140.5q0 121 55 219.5t151 155.5t213 57q65 0 120 -20l40 63q4 7 12 12t17 5
q10 0 17 -6.5t7 -16.5q0 -5 -5 -14l-41 -65q62 -37 97 -101zM153.5 166q23.5 -49 68.5 -79l351 553q-44 14 -95 14q-98 0 -177.5 -49t-125 -134.5t-45.5 -190.5q0 -65 23.5 -114zM549 96q80 49 125.5 134.5t45.5 190.5q0 67 -26 117.5t-74 79.5l-351 -554q46 -17 102 -17
q98 0 178 49zM482 805q0 7 6 17l87 140q17 27 34 27q8 0 16 -5q14 -8 14 -19q0 -10 -10 -23l-102 -138q-12 -15 -26 -15q-3 0 -9 2q-10 4 -10 14z" />
    <glyph glyph-name="Otilde" unicode="&#xd5;" horiz-adv-x="828" 
d="M216 26q-68 36 -105.5 103.5t-37.5 158.5q0 114 55.5 211t151.5 154t211 57q90 0 158 -36t105.5 -103.5t37.5 -157.5q0 -114 -56 -211t-152 -154.5t-210 -57.5q-90 0 -158 36zM555 96q80 49 126.5 132.5t46.5 182.5q0 115 -64 179t-176 64q-98 0 -178 -49t-126 -133
t-46 -183q0 -115 63.5 -178.5t175.5 -63.5q98 0 178 49zM353 821q0 8 4 17q14 34 42 55.5t62 21.5q25 0 41.5 -8.5t36.5 -24.5q15 -12 25.5 -18t23.5 -6q36 0 55 43q8 20 25 20q7 0 10 -1q13 -3 13 -16q0 -5 -4 -17q-14 -34 -43 -55t-62 -21q-21 0 -36.5 8t-34.5 23
q-18 13 -29.5 19.5t-26.5 6.5q-34 0 -54 -43q-9 -21 -26 -21q-6 0 -9 1q-13 4 -13 16z" />
    <glyph glyph-name="OE" unicode="&#x152;" horiz-adv-x="1241" 
d="M215.5 26q-68.5 36 -106 100.5t-37.5 149.5q0 123 54.5 222t149.5 155.5t213 56.5q88 0 156.5 -41.5t103.5 -116.5l7 39q19 109 129 109h317q31 0 31 -21q0 -16 -10.5 -24.5t-29.5 -8.5h-311q-25 0 -42.5 -16.5t-22.5 -42.5l-36 -202h290q31 0 31 -21q0 -16 -10.5 -25
t-29.5 -9h-290l-38 -216q-1 -4 -1 -13q0 -21 12 -33.5t33 -12.5h333q31 0 31 -21q0 -16 -11 -25t-30 -9h-331q-47 0 -74 23t-27 64q0 6 2 22l7 40q-65 -82 -139 -120.5t-166 -38.5q-89 0 -157.5 36zM551 96.5q78 49.5 122.5 135.5t44.5 191q0 107 -62.5 169t-171.5 62
q-98 0 -177.5 -49t-124.5 -134t-45 -191q0 -108 65 -170.5t176 -62.5q95 0 173 49.5z" />
    <glyph glyph-name="P" unicode="P" horiz-adv-x="722" 
d="M55 1q-8 11 -6 25l99 559q10 57 46 86t95 29h171q119 0 181 -47t62 -136q0 -131 -82.5 -204.5t-228.5 -73.5h-241l-38 -213q-3 -18 -12.5 -27t-24.5 -9q-13 0 -21 11zM574.5 349.5q62.5 55.5 62.5 161.5q0 71 -45.5 103t-136.5 32h-178q-25 0 -42.5 -16.5t-22.5 -42.5
l-51 -293h231q120 0 182.5 55.5z" />
    <glyph glyph-name="Thorn" unicode="&#xde;" horiz-adv-x="621" 
d="M49 -2.5q-7 7.5 -7 19.5q0 6 1 9l114 649q6 36 38 36q28 0 28 -26q0 -6 -1 -10l-17 -95h198q87 0 138 -46t51 -123q0 -73 -32.5 -130.5t-90.5 -90.5t-130 -33h-209l-23 -131q-4 -18 -14 -27t-25 -9q-12 0 -19 7.5zM340 212q84 0 135.5 55t51.5 145q0 113 -132 113h-200
l-56 -313h201z" />
    <glyph glyph-name="Q" unicode="Q" horiz-adv-x="828" 
d="M598 -27l-10 28l-17 45q-92 -56 -200 -56q-81 0 -149 35.5t-108 102t-40 153.5q0 118 54.5 216t150.5 155.5t214 57.5q86 0 154 -35t106.5 -100t38.5 -152q0 -98 -44.5 -190.5t-123.5 -152.5l13 -36l11 -33q4 -12 4 -21q0 -14 -10 -22t-23 -8q-17 0 -21 13zM291.5 207
q60.5 31 126.5 31q64 0 111 -29t72 -79q60 52 93.5 130.5t33.5 161.5q0 110 -66 171t-176 61q-102 0 -181.5 -51.5t-123.5 -138t-44 -189.5q0 -91 51 -150q43 51 103.5 82zM551 94q-21 43 -53 65.5t-88 22.5q-58 0 -105 -25.5t-79 -66.5q61 -43 153 -43t172 47z" />
    <glyph glyph-name="R" unicode="R" horiz-adv-x="721" 
d="M145 583q21 117 145 117h179q119 0 178 -46t59 -127q0 -129 -78.5 -197.5t-236.5 -68.5l166 -218q7 -8 7 -18q0 -17 -16 -27q-13 -8 -22 -8q-17 0 -31 19l-191 252h-146l-42 -233q-3 -18 -14 -28t-28 -10q-28 0 -28 28q0 7 1 10zM406 319q112 0 170.5 51t58.5 150
q0 69 -45.5 95.5t-126.5 26.5h-185q-24 0 -41.5 -16t-21.5 -42l-47 -265h238z" />
    <glyph glyph-name="Racute" unicode="&#x154;" horiz-adv-x="721" 
d="M145 583q21 117 145 117h179q119 0 178 -46t59 -127q0 -129 -78.5 -197.5t-236.5 -68.5l166 -218q7 -8 7 -18q0 -17 -16 -27q-13 -8 -22 -8q-17 0 -31 19l-191 252h-146l-42 -233q-3 -18 -14 -28t-28 -10q-28 0 -28 28q0 7 1 10zM406 319q112 0 170.5 51t58.5 150
q0 69 -45.5 95.5t-126.5 26.5h-185q-24 0 -41.5 -16t-21.5 -42l-47 -265h238zM427 805q0 7 6 17l87 140q17 27 34 27q8 0 16 -5q14 -8 14 -19q0 -10 -10 -23l-102 -138q-12 -15 -26 -15q-3 0 -9 2q-10 4 -10 14z" />
    <glyph glyph-name="Rcaron" unicode="&#x158;" horiz-adv-x="721" 
d="M145 583q21 117 145 117h179q119 0 178 -46t59 -127q0 -129 -78.5 -197.5t-236.5 -68.5l166 -218q7 -8 7 -18q0 -17 -16 -27q-13 -8 -22 -8q-17 0 -31 19l-191 252h-146l-42 -233q-3 -18 -14 -28t-28 -10q-28 0 -28 28q0 7 1 10zM406 319q112 0 170.5 51t58.5 150
q0 69 -45.5 95.5t-126.5 26.5h-185q-24 0 -41.5 -16t-21.5 -42l-47 -265h238zM422 803l-84 127q-5 6 -5 16q0 15 17 26q9 6 18 6q13 0 24 -18l65 -114l107 114q19 19 32 19q8 0 14 -6q10 -7 10 -19t-13 -25l-128 -126q-16 -16 -32 -16q-14 0 -25 16z" />
    <glyph glyph-name="uni0156" unicode="&#x156;" horiz-adv-x="721" 
d="M145 583q21 117 145 117h179q119 0 178 -46t59 -127q0 -129 -78.5 -197.5t-236.5 -68.5l166 -218q7 -8 7 -18q0 -17 -16 -27q-13 -8 -22 -8q-17 0 -31 19l-191 252h-146l-42 -233q-3 -18 -14 -28t-28 -10q-28 0 -28 28q0 7 1 10zM406 319q112 0 170.5 51t58.5 150
q0 69 -45.5 95.5t-126.5 26.5h-185q-24 0 -41.5 -16t-21.5 -42l-47 -265h238zM185 -282q0 10 20 25q64 44 73 82q-5 -2 -16 -2q-18 0 -30.5 11t-12.5 28q0 27 20.5 45.5t49.5 18.5q23 0 36.5 -14t13.5 -39q0 -39 -28 -80.5t-77 -74.5q-11 -8 -20 -13t-14 -5q-6 0 -11 7
q-4 8 -4 11z" />
    <glyph glyph-name="uni1E5A" unicode="&#x1e5a;" horiz-adv-x="721" 
d="M145 583q21 117 145 117h179q119 0 178 -46t59 -127q0 -129 -78.5 -197.5t-236.5 -68.5l166 -218q7 -8 7 -18q0 -17 -16 -27q-13 -8 -22 -8q-17 0 -31 19l-191 252h-146l-42 -233q-3 -18 -14 -28t-28 -10q-28 0 -28 28q0 7 1 10zM406 319q112 0 170.5 51t58.5 150
q0 69 -45.5 95.5t-126.5 26.5h-185q-24 0 -41.5 -16t-21.5 -42l-47 -265h238zM246.5 -157q-11.5 11 -11.5 28q0 21 18 38t40 17q17 0 28.5 -11t11.5 -28q0 -21 -17 -38t-39 -17q-19 0 -30.5 11z" />
    <glyph glyph-name="uni1E5C" unicode="&#x1e5c;" horiz-adv-x="721" 
d="M145 583q21 117 145 117h179q119 0 178 -46t59 -127q0 -129 -78.5 -197.5t-236.5 -68.5l166 -218q7 -8 7 -18q0 -17 -16 -27q-13 -8 -22 -8q-17 0 -31 19l-191 252h-146l-42 -233q-3 -18 -14 -28t-28 -10q-28 0 -28 28q0 7 1 10zM406 319q112 0 170.5 51t58.5 150
q0 69 -45.5 95.5t-126.5 26.5h-185q-24 0 -41.5 -16t-21.5 -42l-47 -265h238zM246.5 -157q-11.5 11 -11.5 28q0 21 18 38t40 17q17 0 28.5 -11t11.5 -28q0 -21 -17 -38t-39 -17q-19 0 -30.5 11zM297 809q0 16 9.5 22.5t27.5 6.5h243q14 0 21.5 -3.5t7.5 -13.5q0 -30 -37 -30
h-243q-29 0 -29 18z" />
    <glyph glyph-name="uni1E5E" unicode="&#x1e5e;" horiz-adv-x="721" 
d="M145 583q21 117 145 117h179q119 0 178 -46t59 -127q0 -129 -78.5 -197.5t-236.5 -68.5l166 -218q7 -8 7 -18q0 -17 -16 -27q-13 -8 -22 -8q-17 0 -31 19l-191 252h-146l-42 -233q-3 -18 -14 -28t-28 -10q-28 0 -28 28q0 7 1 10zM406 319q112 0 170.5 51t58.5 150
q0 69 -45.5 95.5t-126.5 26.5h-185q-24 0 -41.5 -16t-21.5 -42l-47 -265h238zM131 -120q0 30 37 30h243q14 0 22 -3.5t8 -14.5q0 -29 -38 -29h-243q-29 0 -29 17z" />
    <glyph glyph-name="S" unicode="S" horiz-adv-x="685" 
d="M201.5 6.5q-58.5 16.5 -100.5 44.5t-56 60q-3 8 -3 14q0 17 17 29q9 6 16 6q11 0 26 -18q38 -50 88.5 -72t125.5 -22q109 0 171 39.5t62 107.5q0 34 -15.5 55t-54.5 38t-117 38q-91 24 -141 48.5t-72 55.5t-22 77q0 59 35.5 105.5t99 72t144.5 25.5q62 0 118 -15.5
t94 -42.5t47 -60q2 -10 2 -13q0 -18 -20 -28q-7 -3 -15 -3q-18 0 -27 15q-22 42 -77 66t-129 24q-95 0 -150.5 -37t-55.5 -101q0 -33 13.5 -52t51 -35.5t117.5 -38.5q95 -27 146 -51.5t73 -55.5t22 -78q0 -62 -37.5 -111t-104.5 -76t-152 -27q-61 0 -119.5 16.5z" />
    <glyph glyph-name="Sacute" unicode="&#x15a;" horiz-adv-x="685" 
d="M201.5 6.5q-58.5 16.5 -100.5 44.5t-56 60q-3 8 -3 14q0 17 17 29q9 6 16 6q11 0 26 -18q38 -50 88.5 -72t125.5 -22q109 0 171 39.5t62 107.5q0 34 -15.5 55t-54.5 38t-117 38q-91 24 -141 48.5t-72 55.5t-22 77q0 59 35.5 105.5t99 72t144.5 25.5q62 0 118 -15.5
t94 -42.5t47 -60q2 -10 2 -13q0 -18 -20 -28q-7 -3 -15 -3q-18 0 -27 15q-22 42 -77 66t-129 24q-95 0 -150.5 -37t-55.5 -101q0 -33 13.5 -52t51 -35.5t117.5 -38.5q95 -27 146 -51.5t73 -55.5t22 -78q0 -62 -37.5 -111t-104.5 -76t-152 -27q-61 0 -119.5 16.5zM420 805
q0 7 6 17l87 140q17 27 34 27q8 0 16 -5q14 -8 14 -19q0 -10 -10 -23l-102 -138q-12 -15 -26 -15q-3 0 -9 2q-10 4 -10 14z" />
    <glyph glyph-name="Scaron" unicode="&#x160;" horiz-adv-x="685" 
d="M201.5 6.5q-58.5 16.5 -100.5 44.5t-56 60q-3 8 -3 14q0 17 17 29q9 6 16 6q11 0 26 -18q38 -50 88.5 -72t125.5 -22q109 0 171 39.5t62 107.5q0 34 -15.5 55t-54.5 38t-117 38q-91 24 -141 48.5t-72 55.5t-22 77q0 59 35.5 105.5t99 72t144.5 25.5q62 0 118 -15.5
t94 -42.5t47 -60q2 -10 2 -13q0 -18 -20 -28q-7 -3 -15 -3q-18 0 -27 15q-22 42 -77 66t-129 24q-95 0 -150.5 -37t-55.5 -101q0 -33 13.5 -52t51 -35.5t117.5 -38.5q95 -27 146 -51.5t73 -55.5t22 -78q0 -62 -37.5 -111t-104.5 -76t-152 -27q-61 0 -119.5 16.5zM414 803
l-84 127q-5 6 -5 16q0 15 17 26q9 6 18 6q13 0 24 -18l65 -114l107 114q19 19 32 19q8 0 14 -6q10 -7 10 -19t-13 -25l-128 -126q-16 -16 -32 -16q-14 0 -25 16z" />
    <glyph glyph-name="Scedilla" unicode="&#x15e;" horiz-adv-x="685" 
d="M666 579q0 -18 -20 -28q-7 -3 -15 -3q-18 0 -27 15q-22 42 -77 66t-129 24q-95 0 -150.5 -37t-55.5 -101q0 -33 13.5 -52t51 -35.5t117.5 -38.5q95 -27 146 -51.5t73 -55.5t22 -78q0 -61 -36 -109t-100.5 -75.5t-147.5 -29.5l-1 -2l-32 -47q35 1 53 -14t18 -40
q0 -42 -32 -69.5t-79 -27.5q-32 0 -56 14.5t-34 34.5q-4 8 -4 12q0 10 13 20q8 5 15 5q10 0 15 -11q17 -30 58 -30q23 0 38 13t15 35q0 28 -32 28q-8 0 -13 -1q-13 -2 -21 3.5t-8 16.5q0 7 5 15l30 47q-82 8 -148.5 42t-85.5 77q-3 8 -3 14q0 17 17 29q9 6 16 6q11 0 26 -18
q38 -50 88.5 -72t125.5 -22q109 0 171 39.5t62 107.5q0 34 -15.5 55t-54.5 38t-117 38q-91 24 -141 48.5t-72 55.5t-22 77q0 59 35.5 105.5t99 72t144.5 25.5q62 0 118 -15.5t94 -42.5t47 -60q2 -10 2 -13z" />
    <glyph glyph-name="Scircumflex" unicode="&#x15c;" horiz-adv-x="685" 
d="M201.5 6.5q-58.5 16.5 -100.5 44.5t-56 60q-3 8 -3 14q0 17 17 29q9 6 16 6q11 0 26 -18q38 -50 88.5 -72t125.5 -22q109 0 171 39.5t62 107.5q0 34 -15.5 55t-54.5 38t-117 38q-91 24 -141 48.5t-72 55.5t-22 77q0 59 35.5 105.5t99 72t144.5 25.5q62 0 118 -15.5
t94 -42.5t47 -60q2 -10 2 -13q0 -18 -20 -28q-7 -3 -15 -3q-18 0 -27 15q-22 42 -77 66t-129 24q-95 0 -150.5 -37t-55.5 -101q0 -33 13.5 -52t51 -35.5t117.5 -38.5q95 -27 146 -51.5t73 -55.5t22 -78q0 -62 -37.5 -111t-104.5 -76t-152 -27q-61 0 -119.5 16.5zM301 812
q0 12 13 25l128 126q16 16 31 16t26 -16l83 -126q5 -7 5 -17q0 -16 -16 -26q-10 -6 -18 -6q-14 0 -25 18l-65 114l-106 -114q-16 -19 -32 -19q-7 0 -15 6q-9 9 -9 19z" />
    <glyph glyph-name="uni0218" unicode="&#x218;" horiz-adv-x="685" 
d="M201.5 6.5q-58.5 16.5 -100.5 44.5t-56 60q-3 8 -3 14q0 17 17 29q9 6 16 6q11 0 26 -18q38 -50 88.5 -72t125.5 -22q109 0 171 39.5t62 107.5q0 34 -15.5 55t-54.5 38t-117 38q-91 24 -141 48.5t-72 55.5t-22 77q0 59 35.5 105.5t99 72t144.5 25.5q62 0 118 -15.5
t94 -42.5t47 -60q2 -10 2 -13q0 -18 -20 -28q-7 -3 -15 -3q-18 0 -27 15q-22 42 -77 66t-129 24q-95 0 -150.5 -37t-55.5 -101q0 -33 13.5 -52t51 -35.5t117.5 -38.5q95 -27 146 -51.5t73 -55.5t22 -78q0 -62 -37.5 -111t-104.5 -76t-152 -27q-61 0 -119.5 16.5zM183 -282
q0 10 20 25q64 44 73 82q-5 -2 -16 -2q-18 0 -30.5 11t-12.5 28q0 27 20.5 45.5t49.5 18.5q23 0 36.5 -14t13.5 -39q0 -39 -28 -80.5t-77 -74.5q-11 -8 -20 -13t-14 -5q-6 0 -11 7q-4 8 -4 11z" />
    <glyph glyph-name="uni1E60" unicode="&#x1e60;" horiz-adv-x="685" 
d="M201.5 6.5q-58.5 16.5 -100.5 44.5t-56 60q-3 8 -3 14q0 17 17 29q9 6 16 6q11 0 26 -18q38 -50 88.5 -72t125.5 -22q109 0 171 39.5t62 107.5q0 34 -15.5 55t-54.5 38t-117 38q-91 24 -141 48.5t-72 55.5t-22 77q0 59 35.5 105.5t99 72t144.5 25.5q62 0 118 -15.5
t94 -42.5t47 -60q2 -10 2 -13q0 -18 -20 -28q-7 -3 -15 -3q-18 0 -27 15q-22 42 -77 66t-129 24q-95 0 -150.5 -37t-55.5 -101q0 -33 13.5 -52t51 -35.5t117.5 -38.5q95 -27 146 -51.5t73 -55.5t22 -78q0 -62 -37.5 -111t-104.5 -76t-152 -27q-61 0 -119.5 16.5zM414 818.5
q-12 11.5 -12 28.5q0 20 18 37t40 17q16 0 27.5 -11.5t11.5 -27.5q0 -20 -17.5 -37.5t-38.5 -17.5q-17 0 -29 11.5z" />
    <glyph glyph-name="uni1E62" unicode="&#x1e62;" horiz-adv-x="685" 
d="M201.5 6.5q-58.5 16.5 -100.5 44.5t-56 60q-3 8 -3 14q0 17 17 29q9 6 16 6q11 0 26 -18q38 -50 88.5 -72t125.5 -22q109 0 171 39.5t62 107.5q0 34 -15.5 55t-54.5 38t-117 38q-91 24 -141 48.5t-72 55.5t-22 77q0 59 35.5 105.5t99 72t144.5 25.5q62 0 118 -15.5
t94 -42.5t47 -60q2 -10 2 -13q0 -18 -20 -28q-7 -3 -15 -3q-18 0 -27 15q-22 42 -77 66t-129 24q-95 0 -150.5 -37t-55.5 -101q0 -33 13.5 -52t51 -35.5t117.5 -38.5q95 -27 146 -51.5t73 -55.5t22 -78q0 -62 -37.5 -111t-104.5 -76t-152 -27q-61 0 -119.5 16.5zM244.5 -157
q-11.5 11 -11.5 28q0 21 18 38t40 17q17 0 28.5 -11t11.5 -28q0 -21 -17 -38t-39 -17q-19 0 -30.5 11z" />
    <glyph glyph-name="uni1E9E" unicode="&#x1e9e;" horiz-adv-x="639" 
d="M235.5 6.5q-41.5 17.5 -58.5 43.5q-5 8 -5 16q0 14 14 24q10 7 19 7q10 0 23 -13q17 -18 44.5 -28.5t59.5 -10.5q88 0 135 47t47 134q0 109 -133 109h-52q-31 0 -31 21q0 16 11.5 23.5t36.5 7.5l157 141q1 7 1 19q0 98 -129 98q-80 0 -131 -42t-64 -119l-81 -460
q-2 -9 -12 -17t-22 -8t-21 8t-7 17l82 467q17 97 88 153t177 56q82 0 132.5 -42t50.5 -110q0 -9 -2 -27l-157 -140q80 -2 124.5 -42.5t44.5 -110.5q0 -72 -31 -126t-88.5 -83.5t-134.5 -29.5q-46 0 -87.5 17.5z" />
    <glyph glyph-name="uni018F" unicode="&#x18f;" horiz-adv-x="805" 
d="M199 20.5q-69 29.5 -106 83.5t-37 127t29 111t85 38h540q6 35 6 66q0 101 -61.5 154.5t-176.5 53.5q-172 0 -273 -80q-22 -18 -36 -18q-9 0 -16.5 7.5t-7.5 15.5q0 12 15 27q53 49 138.5 76.5t186.5 27.5q140 0 216 -72t76 -204q0 -130 -52.5 -230.5t-147 -156.5
t-216.5 -56q-93 0 -162 29.5zM591 121q87 73 110 204h-527q-27 0 -40.5 -21.5t-13.5 -71.5q0 -90 64.5 -137t186.5 -47q133 0 220 73z" />
    <glyph glyph-name="T" unicode="T" horiz-adv-x="708" 
d="M284 16q0 6 1 10l108 620h-236q-14 0 -22 6t-8 17q0 15 10.5 23t29.5 8h536q30 0 30 -22q0 -15 -10 -23.5t-29 -8.5h-236l-109 -620q-4 -18 -14 -27t-25 -9q-26 0 -26 26z" />
    <glyph glyph-name="Tbar" unicode="&#x166;" horiz-adv-x="708" 
d="M733 678q0 -15 -10 -23.5t-29 -8.5h-236l-47 -268h117q16 0 23.5 -4.5t7.5 -15.5q0 -16 -10.5 -24.5t-29.5 -8.5h-117l-53 -299q-4 -18 -14 -27t-25 -9q-26 0 -26 26q0 6 1 10l52 299h-109q-31 0 -31 20q0 33 40 33h109l47 268h-236q-14 0 -22 6t-8 17q0 15 10.5 23
t29.5 8h536q30 0 30 -22z" />
    <glyph glyph-name="Tcaron" unicode="&#x164;" horiz-adv-x="708" 
d="M284 16q0 6 1 10l108 620h-236q-14 0 -22 6t-8 17q0 15 10.5 23t29.5 8h536q30 0 30 -22q0 -15 -10 -23.5t-29 -8.5h-236l-109 -620q-4 -18 -14 -27t-25 -9q-26 0 -26 26zM426 803l-84 127q-5 6 -5 16q0 15 17 26q9 6 18 6q13 0 24 -18l65 -114l107 114q19 19 32 19
q8 0 14 -6q10 -7 10 -19t-13 -25l-128 -126q-16 -16 -32 -16q-14 0 -25 16z" />
    <glyph glyph-name="uni0162" unicode="&#x162;" horiz-adv-x="708" 
d="M733 678q0 -15 -10 -23.5t-29 -8.5h-236l-109 -620q-5 -19 -15 -28q0 -2 -4 -10l-33 -47q36 1 53.5 -14t17.5 -40q0 -42 -31.5 -69.5t-79.5 -27.5q-32 0 -55.5 14t-34.5 35q-4 8 -4 12q0 10 13 20q6 5 14 5q11 0 17 -11q18 -30 57 -30q24 0 38.5 13.5t14.5 35.5
q0 27 -30 27q-9 0 -14 -1q-13 -2 -21 3.5t-8 15.5q0 8 5 16l33 51q1 3 2 4.5t2 2.5q-2 8 -2 13q0 7 1 10l108 620h-236q-14 0 -22 6t-8 17q0 15 10.5 23t29.5 8h536q30 0 30 -22z" />
    <glyph glyph-name="uni021A" unicode="&#x21a;" horiz-adv-x="708" 
d="M284 16q0 6 1 10l108 620h-236q-14 0 -22 6t-8 17q0 15 10.5 23t29.5 8h536q30 0 30 -22q0 -15 -10 -23.5t-29 -8.5h-236l-109 -620q-4 -18 -14 -27t-25 -9q-26 0 -26 26zM190 -282q0 10 20 25q64 44 73 82q-5 -2 -16 -2q-18 0 -30.5 11t-12.5 28q0 27 20.5 45.5
t49.5 18.5q23 0 36.5 -14t13.5 -39q0 -39 -28 -80.5t-77 -74.5q-11 -8 -20 -13t-14 -5q-6 0 -11 7q-4 8 -4 11z" />
    <glyph glyph-name="uni1E6C" unicode="&#x1e6c;" horiz-adv-x="708" 
d="M284 16q0 6 1 10l108 620h-236q-14 0 -22 6t-8 17q0 15 10.5 23t29.5 8h536q30 0 30 -22q0 -15 -10 -23.5t-29 -8.5h-236l-109 -620q-4 -18 -14 -27t-25 -9q-26 0 -26 26zM251.5 -157q-11.5 11 -11.5 28q0 21 18 38t40 17q17 0 28.5 -11t11.5 -28q0 -21 -17 -38t-39 -17
q-19 0 -30.5 11z" />
    <glyph glyph-name="uni1E6E" unicode="&#x1e6e;" horiz-adv-x="708" 
d="M284 16q0 6 1 10l108 620h-236q-14 0 -22 6t-8 17q0 15 10.5 23t29.5 8h536q30 0 30 -22q0 -15 -10 -23.5t-29 -8.5h-236l-109 -620q-4 -18 -14 -27t-25 -9q-26 0 -26 26zM137 -120q0 30 37 30h243q14 0 22 -3.5t8 -14.5q0 -29 -38 -29h-243q-29 0 -29 17z" />
    <glyph glyph-name="U" unicode="U" horiz-adv-x="750" 
d="M151 49.5q-66 59.5 -66 163.5q0 32 6 66l70 395q7 36 38 36q13 0 20.5 -7t7.5 -20q0 -6 -1 -9l-71 -398q-7 -42 -7 -66q0 -163 190 -163q227 0 269 229l70 398q3 17 13 26.5t26 9.5q26 0 26 -25q0 -7 -1 -11l-70 -395q-25 -139 -112 -214t-221 -75q-121 0 -187 59.5z" />
    <glyph glyph-name="Uacute" unicode="&#xda;" horiz-adv-x="750" 
d="M151 49.5q-66 59.5 -66 163.5q0 32 6 66l70 395q7 36 38 36q13 0 20.5 -7t7.5 -20q0 -6 -1 -9l-71 -398q-7 -42 -7 -66q0 -163 190 -163q227 0 269 229l70 398q3 17 13 26.5t26 9.5q26 0 26 -25q0 -7 -1 -11l-70 -395q-25 -139 -112 -214t-221 -75q-121 0 -187 59.5z
M451 805q0 7 6 17l87 140q17 27 34 27q8 0 16 -5q14 -8 14 -19q0 -10 -10 -23l-102 -138q-12 -15 -26 -15q-3 0 -9 2q-10 4 -10 14z" />
    <glyph glyph-name="Ubreve" unicode="&#x16c;" horiz-adv-x="750" 
d="M151 49.5q-66 59.5 -66 163.5q0 32 6 66l70 395q7 36 38 36q13 0 20.5 -7t7.5 -20q0 -6 -1 -9l-71 -398q-7 -42 -7 -66q0 -163 190 -163q227 0 269 229l70 398q3 17 13 26.5t26 9.5q26 0 26 -25q0 -7 -1 -11l-70 -395q-25 -139 -112 -214t-221 -75q-121 0 -187 59.5z
M377 821.5q-33 32.5 -33 82.5q0 63 38 63q24 0 24 -23q0 -52 4.5 -73t18 -27.5t48.5 -6.5q45 0 71.5 25.5t34.5 69.5q6 35 35 35q25 0 25 -23q0 -40 -25 -75.5t-65 -57.5t-84 -22q-59 0 -92 32.5z" />
    <glyph glyph-name="uni01D3" unicode="&#x1d3;" horiz-adv-x="750" 
d="M151 49.5q-66 59.5 -66 163.5q0 32 6 66l70 395q7 36 38 36q13 0 20.5 -7t7.5 -20q0 -6 -1 -9l-71 -398q-7 -42 -7 -66q0 -163 190 -163q227 0 269 229l70 398q3 17 13 26.5t26 9.5q26 0 26 -25q0 -7 -1 -11l-70 -395q-25 -139 -112 -214t-221 -75q-121 0 -187 59.5z
M446 803l-84 127q-5 6 -5 16q0 15 17 26q9 6 18 6q13 0 24 -18l65 -114l107 114q19 19 32 19q8 0 14 -6q10 -7 10 -19t-13 -25l-128 -126q-16 -16 -32 -16q-14 0 -25 16z" />
    <glyph glyph-name="Ucircumflex" unicode="&#xdb;" horiz-adv-x="750" 
d="M151 49.5q-66 59.5 -66 163.5q0 32 6 66l70 395q7 36 38 36q13 0 20.5 -7t7.5 -20q0 -6 -1 -9l-71 -398q-7 -42 -7 -66q0 -163 190 -163q227 0 269 229l70 398q3 17 13 26.5t26 9.5q26 0 26 -25q0 -7 -1 -11l-70 -395q-25 -139 -112 -214t-221 -75q-121 0 -187 59.5z
M333 812q0 12 13 25l128 126q16 16 31 16t26 -16l83 -126q5 -7 5 -17q0 -16 -16 -26q-10 -6 -18 -6q-14 0 -25 18l-65 114l-106 -114q-16 -19 -32 -19q-7 0 -15 6q-9 9 -9 19z" />
    <glyph glyph-name="Udieresis" unicode="&#xdc;" horiz-adv-x="750" 
d="M151 49.5q-66 59.5 -66 163.5q0 32 6 66l70 395q7 36 38 36q13 0 20.5 -7t7.5 -20q0 -6 -1 -9l-71 -398q-7 -42 -7 -66q0 -163 190 -163q227 0 269 229l70 398q3 17 13 26.5t26 9.5q26 0 26 -25q0 -7 -1 -11l-70 -395q-25 -139 -112 -214t-221 -75q-121 0 -187 59.5z
M346.5 820q-11.5 11 -11.5 27q0 20 17.5 37t38.5 17q16 0 27 -11.5t11 -27.5q0 -20 -17 -36.5t-37 -16.5q-17 0 -28.5 11zM548.5 820q-11.5 11 -11.5 27q0 20 17.5 37t38.5 17q16 0 27 -11.5t11 -27.5q0 -20 -17 -36.5t-38 -16.5q-16 0 -27.5 11z" />
    <glyph glyph-name="uni01D7" unicode="&#x1d7;" horiz-adv-x="750" 
d="M151 49.5q-66 59.5 -66 163.5q0 32 6 66l70 395q7 36 38 36q13 0 20.5 -7t7.5 -20q0 -6 -1 -9l-71 -398q-7 -42 -7 -66q0 -163 190 -163q227 0 269 229l70 398q3 17 13 26.5t26 9.5q26 0 26 -25q0 -7 -1 -11l-70 -395q-25 -139 -112 -214t-221 -75q-121 0 -187 59.5z
M479 926q0 6 6 16l70 118q14 26 34 26q8 0 15 -4q13 -7 13 -20q0 -10 -9 -22l-84 -116q-10 -15 -25 -15q-7 0 -10 2q-10 6 -10 15zM345.5 820q-11.5 11 -11.5 27q0 20 17.5 37t38.5 17q16 0 27 -11.5t11 -27.5q0 -20 -17 -36.5t-37 -16.5q-17 0 -28.5 11zM547.5 820
q-11.5 11 -11.5 27q0 20 17.5 37t38.5 17q16 0 27 -11.5t11 -27.5q0 -20 -17 -36.5t-38 -16.5q-16 0 -27.5 11z" />
    <glyph glyph-name="uni01D9" unicode="&#x1d9;" horiz-adv-x="750" 
d="M151 49.5q-66 59.5 -66 163.5q0 32 6 66l70 395q7 36 38 36q13 0 20.5 -7t7.5 -20q0 -6 -1 -9l-71 -398q-7 -42 -7 -66q0 -163 190 -163q227 0 269 229l70 398q3 17 13 26.5t26 9.5q26 0 26 -25q0 -7 -1 -11l-70 -395q-25 -139 -112 -214t-221 -75q-121 0 -187 59.5z
M479.5 915.5q-5.5 3.5 -11.5 12.5l-85 109q-6 8 -6 16q0 14 17 25q9 6 17 6q12 0 24 -17l67 -98l102 98q18 18 31 18q8 0 14 -6q10 -7 10 -18q0 -14 -13 -24l-123 -109q-16 -16 -31 -16q-7 0 -12.5 3.5zM346.5 820q-11.5 11 -11.5 27q0 20 17.5 37t37.5 17q17 0 28 -11
t11 -28q0 -20 -17 -36.5t-38 -16.5q-16 0 -27.5 11zM548 820q-11 11 -11 27q0 20 17 37t38 17q16 0 27.5 -11.5t11.5 -27.5q0 -20 -17 -36.5t-39 -16.5q-16 0 -27 11z" />
    <glyph glyph-name="uni01DB" unicode="&#x1db;" horiz-adv-x="750" 
d="M151 49.5q-66 59.5 -66 163.5q0 32 6 66l70 395q7 36 38 36q13 0 20.5 -7t7.5 -20q0 -6 -1 -9l-71 -398q-7 -42 -7 -66q0 -163 190 -163q227 0 269 229l70 398q3 17 13 26.5t26 9.5q26 0 26 -25q0 -7 -1 -11l-70 -395q-25 -139 -112 -214t-221 -75q-121 0 -187 59.5z
M485 909q-14 0 -20 15l-43 116q-3 8 -3 15q0 17 22 27q8 4 16 4q18 0 24 -26l29 -118q1 -3 1 -8q0 -16 -15 -23q-4 -2 -11 -2zM345.5 820q-11.5 11 -11.5 27q0 20 17.5 37t37.5 17q17 0 28 -11t11 -28q0 -20 -17 -36.5t-38 -16.5q-16 0 -27.5 11zM547 820q-11 11 -11 27
q0 20 17 37t38 17q16 0 27.5 -11.5t11.5 -27.5q0 -20 -17 -36.5t-39 -16.5q-16 0 -27 11z" />
    <glyph glyph-name="uni01D5" unicode="&#x1d5;" horiz-adv-x="750" 
d="M151 49.5q-66 59.5 -66 163.5q0 32 6 66l70 395q7 36 38 36q13 0 20.5 -7t7.5 -20q0 -6 -1 -9l-71 -398q-7 -42 -7 -66q0 -163 190 -163q227 0 269 229l70 398q3 17 13 26.5t26 9.5q26 0 26 -25q0 -7 -1 -11l-70 -395q-25 -139 -112 -214t-221 -75q-121 0 -187 59.5z
M345.5 820q-11.5 11 -11.5 27q0 20 17.5 37t38.5 17q16 0 27 -11.5t11 -27.5q0 -20 -17 -36.5t-37 -16.5q-17 0 -28.5 11zM547.5 820q-11.5 11 -11.5 27q0 20 17.5 37t38.5 17q16 0 27 -11.5t11 -27.5q0 -20 -17 -36.5t-38 -16.5q-16 0 -27.5 11zM351 988q0 16 9.5 22.5
t27.5 6.5h243q14 0 21.5 -3.5t7.5 -13.5q0 -30 -37 -30h-243q-29 0 -29 18z" />
    <glyph glyph-name="uni1EE4" unicode="&#x1ee4;" horiz-adv-x="750" 
d="M151 49.5q-66 59.5 -66 163.5q0 32 6 66l70 395q7 36 38 36q13 0 20.5 -7t7.5 -20q0 -6 -1 -9l-71 -398q-7 -42 -7 -66q0 -163 190 -163q227 0 269 229l70 398q3 17 13 26.5t26 9.5q26 0 26 -25q0 -7 -1 -11l-70 -395q-25 -139 -112 -214t-221 -75q-121 0 -187 59.5z
M272.5 -157q-11.5 11 -11.5 28q0 21 18 38t40 17q17 0 28.5 -11t11.5 -28q0 -21 -17 -38t-39 -17q-19 0 -30.5 11z" />
    <glyph glyph-name="Ugrave" unicode="&#xd9;" horiz-adv-x="750" 
d="M151 49.5q-66 59.5 -66 163.5q0 32 6 66l70 395q7 36 38 36q13 0 20.5 -7t7.5 -20q0 -6 -1 -9l-71 -398q-7 -42 -7 -66q0 -163 190 -163q227 0 269 229l70 398q3 17 13 26.5t26 9.5q26 0 26 -25q0 -7 -1 -11l-70 -395q-25 -139 -112 -214t-221 -75q-121 0 -187 59.5z
M474 789q-14 0 -20 15l-53 138q-3 8 -3 15q0 16 22 27q9 4 17 4q18 0 24 -26l39 -140q1 -3 1 -8q0 -16 -16 -23q-8 -2 -11 -2z" />
    <glyph glyph-name="uni1EE6" unicode="&#x1ee6;" horiz-adv-x="750" 
d="M151 49.5q-66 59.5 -66 163.5q0 32 6 66l70 395q7 36 38 36q13 0 20.5 -7t7.5 -20q0 -6 -1 -9l-71 -398q-7 -42 -7 -66q0 -163 190 -163q227 0 269 229l70 398q3 17 13 26.5t26 9.5q26 0 26 -25q0 -7 -1 -11l-70 -395q-25 -139 -112 -214t-221 -75q-121 0 -187 59.5z
M441 786l1 8q3 17 15 28.5t34 26.5q22 16 31.5 25.5t9.5 24.5q0 12 -9 19.5t-26 7.5q-37 0 -61 -27q-12 -14 -23 -14q-5 0 -11 3q-11 6 -11 16q0 7 7 16q16 21 46 36.5t64 15.5q41 0 61 -17.5t20 -45.5t-13.5 -44t-38.5 -31q-18 -12 -26 -20t-9 -20l-1 -8q-6 -27 -36 -27
q-27 0 -24 27z" />
    <glyph glyph-name="Uhorn" unicode="&#x1af;" horiz-adv-x="771" 
d="M899 755q0 -36 -22.5 -70.5t-59 -57t-78.5 -24.5h-11l-57 -324q-25 -139 -112 -214t-221 -75q-121 0 -187 59.5t-66 163.5q0 32 6 66l70 395q7 36 38 36q13 0 20.5 -7t7.5 -20q0 -6 -1 -9l-71 -398q-7 -42 -7 -66q0 -163 190 -163q227 0 269 229l70 398q3 17 13 26.5
t26 9.5q26 0 26 -25q0 -7 -1 -11l-4 -21l11 1q38 4 61.5 27.5t30.5 63.5q2 16 11 25.5t24 9.5q24 0 24 -25z" />
    <glyph glyph-name="uni1EE8" unicode="&#x1ee8;" horiz-adv-x="771" 
d="M899 755q0 -36 -22.5 -70.5t-59 -57t-78.5 -24.5h-11l-57 -324q-25 -139 -112 -214t-221 -75q-121 0 -187 59.5t-66 163.5q0 32 6 66l70 395q7 36 38 36q13 0 20.5 -7t7.5 -20q0 -6 -1 -9l-71 -398q-7 -42 -7 -66q0 -163 190 -163q227 0 269 229l70 398q3 17 13 26.5
t26 9.5q26 0 26 -25q0 -7 -1 -11l-4 -21l11 1q38 4 61.5 27.5t30.5 63.5q2 16 11 25.5t24 9.5q24 0 24 -25zM451 805q0 7 6 17l87 140q17 27 34 27q8 0 16 -5q14 -8 14 -19q0 -10 -10 -23l-102 -138q-12 -15 -26 -15q-3 0 -9 2q-10 4 -10 14z" />
    <glyph glyph-name="uni1EF0" unicode="&#x1ef0;" horiz-adv-x="771" 
d="M899 755q0 -36 -22.5 -70.5t-59 -57t-78.5 -24.5h-11l-57 -324q-25 -139 -112 -214t-221 -75q-121 0 -187 59.5t-66 163.5q0 32 6 66l70 395q7 36 38 36q13 0 20.5 -7t7.5 -20q0 -6 -1 -9l-71 -398q-7 -42 -7 -66q0 -163 190 -163q227 0 269 229l70 398q3 17 13 26.5
t26 9.5q26 0 26 -25q0 -7 -1 -11l-4 -21l11 1q38 4 61.5 27.5t30.5 63.5q2 16 11 25.5t24 9.5q24 0 24 -25zM272.5 -157q-11.5 11 -11.5 28q0 21 18 38t40 17q17 0 28.5 -11t11.5 -28q0 -21 -17 -38t-39 -17q-19 0 -30.5 11z" />
    <glyph glyph-name="uni1EEA" unicode="&#x1eea;" horiz-adv-x="771" 
d="M899 755q0 -36 -22.5 -70.5t-59 -57t-78.5 -24.5h-11l-57 -324q-25 -139 -112 -214t-221 -75q-121 0 -187 59.5t-66 163.5q0 32 6 66l70 395q7 36 38 36q13 0 20.5 -7t7.5 -20q0 -6 -1 -9l-71 -398q-7 -42 -7 -66q0 -163 190 -163q227 0 269 229l70 398q3 17 13 26.5
t26 9.5q26 0 26 -25q0 -7 -1 -11l-4 -21l11 1q38 4 61.5 27.5t30.5 63.5q2 16 11 25.5t24 9.5q24 0 24 -25zM472 789q-14 0 -20 15l-53 138q-3 8 -3 15q0 16 22 27q9 4 17 4q18 0 24 -26l39 -140q1 -3 1 -8q0 -16 -16 -23q-8 -2 -11 -2z" />
    <glyph glyph-name="uni1EEC" unicode="&#x1eec;" horiz-adv-x="771" 
d="M899 755q0 -36 -22.5 -70.5t-59 -57t-78.5 -24.5h-11l-57 -324q-25 -139 -112 -214t-221 -75q-121 0 -187 59.5t-66 163.5q0 32 6 66l70 395q7 36 38 36q13 0 20.5 -7t7.5 -20q0 -6 -1 -9l-71 -398q-7 -42 -7 -66q0 -163 190 -163q227 0 269 229l70 398q3 17 13 26.5
t26 9.5q26 0 26 -25q0 -7 -1 -11l-4 -21l11 1q38 4 61.5 27.5t30.5 63.5q2 16 11 25.5t24 9.5q24 0 24 -25zM441 786l1 8q3 17 15 28.5t34 26.5q22 16 31.5 25.5t9.5 24.5q0 12 -9 19.5t-26 7.5q-37 0 -61 -27q-12 -14 -23 -14q-5 0 -11 3q-11 6 -11 16q0 7 7 16
q16 21 46 36.5t64 15.5q41 0 61 -17.5t20 -45.5t-13.5 -44t-38.5 -31q-18 -12 -26 -20t-9 -20l-1 -8q-6 -27 -36 -27q-27 0 -24 27z" />
    <glyph glyph-name="uni1EEE" unicode="&#x1eee;" horiz-adv-x="771" 
d="M899 755q0 -36 -22.5 -70.5t-59 -57t-78.5 -24.5h-11l-57 -324q-25 -139 -112 -214t-221 -75q-121 0 -187 59.5t-66 163.5q0 32 6 66l70 395q7 36 38 36q13 0 20.5 -7t7.5 -20q0 -6 -1 -9l-71 -398q-7 -42 -7 -66q0 -163 190 -163q227 0 269 229l70 398q3 17 13 26.5
t26 9.5q26 0 26 -25q0 -7 -1 -11l-4 -21l11 1q38 4 61.5 27.5t30.5 63.5q2 16 11 25.5t24 9.5q24 0 24 -25zM316 826q0 6 5 19q13 33 41.5 54.5t62.5 21.5q24 0 41 -8.5t36 -24.5q15 -12 26 -18t24 -6q34 0 54 44q9 20 27 20q6 0 9 -1q13 -3 13 -15q0 -8 -5 -18
q-14 -35 -42 -56t-62 -21q-22 0 -37.5 8t-34.5 23q-16 13 -28 19.5t-27 6.5q-35 0 -54 -43q-9 -20 -26 -20q-6 0 -10 1q-13 3 -13 14z" />
    <glyph glyph-name="Uhungarumlaut" unicode="&#x170;" horiz-adv-x="750" 
d="M151 49.5q-66 59.5 -66 163.5q0 32 6 66l70 395q7 36 38 36q13 0 20.5 -7t7.5 -20q0 -6 -1 -9l-71 -398q-7 -42 -7 -66q0 -163 190 -163q227 0 269 229l70 398q3 17 13 26.5t26 9.5q26 0 26 -25q0 -7 -1 -11l-70 -395q-25 -139 -112 -214t-221 -75q-121 0 -187 59.5z
M532 799q0 9 8 20l116 146q9 12 17 18t17 6q6 0 16 -5q15 -9 15 -21q0 -10 -10 -22l-131 -145q-13 -15 -28 -15q-7 0 -10 2q-10 4 -10 16zM362 799q0 9 8 20l115 147q17 22 33 22q8 0 16 -4q15 -9 15 -21q0 -9 -10 -22l-129 -145q-13 -15 -28 -15q-7 0 -10 2q-10 6 -10 16z
" />
    <glyph glyph-name="Umacron" unicode="&#x16a;" horiz-adv-x="750" 
d="M151 49.5q-66 59.5 -66 163.5q0 32 6 66l70 395q7 36 38 36q13 0 20.5 -7t7.5 -20q0 -6 -1 -9l-71 -398q-7 -42 -7 -66q0 -163 190 -163q227 0 269 229l70 398q3 17 13 26.5t26 9.5q26 0 26 -25q0 -7 -1 -11l-70 -395q-25 -139 -112 -214t-221 -75q-121 0 -187 59.5z
M321 809q0 16 9.5 22.5t27.5 6.5h243q14 0 21.5 -3.5t7.5 -13.5q0 -30 -37 -30h-243q-29 0 -29 18z" />
    <glyph glyph-name="Uogonek" unicode="&#x172;" horiz-adv-x="750" 
d="M742 685q0 -7 -1 -11l-70 -395q-23 -132 -102.5 -206t-201.5 -82q-49 -34 -73.5 -60t-24.5 -58q0 -16 11.5 -25.5t33.5 -9.5q32 0 60 21q10 8 18 8t13 -7q4 -5 4 -12q0 -12 -12 -21q-21 -18 -43 -26.5t-50 -8.5q-42 0 -66 20t-24 51q0 61 83 129q-101 10 -156.5 68
t-55.5 153q0 32 6 66l70 395q7 36 38 36q13 0 20.5 -7t7.5 -20q0 -6 -1 -9l-71 -398q-7 -42 -7 -66q0 -163 190 -163q227 0 269 229l70 398q3 17 13 26.5t26 9.5q26 0 26 -25z" />
    <glyph glyph-name="Uring" unicode="&#x16e;" horiz-adv-x="750" 
d="M151 49.5q-66 59.5 -66 163.5q0 32 6 66l70 395q7 36 38 36q13 0 20.5 -7t7.5 -20q0 -6 -1 -9l-71 -398q-7 -42 -7 -66q0 -163 190 -163q227 0 269 229l70 398q3 17 13 26.5t26 9.5q26 0 26 -25q0 -7 -1 -11l-70 -395q-25 -139 -112 -214t-221 -75q-121 0 -187 59.5z
M396 779q-26 23 -26 59q0 32 17.5 59.5t48 43.5t66.5 16q43 0 68.5 -23t25.5 -59q0 -32 -17.5 -59.5t-47.5 -43.5t-65 -16q-44 0 -70 23zM527.5 817.5q21.5 20.5 21.5 51.5q0 22 -14.5 35t-39.5 13q-33 0 -54.5 -20.5t-21.5 -52.5q0 -22 15 -34.5t40 -12.5q32 0 53.5 20.5z
" />
    <glyph glyph-name="Utilde" unicode="&#x168;" horiz-adv-x="750" 
d="M151 49.5q-66 59.5 -66 163.5q0 32 6 66l70 395q7 36 38 36q13 0 20.5 -7t7.5 -20q0 -6 -1 -9l-71 -398q-7 -42 -7 -66q0 -163 190 -163q227 0 269 229l70 398q3 17 13 26.5t26 9.5q26 0 26 -25q0 -7 -1 -11l-70 -395q-25 -139 -112 -214t-221 -75q-121 0 -187 59.5z
M314 821q0 8 4 17q14 34 42 55.5t62 21.5q25 0 41.5 -8.5t36.5 -24.5q15 -12 25.5 -18t23.5 -6q36 0 55 43q8 20 25 20q7 0 10 -1q13 -3 13 -16q0 -5 -4 -17q-14 -34 -43 -55t-62 -21q-21 0 -36.5 8t-34.5 23q-18 13 -29.5 19.5t-26.5 6.5q-34 0 -54 -43q-9 -21 -26 -21
q-6 0 -9 1q-13 4 -13 16z" />
    <glyph glyph-name="V" unicode="V" horiz-adv-x="734" 
d="M239.5 36.5q-31.5 46.5 -44.5 153.5l-55 480q-5 40 33 40q16 0 22.5 -6.5t8.5 -26.5l54 -481q9 -81 26 -115.5t47 -34.5q32 0 61 35t66 115l225 481q8 19 16.5 26t25.5 7q26 0 26 -19q0 -9 -6 -21l-226 -480q-50 -107 -92 -153.5t-98 -46.5q-58 0 -89.5 46.5z" />
    <glyph glyph-name="W" unicode="W" horiz-adv-x="954" 
d="M171 18.5q-21 28.5 -22 81.5l-10 571q-1 39 33 39q17 0 24 -7t7 -26l7 -578q0 -29 6.5 -41t23.5 -12q18 0 29.5 12.5t20.5 40.5l173 521q31 90 96 90q67 0 65 -90l-10 -521q-1 -28 6.5 -40.5t24.5 -12.5t28 12.5t21 40.5l211 578q7 19 15.5 26t26.5 7q23 0 23 -19
q0 -9 -4 -20l-211 -571q-20 -55 -49.5 -82.5t-69.5 -27.5q-37 0 -56 28t-18 81l9 517q0 21 -4 29.5t-15 8.5q-10 0 -17.5 -8.5t-14.5 -29.5l-173 -517q-19 -55 -47.5 -82t-68.5 -27q-39 0 -60 28.5z" />
    <glyph glyph-name="Wacute" unicode="&#x1e82;" horiz-adv-x="954" 
d="M171 18.5q-21 28.5 -22 81.5l-10 571q-1 39 33 39q17 0 24 -7t7 -26l7 -578q0 -29 6.5 -41t23.5 -12q18 0 29.5 12.5t20.5 40.5l173 521q31 90 96 90q67 0 65 -90l-10 -521q-1 -28 6.5 -40.5t24.5 -12.5t28 12.5t21 40.5l211 578q7 19 15.5 26t26.5 7q23 0 23 -19
q0 -9 -4 -20l-211 -571q-20 -55 -49.5 -82.5t-69.5 -27.5q-37 0 -56 28t-18 81l9 517q0 21 -4 29.5t-15 8.5q-10 0 -17.5 -8.5t-14.5 -29.5l-173 -517q-19 -55 -47.5 -82t-68.5 -27q-39 0 -60 28.5zM554 805q0 7 6 17l87 140q17 27 34 27q8 0 16 -5q14 -8 14 -19
q0 -10 -10 -23l-102 -138q-12 -15 -26 -15q-3 0 -9 2q-10 4 -10 14z" />
    <glyph glyph-name="Wcircumflex" unicode="&#x174;" horiz-adv-x="954" 
d="M171 18.5q-21 28.5 -22 81.5l-10 571q-1 39 33 39q17 0 24 -7t7 -26l7 -578q0 -29 6.5 -41t23.5 -12q18 0 29.5 12.5t20.5 40.5l173 521q31 90 96 90q67 0 65 -90l-10 -521q-1 -28 6.5 -40.5t24.5 -12.5t28 12.5t21 40.5l211 578q7 19 15.5 26t26.5 7q23 0 23 -19
q0 -9 -4 -20l-211 -571q-20 -55 -49.5 -82.5t-69.5 -27.5q-37 0 -56 28t-18 81l9 517q0 21 -4 29.5t-15 8.5q-10 0 -17.5 -8.5t-14.5 -29.5l-173 -517q-19 -55 -47.5 -82t-68.5 -27q-39 0 -60 28.5zM435 812q0 12 13 25l128 126q16 16 31 16t26 -16l83 -126q5 -7 5 -17
q0 -16 -16 -26q-10 -6 -18 -6q-14 0 -25 18l-65 114l-106 -114q-16 -19 -32 -19q-7 0 -15 6q-9 9 -9 19z" />
    <glyph glyph-name="Wdieresis" unicode="&#x1e84;" horiz-adv-x="954" 
d="M171 18.5q-21 28.5 -22 81.5l-10 571q-1 39 33 39q17 0 24 -7t7 -26l7 -578q0 -29 6.5 -41t23.5 -12q18 0 29.5 12.5t20.5 40.5l173 521q31 90 96 90q67 0 65 -90l-10 -521q-1 -28 6.5 -40.5t24.5 -12.5t28 12.5t21 40.5l211 578q7 19 15.5 26t26.5 7q23 0 23 -19
q0 -9 -4 -20l-211 -571q-20 -55 -49.5 -82.5t-69.5 -27.5q-37 0 -56 28t-18 81l9 517q0 21 -4 29.5t-15 8.5q-10 0 -17.5 -8.5t-14.5 -29.5l-173 -517q-19 -55 -47.5 -82t-68.5 -27q-39 0 -60 28.5zM448.5 820q-11.5 11 -11.5 27q0 20 17.5 37t38.5 17q16 0 27 -11.5
t11 -27.5q0 -20 -17 -36.5t-37 -16.5q-17 0 -28.5 11zM650.5 820q-11.5 11 -11.5 27q0 20 17.5 37t38.5 17q16 0 27 -11.5t11 -27.5q0 -20 -17 -36.5t-38 -16.5q-16 0 -27.5 11z" />
    <glyph glyph-name="Wgrave" unicode="&#x1e80;" horiz-adv-x="954" 
d="M171 18.5q-21 28.5 -22 81.5l-10 571q-1 39 33 39q17 0 24 -7t7 -26l7 -578q0 -29 6.5 -41t23.5 -12q18 0 29.5 12.5t20.5 40.5l173 521q31 90 96 90q67 0 65 -90l-10 -521q-1 -28 6.5 -40.5t24.5 -12.5t28 12.5t21 40.5l211 578q7 19 15.5 26t26.5 7q23 0 23 -19
q0 -9 -4 -20l-211 -571q-20 -55 -49.5 -82.5t-69.5 -27.5q-37 0 -56 28t-18 81l9 517q0 21 -4 29.5t-15 8.5q-10 0 -17.5 -8.5t-14.5 -29.5l-173 -517q-19 -55 -47.5 -82t-68.5 -27q-39 0 -60 28.5zM577 789q-14 0 -20 15l-53 138q-3 8 -3 15q0 16 22 27q9 4 17 4
q18 0 24 -26l39 -140q1 -3 1 -8q0 -16 -16 -23q-8 -2 -11 -2z" />
    <glyph glyph-name="X" unicode="X" horiz-adv-x="722" 
d="M725 684q0 -13 -10 -24l-295 -303l197 -317q4 -7 4 -16q0 -17 -15 -28q-9 -6 -17 -6q-12 0 -24 19l-188 303l-295 -303q-19 -19 -36 -19q-10 0 -16 6q-9 8 -9 19q0 12 11 25l314 322l-185 298q-5 8 -5 17q0 17 15 27q9 6 17 6q13 0 24 -18l177 -286l279 286q17 17 33 17
q8 0 15 -5q9 -7 9 -20z" />
    <glyph glyph-name="Y" unicode="Y" horiz-adv-x="699" 
d="M714 684q0 -7 -1 -10l-24 -129q-25 -138 -107 -221t-202 -94l-36 -204q-3 -17 -13.5 -26.5t-25.5 -9.5q-26 0 -26 25q0 7 1 11l36 205q-96 10 -151 75.5t-55 169.5q0 33 6 69l23 129q6 36 38 36t27 -36l-24 -132q-8 -45 -8 -77q0 -88 47 -133.5t138 -45.5q106 0 176.5 67
t91.5 189l23 132q3 17 13.5 26.5t25.5 9.5q27 0 27 -26z" />
    <glyph glyph-name="Yacute" unicode="&#xdd;" horiz-adv-x="699" 
d="M714 684q0 -7 -1 -10l-24 -129q-25 -138 -107 -221t-202 -94l-36 -204q-3 -17 -13.5 -26.5t-25.5 -9.5q-26 0 -26 25q0 7 1 11l36 205q-96 10 -151 75.5t-55 169.5q0 33 6 69l23 129q6 36 38 36t27 -36l-24 -132q-8 -45 -8 -77q0 -88 47 -133.5t138 -45.5q106 0 176.5 67
t91.5 189l23 132q3 17 13.5 26.5t25.5 9.5q27 0 27 -26zM426 805q0 7 6 17l87 140q17 27 34 27q8 0 16 -5q14 -8 14 -19q0 -10 -10 -23l-102 -138q-12 -15 -26 -15q-3 0 -9 2q-10 4 -10 14z" />
    <glyph glyph-name="Ycircumflex" unicode="&#x176;" horiz-adv-x="699" 
d="M714 684q0 -7 -1 -10l-24 -129q-25 -138 -107 -221t-202 -94l-36 -204q-3 -17 -13.5 -26.5t-25.5 -9.5q-26 0 -26 25q0 7 1 11l36 205q-96 10 -151 75.5t-55 169.5q0 33 6 69l23 129q6 36 38 36t27 -36l-24 -132q-8 -45 -8 -77q0 -88 47 -133.5t138 -45.5q106 0 176.5 67
t91.5 189l23 132q3 17 13.5 26.5t25.5 9.5q27 0 27 -26zM308 812q0 12 13 25l128 126q16 16 31 16t26 -16l83 -126q5 -7 5 -17q0 -16 -16 -26q-10 -6 -18 -6q-14 0 -25 18l-65 114l-106 -114q-16 -19 -32 -19q-7 0 -15 6q-9 9 -9 19z" />
    <glyph glyph-name="Ydieresis" unicode="&#x178;" horiz-adv-x="699" 
d="M714 684q0 -7 -1 -10l-24 -129q-25 -138 -107 -221t-202 -94l-36 -204q-3 -17 -13.5 -26.5t-25.5 -9.5q-26 0 -26 25q0 7 1 11l36 205q-96 10 -151 75.5t-55 169.5q0 33 6 69l23 129q6 36 38 36t27 -36l-24 -132q-8 -45 -8 -77q0 -88 47 -133.5t138 -45.5q106 0 176.5 67
t91.5 189l23 132q3 17 13.5 26.5t25.5 9.5q27 0 27 -26zM321.5 820q-11.5 11 -11.5 27q0 20 17.5 37t38.5 17q16 0 27 -11.5t11 -27.5q0 -20 -17 -36.5t-37 -16.5q-17 0 -28.5 11zM523.5 820q-11.5 11 -11.5 27q0 20 17.5 37t38.5 17q16 0 27 -11.5t11 -27.5
q0 -20 -17 -36.5t-38 -16.5q-16 0 -27.5 11z" />
    <glyph glyph-name="uni1E8E" unicode="&#x1e8e;" horiz-adv-x="699" 
d="M714 684q0 -7 -1 -10l-24 -129q-25 -138 -107 -221t-202 -94l-36 -204q-3 -17 -13.5 -26.5t-25.5 -9.5q-26 0 -26 25q0 7 1 11l36 205q-96 10 -151 75.5t-55 169.5q0 33 6 69l23 129q6 36 38 36t27 -36l-24 -132q-8 -45 -8 -77q0 -88 47 -133.5t138 -45.5q106 0 176.5 67
t91.5 189l23 132q3 17 13.5 26.5t25.5 9.5q27 0 27 -26zM420 818.5q-12 11.5 -12 28.5q0 20 18 37t40 17q16 0 27.5 -11.5t11.5 -27.5q0 -20 -17.5 -37.5t-38.5 -17.5q-17 0 -29 11.5z" />
    <glyph glyph-name="uni1EF4" unicode="&#x1ef4;" horiz-adv-x="699" 
d="M714 684q0 -7 -1 -10l-24 -129q-25 -138 -107 -221t-202 -94l-36 -204q-3 -17 -13.5 -26.5t-25.5 -9.5q-26 0 -26 25q0 7 1 11l36 205q-96 10 -151 75.5t-55 169.5q0 33 6 69l23 129q6 36 38 36t27 -36l-24 -132q-8 -45 -8 -77q0 -88 47 -133.5t138 -45.5q106 0 176.5 67
t91.5 189l23 132q3 17 13.5 26.5t25.5 9.5q27 0 27 -26zM246.5 -157q-11.5 11 -11.5 28q0 21 18 38t40 17q17 0 28.5 -11t11.5 -28q0 -21 -17 -38t-39 -17q-19 0 -30.5 11z" />
    <glyph glyph-name="Ygrave" unicode="&#x1ef2;" horiz-adv-x="699" 
d="M714 684q0 -7 -1 -10l-24 -129q-25 -138 -107 -221t-202 -94l-36 -204q-3 -17 -13.5 -26.5t-25.5 -9.5q-26 0 -26 25q0 7 1 11l36 205q-96 10 -151 75.5t-55 169.5q0 33 6 69l23 129q6 36 38 36t27 -36l-24 -132q-8 -45 -8 -77q0 -88 47 -133.5t138 -45.5q106 0 176.5 67
t91.5 189l23 132q3 17 13.5 26.5t25.5 9.5q27 0 27 -26zM449 789q-14 0 -20 15l-53 138q-3 8 -3 15q0 16 22 27q9 4 17 4q18 0 24 -26l39 -140q1 -3 1 -8q0 -16 -16 -23q-8 -2 -11 -2z" />
    <glyph glyph-name="uni1EF6" unicode="&#x1ef6;" horiz-adv-x="699" 
d="M714 684q0 -7 -1 -10l-24 -129q-25 -138 -107 -221t-202 -94l-36 -204q-3 -17 -13.5 -26.5t-25.5 -9.5q-26 0 -26 25q0 7 1 11l36 205q-96 10 -151 75.5t-55 169.5q0 33 6 69l23 129q6 36 38 36t27 -36l-24 -132q-8 -45 -8 -77q0 -88 47 -133.5t138 -45.5q106 0 176.5 67
t91.5 189l23 132q3 17 13.5 26.5t25.5 9.5q27 0 27 -26zM416 786l1 8q3 17 15 28.5t34 26.5q22 16 31.5 25.5t9.5 24.5q0 12 -9 19.5t-26 7.5q-37 0 -61 -27q-12 -14 -23 -14q-5 0 -11 3q-11 6 -11 16q0 7 7 16q16 21 46 36.5t64 15.5q41 0 61 -17.5t20 -45.5t-13.5 -44
t-38.5 -31q-18 -12 -26 -20t-9 -20l-1 -8q-6 -27 -36 -27q-27 0 -24 27z" />
    <glyph glyph-name="uni1EF8" unicode="&#x1ef8;" horiz-adv-x="699" 
d="M714 684q0 -7 -1 -10l-24 -129q-25 -138 -107 -221t-202 -94l-36 -204q-3 -17 -13.5 -26.5t-25.5 -9.5q-26 0 -26 25q0 7 1 11l36 205q-96 10 -151 75.5t-55 169.5q0 33 6 69l23 129q6 36 38 36t27 -36l-24 -132q-8 -45 -8 -77q0 -88 47 -133.5t138 -45.5q106 0 176.5 67
t91.5 189l23 132q3 17 13.5 26.5t25.5 9.5q27 0 27 -26zM289 821q0 8 4 17q14 34 42 55.5t62 21.5q25 0 41.5 -8.5t36.5 -24.5q15 -12 25.5 -18t23.5 -6q36 0 55 43q8 20 25 20q7 0 10 -1q13 -3 13 -16q0 -5 -4 -17q-14 -34 -43 -55t-62 -21q-21 0 -36.5 8t-34.5 23
q-18 13 -29.5 19.5t-26.5 6.5q-34 0 -54 -43q-9 -21 -26 -21q-6 0 -9 1q-13 4 -13 16z" />
    <glyph glyph-name="Z" unicode="Z" horiz-adv-x="711" 
d="M58.5 21.5q-24.5 21.5 -24.5 54.5q0 36 19 63.5t63 59.5l477 343q25 18 36.5 35t11.5 37q0 15 -9.5 23.5t-27.5 8.5h-416q-15 0 -23 6.5t-8 18.5q0 14 10.5 21.5t29.5 7.5h419q43 0 67 -20.5t24 -57.5q0 -34 -18 -61t-62 -59l-478 -344q-27 -20 -39 -35.5t-12 -36.5
q0 -14 10.5 -22.5t30.5 -8.5h442q15 0 23.5 -6t8.5 -16q0 -16 -11 -24.5t-31 -8.5h-448q-40 0 -64.5 21.5z" />
    <glyph glyph-name="Zacute" unicode="&#x179;" horiz-adv-x="711" 
d="M58.5 21.5q-24.5 21.5 -24.5 54.5q0 36 19 63.5t63 59.5l477 343q25 18 36.5 35t11.5 37q0 15 -9.5 23.5t-27.5 8.5h-416q-15 0 -23 6.5t-8 18.5q0 14 10.5 21.5t29.5 7.5h419q43 0 67 -20.5t24 -57.5q0 -34 -18 -61t-62 -59l-478 -344q-27 -20 -39 -35.5t-12 -36.5
q0 -14 10.5 -22.5t30.5 -8.5h442q15 0 23.5 -6t8.5 -16q0 -16 -11 -24.5t-31 -8.5h-448q-40 0 -64.5 21.5zM435 805q0 7 6 17l87 140q17 27 34 27q8 0 16 -5q14 -8 14 -19q0 -10 -10 -23l-102 -138q-12 -15 -26 -15q-3 0 -9 2q-10 4 -10 14z" />
    <glyph glyph-name="Zcaron" unicode="&#x17d;" horiz-adv-x="711" 
d="M58.5 21.5q-24.5 21.5 -24.5 54.5q0 36 19 63.5t63 59.5l477 343q25 18 36.5 35t11.5 37q0 15 -9.5 23.5t-27.5 8.5h-416q-15 0 -23 6.5t-8 18.5q0 14 10.5 21.5t29.5 7.5h419q43 0 67 -20.5t24 -57.5q0 -34 -18 -61t-62 -59l-478 -344q-27 -20 -39 -35.5t-12 -36.5
q0 -14 10.5 -22.5t30.5 -8.5h442q15 0 23.5 -6t8.5 -16q0 -16 -11 -24.5t-31 -8.5h-448q-40 0 -64.5 21.5zM429 803l-84 127q-5 6 -5 16q0 15 17 26q9 6 18 6q13 0 24 -18l65 -114l107 114q19 19 32 19q8 0 14 -6q10 -7 10 -19t-13 -25l-128 -126q-16 -16 -32 -16
q-14 0 -25 16z" />
    <glyph glyph-name="Zdotaccent" unicode="&#x17b;" horiz-adv-x="711" 
d="M58.5 21.5q-24.5 21.5 -24.5 54.5q0 36 19 63.5t63 59.5l477 343q25 18 36.5 35t11.5 37q0 15 -9.5 23.5t-27.5 8.5h-416q-15 0 -23 6.5t-8 18.5q0 14 10.5 21.5t29.5 7.5h419q43 0 67 -20.5t24 -57.5q0 -34 -18 -61t-62 -59l-478 -344q-27 -20 -39 -35.5t-12 -36.5
q0 -14 10.5 -22.5t30.5 -8.5h442q15 0 23.5 -6t8.5 -16q0 -16 -11 -24.5t-31 -8.5h-448q-40 0 -64.5 21.5zM429 818.5q-12 11.5 -12 28.5q0 20 18 37t40 17q16 0 27.5 -11.5t11.5 -27.5q0 -20 -17.5 -37.5t-38.5 -17.5q-17 0 -29 11.5z" />
    <glyph glyph-name="uni1E92" unicode="&#x1e92;" horiz-adv-x="711" 
d="M58.5 21.5q-24.5 21.5 -24.5 54.5q0 36 19 63.5t63 59.5l477 343q25 18 36.5 35t11.5 37q0 15 -9.5 23.5t-27.5 8.5h-416q-15 0 -23 6.5t-8 18.5q0 14 10.5 21.5t29.5 7.5h419q43 0 67 -20.5t24 -57.5q0 -34 -18 -61t-62 -59l-478 -344q-27 -20 -39 -35.5t-12 -36.5
q0 -14 10.5 -22.5t30.5 -8.5h442q15 0 23.5 -6t8.5 -16q0 -16 -11 -24.5t-31 -8.5h-448q-40 0 -64.5 21.5zM255.5 -157q-11.5 11 -11.5 28q0 21 18 38t40 17q17 0 28.5 -11t11.5 -28q0 -21 -17 -38t-39 -17q-19 0 -30.5 11z" />
    <glyph glyph-name="a" unicode="a" horiz-adv-x="586" 
d="M83 27.5q-50 37.5 -50 99.5q0 57 30 100t85.5 66.5t129.5 23.5q58 0 105.5 -17t67.5 -45l12 69q3 17 3 30q0 46 -33.5 68.5t-102.5 22.5q-48 0 -90 -11t-84 -35q-18 -9 -24 -9q-10 0 -16.5 6t-6.5 16q0 17 13 27q40 28 98 44.5t118 16.5q91 0 140 -38t49 -107
q0 -16 -3 -34l-51 -295q-7 -36 -37 -36q-12 0 -19 6.5t-7 19.5q0 6 1 9l8 41q-79 -76 -203 -76q-83 0 -133 37.5zM336 61.5q47 16.5 73.5 46t26.5 66.5q0 43 -43 66t-122 23q-82 0 -128.5 -35t-46.5 -97q0 -43 34 -64.5t100 -21.5q59 0 106 16.5z" />
    <glyph glyph-name="aacute" unicode="&#xe1;" horiz-adv-x="586" 
d="M83 27.5q-50 37.5 -50 99.5q0 57 30 100t85.5 66.5t129.5 23.5q58 0 105.5 -17t67.5 -45l12 69q3 17 3 30q0 46 -33.5 68.5t-102.5 22.5q-48 0 -90 -11t-84 -35q-18 -9 -24 -9q-10 0 -16.5 6t-6.5 16q0 17 13 27q40 28 98 44.5t118 16.5q91 0 140 -38t49 -107
q0 -16 -3 -34l-51 -295q-7 -36 -37 -36q-12 0 -19 6.5t-7 19.5q0 6 1 9l8 41q-79 -76 -203 -76q-83 0 -133 37.5zM336 61.5q47 16.5 73.5 46t26.5 66.5q0 43 -43 66t-122 23q-82 0 -128.5 -35t-46.5 -97q0 -43 34 -64.5t100 -21.5q59 0 106 16.5zM345 595q0 7 6 17l87 140
q17 27 34 27q8 0 16 -5q14 -8 14 -19q0 -10 -10 -23l-102 -138q-12 -15 -26 -15q-3 0 -9 2q-10 4 -10 14z" />
    <glyph glyph-name="abreve" unicode="&#x103;" horiz-adv-x="586" 
d="M83 27.5q-50 37.5 -50 99.5q0 57 30 100t85.5 66.5t129.5 23.5q58 0 105.5 -17t67.5 -45l12 69q3 17 3 30q0 46 -33.5 68.5t-102.5 22.5q-48 0 -90 -11t-84 -35q-18 -9 -24 -9q-10 0 -16.5 6t-6.5 16q0 17 13 27q40 28 98 44.5t118 16.5q91 0 140 -38t49 -107
q0 -16 -3 -34l-51 -295q-7 -36 -37 -36q-12 0 -19 6.5t-7 19.5q0 6 1 9l8 41q-79 -76 -203 -76q-83 0 -133 37.5zM336 61.5q47 16.5 73.5 46t26.5 66.5q0 43 -43 66t-122 23q-82 0 -128.5 -35t-46.5 -97q0 -43 34 -64.5t100 -21.5q59 0 106 16.5zM271 611.5
q-33 32.5 -33 82.5q0 63 38 63q24 0 24 -23q0 -52 4.5 -73t18 -27.5t48.5 -6.5q45 0 71.5 25.5t34.5 69.5q6 35 35 35q25 0 25 -23q0 -40 -25 -75.5t-65 -57.5t-84 -22q-59 0 -92 32.5z" />
    <glyph glyph-name="uni1EAF" unicode="&#x1eaf;" horiz-adv-x="586" 
d="M83 27.5q-50 37.5 -50 99.5q0 57 30 100t85.5 66.5t129.5 23.5q58 0 105.5 -17t67.5 -45l12 69q3 17 3 30q0 46 -33.5 68.5t-102.5 22.5q-48 0 -90 -11t-84 -35q-18 -9 -24 -9q-10 0 -16.5 6t-6.5 16q0 17 13 27q40 28 98 44.5t118 16.5q91 0 140 -38t49 -107
q0 -16 -3 -34l-51 -295q-7 -36 -37 -36q-12 0 -19 6.5t-7 19.5q0 6 1 9l8 41q-79 -76 -203 -76q-83 0 -133 37.5zM336 61.5q47 16.5 73.5 46t26.5 66.5q0 43 -43 66t-122 23q-82 0 -128.5 -35t-46.5 -97q0 -43 34 -64.5t100 -21.5q59 0 106 16.5zM361 718q0 8 8 18l79 102
q14 20 32 20q8 0 15 -4q12 -9 12 -19q0 -11 -11 -24l-94 -97q-11 -13 -22 -13q-6 0 -11 4q-8 5 -8 13zM266 598.5q-33 30.5 -33 72.5q0 51 36 51q25 0 25 -22q0 -37 5.5 -54t21 -23t48.5 -6q46 0 71.5 20.5t30.5 50.5q3 18 11 26t24 8q25 0 25 -22q0 -32 -23.5 -63t-63 -50
t-84.5 -19q-61 0 -94 30.5z" />
    <glyph glyph-name="uni1EB7" unicode="&#x1eb7;" horiz-adv-x="586" 
d="M83 27.5q-50 37.5 -50 99.5q0 57 30 100t85.5 66.5t129.5 23.5q58 0 105.5 -17t67.5 -45l12 69q3 17 3 30q0 46 -33.5 68.5t-102.5 22.5q-48 0 -90 -11t-84 -35q-18 -9 -24 -9q-10 0 -16.5 6t-6.5 16q0 17 13 27q40 28 98 44.5t118 16.5q91 0 140 -38t49 -107
q0 -16 -3 -34l-51 -295q-7 -36 -37 -36q-12 0 -19 6.5t-7 19.5q0 6 1 9l8 41q-79 -76 -203 -76q-83 0 -133 37.5zM336 61.5q47 16.5 73.5 46t26.5 66.5q0 43 -43 66t-122 23q-82 0 -128.5 -35t-46.5 -97q0 -43 34 -64.5t100 -21.5q59 0 106 16.5zM161.5 -157
q-11.5 11 -11.5 28q0 21 18 38t40 17q17 0 28.5 -11t11.5 -28q0 -21 -17 -38t-39 -17q-19 0 -30.5 11zM271 611.5q-33 32.5 -33 82.5q0 63 38 63q24 0 24 -23q0 -52 4.5 -73t18 -27.5t48.5 -6.5q45 0 71.5 25.5t34.5 69.5q6 35 35 35q25 0 25 -23q0 -40 -25 -75.5t-65 -57.5
t-84 -22q-59 0 -92 32.5z" />
    <glyph glyph-name="uni1EB1" unicode="&#x1eb1;" horiz-adv-x="586" 
d="M83 27.5q-50 37.5 -50 99.5q0 57 30 100t85.5 66.5t129.5 23.5q58 0 105.5 -17t67.5 -45l12 69q3 17 3 30q0 46 -33.5 68.5t-102.5 22.5q-48 0 -90 -11t-84 -35q-18 -9 -24 -9q-10 0 -16.5 6t-6.5 16q0 17 13 27q40 28 98 44.5t118 16.5q91 0 140 -38t49 -107
q0 -16 -3 -34l-51 -295q-7 -36 -37 -36q-12 0 -19 6.5t-7 19.5q0 6 1 9l8 41q-79 -76 -203 -76q-83 0 -133 37.5zM336 61.5q47 16.5 73.5 46t26.5 66.5q0 43 -43 66t-122 23q-82 0 -128.5 -35t-46.5 -97q0 -43 34 -64.5t100 -21.5q59 0 106 16.5zM389 701q-10 0 -18 13
l-58 97q-5 8 -5 16q0 17 19 26q10 5 18 5q16 0 24 -20l43 -102q2 -6 2 -11q0 -13 -13 -20q-7 -4 -12 -4zM267 598.5q-33 30.5 -33 72.5q0 51 36 51q25 0 25 -22q0 -37 5.5 -54t21 -23t48.5 -6q46 0 71.5 20.5t30.5 50.5q3 18 11 26t24 8q25 0 25 -22q0 -32 -23.5 -63
t-63 -50t-84.5 -19q-61 0 -94 30.5z" />
    <glyph glyph-name="uni1EB3" unicode="&#x1eb3;" horiz-adv-x="586" 
d="M83 27.5q-50 37.5 -50 99.5q0 57 30 100t85.5 66.5t129.5 23.5q58 0 105.5 -17t67.5 -45l12 69q3 17 3 30q0 46 -33.5 68.5t-102.5 22.5q-48 0 -90 -11t-84 -35q-18 -9 -24 -9q-10 0 -16.5 6t-6.5 16q0 17 13 27q40 28 98 44.5t118 16.5q91 0 140 -38t49 -107
q0 -16 -3 -34l-51 -295q-7 -36 -37 -36q-12 0 -19 6.5t-7 19.5q0 6 1 9l8 41q-79 -76 -203 -76q-83 0 -133 37.5zM336 61.5q47 16.5 73.5 46t26.5 66.5q0 43 -43 66t-122 23q-82 0 -128.5 -35t-46.5 -97q0 -43 34 -64.5t100 -21.5q59 0 106 16.5zM364 693q-5 6 -3 18l1 8
q2 17 13 28t31 24q20 14 28.5 22.5t8.5 21.5q0 25 -33 25q-18 0 -29.5 -5t-21.5 -16q-12 -13 -21 -13q-5 0 -11 3q-10 5 -10 15q0 8 6 15q16 19 41 31t57 12q38 0 55.5 -15.5t17.5 -40.5q0 -27 -12.5 -42t-34.5 -29q-16 -11 -23.5 -18.5t-8.5 -18.5l-1 -7q-3 -12 -10.5 -18
t-21.5 -6q-13 0 -18 6zM267 598.5q-33 30.5 -33 72.5q0 51 36 51q25 0 25 -22q0 -37 5.5 -54t21 -23t48.5 -6q46 0 71.5 20.5t30.5 50.5q3 18 11 26t24 8q25 0 25 -22q0 -32 -23.5 -63t-63 -50t-84.5 -19q-61 0 -94 30.5z" />
    <glyph glyph-name="uni1EB5" unicode="&#x1eb5;" horiz-adv-x="586" 
d="M83 27.5q-50 37.5 -50 99.5q0 57 30 100t85.5 66.5t129.5 23.5q58 0 105.5 -17t67.5 -45l12 69q3 17 3 30q0 46 -33.5 68.5t-102.5 22.5q-48 0 -90 -11t-84 -35q-18 -9 -24 -9q-10 0 -16.5 6t-6.5 16q0 17 13 27q40 28 98 44.5t118 16.5q91 0 140 -38t49 -107
q0 -16 -3 -34l-51 -295q-7 -36 -37 -36q-12 0 -19 6.5t-7 19.5q0 6 1 9l8 41q-79 -76 -203 -76q-83 0 -133 37.5zM336 61.5q47 16.5 73.5 46t26.5 66.5q0 43 -43 66t-122 23q-82 0 -128.5 -35t-46.5 -97q0 -43 34 -64.5t100 -21.5q59 0 106 16.5zM241 781q0 3 4 17
q11 32 39 52.5t60 20.5q23 0 39 -8t36 -24q15 -12 24.5 -17.5t21.5 -5.5q33 0 52 41q9 20 25 20q5 0 8 -1q13 -3 13 -15q0 -7 -4 -16q-11 -32 -39 -52.5t-60 -20.5q-21 0 -35 7.5t-32 22.5q-15 12 -27 18.5t-27 6.5q-17 0 -30 -11.5t-22 -30.5q-8 -19 -24 -19q-6 0 -9 1
q-13 3 -13 14zM267 598.5q-33 30.5 -33 72.5q0 51 36 51q25 0 25 -22q0 -37 5.5 -54t21 -23t48.5 -6q46 0 71.5 20.5t30.5 50.5q3 18 11 26t24 8q25 0 25 -22q0 -32 -23.5 -63t-63 -50t-84.5 -19q-61 0 -94 30.5z" />
    <glyph glyph-name="uni01CE" unicode="&#x1ce;" horiz-adv-x="586" 
d="M83 27.5q-50 37.5 -50 99.5q0 57 30 100t85.5 66.5t129.5 23.5q58 0 105.5 -17t67.5 -45l12 69q3 17 3 30q0 46 -33.5 68.5t-102.5 22.5q-48 0 -90 -11t-84 -35q-18 -9 -24 -9q-10 0 -16.5 6t-6.5 16q0 17 13 27q40 28 98 44.5t118 16.5q91 0 140 -38t49 -107
q0 -16 -3 -34l-51 -295q-7 -36 -37 -36q-12 0 -19 6.5t-7 19.5q0 6 1 9l8 41q-79 -76 -203 -76q-83 0 -133 37.5zM336 61.5q47 16.5 73.5 46t26.5 66.5q0 43 -43 66t-122 23q-82 0 -128.5 -35t-46.5 -97q0 -43 34 -64.5t100 -21.5q59 0 106 16.5zM339 593l-84 127
q-5 6 -5 16q0 15 17 26q9 6 18 6q13 0 24 -18l65 -114l107 114q19 19 32 19q8 0 14 -6q10 -7 10 -19t-13 -25l-128 -126q-16 -16 -32 -16q-14 0 -25 16z" />
    <glyph glyph-name="acircumflex" unicode="&#xe2;" horiz-adv-x="586" 
d="M83 27.5q-50 37.5 -50 99.5q0 57 30 100t85.5 66.5t129.5 23.5q58 0 105.5 -17t67.5 -45l12 69q3 17 3 30q0 46 -33.5 68.5t-102.5 22.5q-48 0 -90 -11t-84 -35q-18 -9 -24 -9q-10 0 -16.5 6t-6.5 16q0 17 13 27q40 28 98 44.5t118 16.5q91 0 140 -38t49 -107
q0 -16 -3 -34l-51 -295q-7 -36 -37 -36q-12 0 -19 6.5t-7 19.5q0 6 1 9l8 41q-79 -76 -203 -76q-83 0 -133 37.5zM336 61.5q47 16.5 73.5 46t26.5 66.5q0 43 -43 66t-122 23q-82 0 -128.5 -35t-46.5 -97q0 -43 34 -64.5t100 -21.5q59 0 106 16.5zM226 602q0 12 13 25
l128 126q16 16 31 16t26 -16l83 -126q5 -7 5 -17q0 -16 -16 -26q-10 -6 -18 -6q-14 0 -25 18l-65 114l-106 -114q-16 -19 -32 -19q-7 0 -15 6q-9 9 -9 19z" />
    <glyph glyph-name="uni1EA5" unicode="&#x1ea5;" horiz-adv-x="586" 
d="M83 27.5q-50 37.5 -50 99.5q0 57 30 100t85.5 66.5t129.5 23.5q58 0 105.5 -17t67.5 -45l12 69q3 17 3 30q0 46 -33.5 68.5t-102.5 22.5q-48 0 -90 -11t-84 -35q-18 -9 -24 -9q-10 0 -16.5 6t-6.5 16q0 17 13 27q40 28 98 44.5t118 16.5q91 0 140 -38t49 -107
q0 -16 -3 -34l-51 -295q-7 -36 -37 -36q-12 0 -19 6.5t-7 19.5q0 6 1 9l8 41q-79 -76 -203 -76q-83 0 -133 37.5zM336 61.5q47 16.5 73.5 46t26.5 66.5q0 43 -43 66t-122 23q-82 0 -128.5 -35t-46.5 -97q0 -43 34 -64.5t100 -21.5q59 0 106 16.5zM477 730q0 8 8 18l79 102
q17 20 32 20q8 0 16 -5q11 -7 11 -18q0 -10 -11 -23l-94 -98q-11 -13 -22 -13q-6 0 -11 4q-8 5 -8 13zM225 603q0 10 13 23l126 111q18 16 31 16q9 0 13.5 -3.5t12.5 -12.5l86 -110q6 -7 6 -16q0 -16 -18 -27q-9 -6 -17 -6q-13 0 -25 18l-68 98l-104 -99q-19 -17 -31 -17
q-9 0 -15 6q-10 9 -10 19z" />
    <glyph glyph-name="uni1EAD" unicode="&#x1ead;" horiz-adv-x="586" 
d="M83 27.5q-50 37.5 -50 99.5q0 57 30 100t85.5 66.5t129.5 23.5q58 0 105.5 -17t67.5 -45l12 69q3 17 3 30q0 46 -33.5 68.5t-102.5 22.5q-48 0 -90 -11t-84 -35q-18 -9 -24 -9q-10 0 -16.5 6t-6.5 16q0 17 13 27q40 28 98 44.5t118 16.5q91 0 140 -38t49 -107
q0 -16 -3 -34l-51 -295q-7 -36 -37 -36q-12 0 -19 6.5t-7 19.5q0 6 1 9l8 41q-79 -76 -203 -76q-83 0 -133 37.5zM336 61.5q47 16.5 73.5 46t26.5 66.5q0 43 -43 66t-122 23q-82 0 -128.5 -35t-46.5 -97q0 -43 34 -64.5t100 -21.5q59 0 106 16.5zM161.5 -157
q-11.5 11 -11.5 28q0 21 18 38t40 17q17 0 28.5 -11t11.5 -28q0 -21 -17 -38t-39 -17q-19 0 -30.5 11zM226 602q0 12 13 25l128 126q16 16 31 16t26 -16l83 -126q5 -7 5 -17q0 -16 -16 -26q-10 -6 -18 -6q-14 0 -25 18l-65 114l-106 -114q-16 -19 -32 -19q-7 0 -15 6
q-9 9 -9 19z" />
    <glyph glyph-name="uni1EA7" unicode="&#x1ea7;" horiz-adv-x="586" 
d="M83 27.5q-50 37.5 -50 99.5q0 57 30 100t85.5 66.5t129.5 23.5q58 0 105.5 -17t67.5 -45l12 69q3 17 3 30q0 46 -33.5 68.5t-102.5 22.5q-48 0 -90 -11t-84 -35q-18 -9 -24 -9q-10 0 -16.5 6t-6.5 16q0 17 13 27q40 28 98 44.5t118 16.5q91 0 140 -38t49 -107
q0 -16 -3 -34l-51 -295q-7 -36 -37 -36q-12 0 -19 6.5t-7 19.5q0 6 1 9l8 41q-79 -76 -203 -76q-83 0 -133 37.5zM336 61.5q47 16.5 73.5 46t26.5 66.5q0 43 -43 66t-122 23q-82 0 -128.5 -35t-46.5 -97q0 -43 34 -64.5t100 -21.5q59 0 106 16.5zM533 713q-12 0 -18 13
l-58 98q-5 8 -5 16q0 15 20 26q8 4 16 4q19 0 26 -20l42 -102q3 -6 3 -12q0 -12 -14 -20q-6 -3 -12 -3zM225 603q0 10 13 23l126 111q18 16 31 16q8 0 13.5 -3.5t12.5 -12.5l87 -110q6 -7 6 -15t-5 -15.5t-14 -12.5q-9 -6 -17 -6q-13 0 -25 18l-68 98l-104 -99
q-19 -17 -31 -17q-9 0 -15 6q-10 9 -10 19z" />
    <glyph glyph-name="uni1EA9" unicode="&#x1ea9;" horiz-adv-x="586" 
d="M83 27.5q-50 37.5 -50 99.5q0 57 30 100t85.5 66.5t129.5 23.5q58 0 105.5 -17t67.5 -45l12 69q3 17 3 30q0 46 -33.5 68.5t-102.5 22.5q-48 0 -90 -11t-84 -35q-18 -9 -24 -9q-10 0 -16.5 6t-6.5 16q0 17 13 27q40 28 98 44.5t118 16.5q91 0 140 -38t49 -107
q0 -16 -3 -34l-51 -295q-7 -36 -37 -36q-12 0 -19 6.5t-7 19.5q0 6 1 9l8 41q-79 -76 -203 -76q-83 0 -133 37.5zM336 61.5q47 16.5 73.5 46t26.5 66.5q0 43 -43 66t-122 23q-82 0 -128.5 -35t-46.5 -97q0 -43 34 -64.5t100 -21.5q59 0 106 16.5zM467 733l2 8q3 15 14 26
t30 24q18 13 27.5 23t9.5 23q0 24 -33 24q-18 0 -30 -5t-23 -17q-11 -11 -20 -11q-5 0 -11 3q-10 5 -10 14q0 8 7 15q15 20 40 32t57 12q38 0 56 -16t18 -41q0 -27 -12 -41.5t-36 -29.5q-15 -9 -23 -17t-10 -19l-1 -7q-3 -24 -30 -24q-28 0 -22 24zM225 603q0 10 13 23
l126 111q18 16 31 16q8 0 13.5 -3.5t12.5 -12.5l87 -110q6 -7 6 -15t-5 -15.5t-14 -12.5q-9 -6 -17 -6q-13 0 -25 18l-68 98l-104 -99q-19 -17 -31 -17q-9 0 -15 6q-10 9 -10 19z" />
    <glyph glyph-name="uni1EAB" unicode="&#x1eab;" horiz-adv-x="586" 
d="M83 27.5q-50 37.5 -50 99.5q0 57 30 100t85.5 66.5t129.5 23.5q58 0 105.5 -17t67.5 -45l12 69q3 17 3 30q0 46 -33.5 68.5t-102.5 22.5q-48 0 -90 -11t-84 -35q-18 -9 -24 -9q-10 0 -16.5 6t-6.5 16q0 17 13 27q40 28 98 44.5t118 16.5q91 0 140 -38t49 -107
q0 -16 -3 -34l-51 -295q-7 -36 -37 -36q-12 0 -19 6.5t-7 19.5q0 6 1 9l8 41q-79 -76 -203 -76q-83 0 -133 37.5zM336 61.5q47 16.5 73.5 46t26.5 66.5q0 43 -43 66t-122 23q-82 0 -128.5 -35t-46.5 -97q0 -43 34 -64.5t100 -21.5q59 0 106 16.5zM252 785q0 8 4 16
q12 33 39.5 53t59.5 20q23 0 39.5 -8.5t34.5 -23.5q15 -12 25 -17.5t22 -5.5q34 0 52 42q9 19 25 19q6 0 9 -1q12 -3 12 -14q0 -9 -4 -18q-11 -31 -39 -51.5t-60 -20.5q-21 0 -35.5 7.5t-32.5 22.5q-16 13 -27 19t-26 6q-16 0 -29.5 -11t-21.5 -28q-6 -12 -11.5 -17
t-13.5 -5q-2 0 -10 2q-12 3 -12 14zM225 603q0 12 13 24l125 111q7 6 15 11t16 5q17 0 26 -16l86 -111q6 -7 6 -16q0 -15 -17 -27q-9 -6 -17 -6q-13 0 -25 18l-69 99l-103 -99q-17 -17 -31 -17q-9 0 -16 6q-9 8 -9 18z" />
    <glyph glyph-name="adieresis" unicode="&#xe4;" horiz-adv-x="586" 
d="M83 27.5q-50 37.5 -50 99.5q0 57 30 100t85.5 66.5t129.5 23.5q58 0 105.5 -17t67.5 -45l12 69q3 17 3 30q0 46 -33.5 68.5t-102.5 22.5q-48 0 -90 -11t-84 -35q-18 -9 -24 -9q-10 0 -16.5 6t-6.5 16q0 17 13 27q40 28 98 44.5t118 16.5q91 0 140 -38t49 -107
q0 -16 -3 -34l-51 -295q-7 -36 -37 -36q-12 0 -19 6.5t-7 19.5q0 6 1 9l8 41q-79 -76 -203 -76q-83 0 -133 37.5zM336 61.5q47 16.5 73.5 46t26.5 66.5q0 43 -43 66t-122 23q-82 0 -128.5 -35t-46.5 -97q0 -43 34 -64.5t100 -21.5q59 0 106 16.5zM239.5 610
q-11.5 11 -11.5 27q0 20 17.5 37t38.5 17q16 0 27 -11.5t11 -27.5q0 -20 -17 -36.5t-37 -16.5q-17 0 -28.5 11zM441.5 610q-11.5 11 -11.5 27q0 20 17.5 37t38.5 17q16 0 27 -11.5t11 -27.5q0 -20 -17 -36.5t-38 -16.5q-16 0 -27.5 11z" />
    <glyph glyph-name="uni1EA1" unicode="&#x1ea1;" horiz-adv-x="586" 
d="M83 27.5q-50 37.5 -50 99.5q0 57 30 100t85.5 66.5t129.5 23.5q58 0 105.5 -17t67.5 -45l12 69q3 17 3 30q0 46 -33.5 68.5t-102.5 22.5q-48 0 -90 -11t-84 -35q-18 -9 -24 -9q-10 0 -16.5 6t-6.5 16q0 17 13 27q40 28 98 44.5t118 16.5q91 0 140 -38t49 -107
q0 -16 -3 -34l-51 -295q-7 -36 -37 -36q-12 0 -19 6.5t-7 19.5q0 6 1 9l8 41q-79 -76 -203 -76q-83 0 -133 37.5zM336 61.5q47 16.5 73.5 46t26.5 66.5q0 43 -43 66t-122 23q-82 0 -128.5 -35t-46.5 -97q0 -43 34 -64.5t100 -21.5q59 0 106 16.5zM161.5 -157
q-11.5 11 -11.5 28q0 21 18 38t40 17q17 0 28.5 -11t11.5 -28q0 -21 -17 -38t-39 -17q-19 0 -30.5 11z" />
    <glyph glyph-name="agrave" unicode="&#xe0;" horiz-adv-x="586" 
d="M83 27.5q-50 37.5 -50 99.5q0 57 30 100t85.5 66.5t129.5 23.5q58 0 105.5 -17t67.5 -45l12 69q3 17 3 30q0 46 -33.5 68.5t-102.5 22.5q-48 0 -90 -11t-84 -35q-18 -9 -24 -9q-10 0 -16.5 6t-6.5 16q0 17 13 27q40 28 98 44.5t118 16.5q91 0 140 -38t49 -107
q0 -16 -3 -34l-51 -295q-7 -36 -37 -36q-12 0 -19 6.5t-7 19.5q0 6 1 9l8 41q-79 -76 -203 -76q-83 0 -133 37.5zM336 61.5q47 16.5 73.5 46t26.5 66.5q0 43 -43 66t-122 23q-82 0 -128.5 -35t-46.5 -97q0 -43 34 -64.5t100 -21.5q59 0 106 16.5zM368 579q-14 0 -20 15
l-53 138q-3 8 -3 15q0 16 22 27q9 4 17 4q18 0 24 -26l39 -140q1 -3 1 -8q0 -16 -16 -23q-8 -2 -11 -2z" />
    <glyph glyph-name="uni1EA3" unicode="&#x1ea3;" horiz-adv-x="586" 
d="M83 27.5q-50 37.5 -50 99.5q0 57 30 100t85.5 66.5t129.5 23.5q58 0 105.5 -17t67.5 -45l12 69q3 17 3 30q0 46 -33.5 68.5t-102.5 22.5q-48 0 -90 -11t-84 -35q-18 -9 -24 -9q-10 0 -16.5 6t-6.5 16q0 17 13 27q40 28 98 44.5t118 16.5q91 0 140 -38t49 -107
q0 -16 -3 -34l-51 -295q-7 -36 -37 -36q-12 0 -19 6.5t-7 19.5q0 6 1 9l8 41q-79 -76 -203 -76q-83 0 -133 37.5zM336 61.5q47 16.5 73.5 46t26.5 66.5q0 43 -43 66t-122 23q-82 0 -128.5 -35t-46.5 -97q0 -43 34 -64.5t100 -21.5q59 0 106 16.5zM335 576l1 8q3 17 15 28.5
t34 26.5q22 16 31.5 25.5t9.5 24.5q0 12 -9 19.5t-26 7.5q-37 0 -61 -27q-12 -14 -23 -14q-5 0 -11 3q-11 6 -11 16q0 7 7 16q16 21 46 36.5t64 15.5q41 0 61 -17.5t20 -45.5t-13.5 -44t-38.5 -31q-18 -12 -26 -20t-9 -20l-1 -8q-6 -27 -36 -27q-27 0 -24 27z" />
    <glyph glyph-name="uni0251" unicode="&#x251;" horiz-adv-x="685" 
d="M111.5 44q-62.5 54 -62.5 146q0 89 41.5 160t115 110.5t166.5 39.5q134 0 202 -106q10 35 30 76q16 31 38 31q14 0 22 -6t8 -16q0 -8 -6 -19q-28 -56 -36 -100l-42 -239q-3 -16 -3 -35q0 -23 5 -58q1 -18 -8.5 -28t-26.5 -10q-23 0 -29 31q-5 26 -3 77
q-93 -108 -242 -108q-107 0 -169.5 54zM425.5 76q58.5 30 91.5 83.5t33 122.5q0 73 -51.5 118t-134.5 45q-73 0 -130 -32.5t-89.5 -89.5t-32.5 -130q0 -72 46 -109.5t134 -37.5q75 0 133.5 30z" />
    <glyph glyph-name="amacron" unicode="&#x101;" horiz-adv-x="586" 
d="M83 27.5q-50 37.5 -50 99.5q0 57 30 100t85.5 66.5t129.5 23.5q58 0 105.5 -17t67.5 -45l12 69q3 17 3 30q0 46 -33.5 68.5t-102.5 22.5q-48 0 -90 -11t-84 -35q-18 -9 -24 -9q-10 0 -16.5 6t-6.5 16q0 17 13 27q40 28 98 44.5t118 16.5q91 0 140 -38t49 -107
q0 -16 -3 -34l-51 -295q-7 -36 -37 -36q-12 0 -19 6.5t-7 19.5q0 6 1 9l8 41q-79 -76 -203 -76q-83 0 -133 37.5zM336 61.5q47 16.5 73.5 46t26.5 66.5q0 43 -43 66t-122 23q-82 0 -128.5 -35t-46.5 -97q0 -43 34 -64.5t100 -21.5q59 0 106 16.5zM215 599q0 16 9.5 22.5
t27.5 6.5h243q14 0 21.5 -3.5t7.5 -13.5q0 -30 -37 -30h-243q-29 0 -29 18z" />
    <glyph glyph-name="aogonek" unicode="&#x105;" horiz-adv-x="586" 
d="M373.5 -69q-24.5 -26 -24.5 -58q0 -16 11.5 -25.5t33.5 -9.5q32 0 60 21q10 8 18 8t13 -7q4 -5 4 -12q0 -12 -12 -21q-21 -18 -43 -26.5t-50 -8.5q-42 0 -66 20t-24 51q0 75 116 153q0 6 1 9l8 41q-79 -76 -203 -76q-83 0 -133 37.5t-50 99.5q0 57 30 100t85.5 66.5
t129.5 23.5q58 0 105.5 -17t67.5 -45l12 69q3 17 3 30q0 46 -33.5 68.5t-102.5 22.5q-48 0 -90 -11t-84 -35q-18 -9 -24 -9q-10 0 -16.5 6t-6.5 16q0 17 13 27q40 28 98 44.5t118 16.5q91 0 140 -38t49 -107q0 -16 -3 -34l-51 -295q-6 -29 -26 -35q-49 -34 -73.5 -60z
M336 61.5q47 16.5 73.5 46t26.5 66.5q0 43 -43 66t-122 23q-82 0 -128.5 -35t-46.5 -97q0 -43 34 -64.5t100 -21.5q59 0 106 16.5z" />
    <glyph glyph-name="aring" unicode="&#xe5;" horiz-adv-x="586" 
d="M83 27.5q-50 37.5 -50 99.5q0 57 30 100t85.5 66.5t129.5 23.5q58 0 105.5 -17t67.5 -45l12 69q3 17 3 30q0 46 -33.5 68.5t-102.5 22.5q-48 0 -90 -11t-84 -35q-18 -9 -24 -9q-10 0 -16.5 6t-6.5 16q0 17 13 27q40 28 98 44.5t118 16.5q91 0 140 -38t49 -107
q0 -16 -3 -34l-51 -295q-7 -36 -37 -36q-12 0 -19 6.5t-7 19.5q0 6 1 9l8 41q-79 -76 -203 -76q-83 0 -133 37.5zM336 61.5q47 16.5 73.5 46t26.5 66.5q0 43 -43 66t-122 23q-82 0 -128.5 -35t-46.5 -97q0 -43 34 -64.5t100 -21.5q59 0 106 16.5zM290 569q-26 23 -26 59
q0 32 17.5 59.5t48 43.5t66.5 16q43 0 68.5 -23t25.5 -59q0 -32 -17.5 -59.5t-47.5 -43.5t-65 -16q-44 0 -70 23zM421.5 607.5q21.5 20.5 21.5 51.5q0 22 -14.5 35t-39.5 13q-33 0 -54.5 -20.5t-21.5 -52.5q0 -22 15 -34.5t40 -12.5q32 0 53.5 20.5z" />
    <glyph glyph-name="aringacute" unicode="&#x1fb;" horiz-adv-x="586" 
d="M376 792q0 5 6 13l88 112q18 21 34 21q8 0 15 -4q14 -6 14 -16q0 -9 -9 -18l-103 -110q-10 -12 -25 -12q-4 0 -10 2q-10 4 -10 12zM289.5 569q-25.5 23 -25.5 59q0 32 17.5 59.5t48 43.5t65.5 16q44 0 69 -23t25 -59q0 -32 -17.5 -59.5t-47 -43.5t-64.5 -16
q-45 0 -70.5 23zM421 607.5q22 20.5 22 51.5q0 22 -14.5 35t-40.5 13q-32 0 -53.5 -21t-21.5 -52q0 -22 14.5 -34.5t39.5 -12.5q32 0 54 20.5zM83 27.5q-50 37.5 -50 99.5q0 57 30 100t85.5 66.5t129.5 23.5q58 0 105.5 -17t67.5 -45l12 69q3 17 3 30q0 46 -33.5 68.5
t-102.5 22.5q-48 0 -90 -11t-84 -35q-18 -9 -24 -9q-10 0 -16.5 6t-6.5 16q0 17 13 27q40 28 98 44.5t118 16.5q91 0 140 -38t49 -107q0 -16 -3 -34l-51 -295q-7 -36 -37 -36q-12 0 -19 6.5t-7 19.5q0 6 1 9l8 41q-79 -76 -203 -76q-83 0 -133 37.5zM336 61.5
q47 16.5 73.5 46t26.5 66.5q0 43 -43 66t-122 23q-82 0 -128.5 -35t-46.5 -97q0 -43 34 -64.5t100 -21.5q59 0 106 16.5z" />
    <glyph glyph-name="atilde" unicode="&#xe3;" horiz-adv-x="586" 
d="M83 27.5q-50 37.5 -50 99.5q0 57 30 100t85.5 66.5t129.5 23.5q58 0 105.5 -17t67.5 -45l12 69q3 17 3 30q0 46 -33.5 68.5t-102.5 22.5q-48 0 -90 -11t-84 -35q-18 -9 -24 -9q-10 0 -16.5 6t-6.5 16q0 17 13 27q40 28 98 44.5t118 16.5q91 0 140 -38t49 -107
q0 -16 -3 -34l-51 -295q-7 -36 -37 -36q-12 0 -19 6.5t-7 19.5q0 6 1 9l8 41q-79 -76 -203 -76q-83 0 -133 37.5zM336 61.5q47 16.5 73.5 46t26.5 66.5q0 43 -43 66t-122 23q-82 0 -128.5 -35t-46.5 -97q0 -43 34 -64.5t100 -21.5q59 0 106 16.5zM208 611q0 8 4 17
q14 34 42 55.5t62 21.5q25 0 41.5 -8.5t36.5 -24.5q15 -12 25.5 -18t23.5 -6q36 0 55 43q8 20 25 20q7 0 10 -1q13 -3 13 -16q0 -5 -4 -17q-14 -34 -43 -55t-62 -21q-21 0 -36.5 8t-34.5 23q-18 13 -29.5 19.5t-26.5 6.5q-34 0 -54 -43q-9 -21 -26 -21q-6 0 -9 1
q-13 4 -13 16z" />
    <glyph glyph-name="ae" unicode="&#xe6;" horiz-adv-x="1013" 
d="M82 27.5q-49 37.5 -49 101.5q0 58 31 103t86.5 70.5t126.5 25.5q58 0 103.5 -16t67.5 -46l8 42q3 12 3 25q0 50 -36 81t-95 31q-45 0 -86 -11.5t-88 -37.5q-14 -7 -22 -7q-11 0 -20 10q-5 7 -5 16q0 14 13 23q43 29 100.5 45.5t114.5 16.5q64 0 110 -30.5t60 -82.5
q38 53 102.5 83t139.5 30q67 0 119 -21.5t81 -60t29 -87.5q0 -51 -27 -81t-73 -30h-373q-3 -16 -3 -38q0 -65 45 -100t129 -35q59 0 104.5 14.5t89.5 47.5q18 15 29 15q8 0 15 -7q8 -8 8 -17q0 -13 -13 -23q-48 -43 -109.5 -64.5t-132.5 -21.5q-70 0 -124 27.5t-79 75.5
q-85 -104 -247 -104q-84 0 -133 37.5zM867 272q24 0 35 13t11 46q0 54 -46 84t-129 30q-89 0 -149 -46t-74 -127h352zM333 62.5q47 17.5 73.5 49t26.5 70.5q0 44 -42 68t-121 24t-126 -38t-47 -101q0 -44 33.5 -67t97.5 -23q58 0 105 17.5z" />
    <glyph glyph-name="aeacute" unicode="&#x1fd;" horiz-adv-x="1013" 
d="M82 27.5q-49 37.5 -49 101.5q0 58 31 103t86.5 70.5t126.5 25.5q58 0 103.5 -16t67.5 -46l8 42q3 12 3 25q0 50 -36 81t-95 31q-45 0 -86 -11.5t-88 -37.5q-14 -7 -22 -7q-11 0 -20 10q-5 7 -5 16q0 14 13 23q43 29 100.5 45.5t114.5 16.5q64 0 110 -30.5t60 -82.5
q38 53 102.5 83t139.5 30q67 0 119 -21.5t81 -60t29 -87.5q0 -51 -27 -81t-73 -30h-373q-3 -16 -3 -38q0 -65 45 -100t129 -35q59 0 104.5 14.5t89.5 47.5q18 15 29 15q8 0 15 -7q8 -8 8 -17q0 -13 -13 -23q-48 -43 -109.5 -64.5t-132.5 -21.5q-70 0 -124 27.5t-79 75.5
q-85 -104 -247 -104q-84 0 -133 37.5zM867 272q24 0 35 13t11 46q0 54 -46 84t-129 30q-89 0 -149 -46t-74 -127h352zM333 62.5q47 17.5 73.5 49t26.5 70.5q0 44 -42 68t-121 24t-126 -38t-47 -101q0 -44 33.5 -67t97.5 -23q58 0 105 17.5zM533 595q0 7 6 17l87 140
q17 27 34 27q8 0 16 -5q14 -8 14 -19q0 -10 -10 -23l-102 -138q-12 -15 -26 -15q-3 0 -9 2q-10 4 -10 14z" />
    <glyph glyph-name="b" unicode="b" horiz-adv-x="680" 
d="M41 16q0 6 1 10l122 697q8 36 38 36q14 0 20.5 -10t4.5 -26l-57 -328q99 105 238 105q105 0 166 -54t61 -148q0 -90 -40 -160t-111.5 -109t-164.5 -39q-70 0 -122.5 28.5t-79.5 80.5l-13 -73q-3 -17 -13 -26.5t-25 -9.5q-25 0 -25 26zM454.5 77q55.5 31 86 87t30.5 130
q0 73 -45.5 112t-130.5 39q-70 0 -129 -32t-93 -87.5t-34 -121.5q0 -74 49 -116t137 -42q74 0 129.5 31z" />
    <glyph glyph-name="c" unicode="c" horiz-adv-x="594" 
d="M158.5 15.5q-52.5 25.5 -81.5 73.5t-29 115q0 86 38.5 153t108.5 105t161 38q76 0 130 -22t77 -59q4 -7 4 -15q0 -15 -15 -26q-10 -7 -17 -7q-13 0 -24 15q-22 28 -57.5 43.5t-98.5 15.5q-73 0 -128.5 -31t-85.5 -85.5t-30 -123.5q0 -78 45 -118.5t131 -40.5
q55 0 96.5 15.5t78.5 46.5q15 13 28 13q10 0 18 -7q9 -7 9 -17q0 -11 -15 -26q-43 -38 -100.5 -59.5t-123.5 -21.5q-67 0 -119.5 25.5z" />
    <glyph glyph-name="cacute" unicode="&#x107;" horiz-adv-x="594" 
d="M158.5 15.5q-52.5 25.5 -81.5 73.5t-29 115q0 86 38.5 153t108.5 105t161 38q76 0 130 -22t77 -59q4 -7 4 -15q0 -15 -15 -26q-10 -7 -17 -7q-13 0 -24 15q-22 28 -57.5 43.5t-98.5 15.5q-73 0 -128.5 -31t-85.5 -85.5t-30 -123.5q0 -78 45 -118.5t131 -40.5
q55 0 96.5 15.5t78.5 46.5q15 13 28 13q10 0 18 -7q9 -7 9 -17q0 -11 -15 -26q-43 -38 -100.5 -59.5t-123.5 -21.5q-67 0 -119.5 25.5zM361 595q0 7 6 17l87 140q17 27 34 27q8 0 16 -5q14 -8 14 -19q0 -10 -10 -23l-102 -138q-12 -15 -26 -15q-3 0 -9 2q-10 4 -10 14z" />
    <glyph glyph-name="ccaron" unicode="&#x10d;" horiz-adv-x="594" 
d="M158.5 15.5q-52.5 25.5 -81.5 73.5t-29 115q0 86 38.5 153t108.5 105t161 38q76 0 130 -22t77 -59q4 -7 4 -15q0 -15 -15 -26q-10 -7 -17 -7q-13 0 -24 15q-22 28 -57.5 43.5t-98.5 15.5q-73 0 -128.5 -31t-85.5 -85.5t-30 -123.5q0 -78 45 -118.5t131 -40.5
q55 0 96.5 15.5t78.5 46.5q15 13 28 13q10 0 18 -7q9 -7 9 -17q0 -11 -15 -26q-43 -38 -100.5 -59.5t-123.5 -21.5q-67 0 -119.5 25.5zM355 593l-84 127q-5 6 -5 16q0 15 17 26q9 6 18 6q13 0 24 -18l65 -114l107 114q19 19 32 19q8 0 14 -6q10 -7 10 -19t-13 -25l-128 -126
q-16 -16 -32 -16q-14 0 -25 16z" />
    <glyph glyph-name="ccedilla" unicode="&#xe7;" horiz-adv-x="594" 
d="M567 404q0 -15 -15 -26q-10 -7 -17 -7q-13 0 -24 15q-22 28 -57.5 43.5t-98.5 15.5q-73 0 -128.5 -31t-85.5 -85.5t-30 -123.5q0 -78 45 -118.5t131 -40.5q55 0 96.5 15.5t78.5 46.5q15 13 28 13q10 0 18 -7q9 -7 9 -17q0 -11 -15 -26q-38 -34 -89.5 -55t-111.5 -25
l-2 -3l-32 -47q35 1 53 -14t18 -40q0 -42 -32 -69.5t-79 -27.5q-32 0 -56 14.5t-34 34.5q-4 8 -4 12q0 10 13 20q8 5 15 5q10 0 15 -11q17 -30 58 -30q23 0 38 13t15 35q0 28 -32 28q-8 0 -13 -1q-13 -2 -21 3.5t-8 16.5q0 7 5 15l30 46q-91 8 -145.5 64.5t-54.5 148.5
q0 86 38.5 153t108.5 105t161 38q76 0 130 -22t77 -59q4 -7 4 -15z" />
    <glyph glyph-name="ccircumflex" unicode="&#x109;" horiz-adv-x="594" 
d="M158.5 15.5q-52.5 25.5 -81.5 73.5t-29 115q0 86 38.5 153t108.5 105t161 38q76 0 130 -22t77 -59q4 -7 4 -15q0 -15 -15 -26q-10 -7 -17 -7q-13 0 -24 15q-22 28 -57.5 43.5t-98.5 15.5q-73 0 -128.5 -31t-85.5 -85.5t-30 -123.5q0 -78 45 -118.5t131 -40.5
q55 0 96.5 15.5t78.5 46.5q15 13 28 13q10 0 18 -7q9 -7 9 -17q0 -11 -15 -26q-43 -38 -100.5 -59.5t-123.5 -21.5q-67 0 -119.5 25.5zM242 602q0 12 13 25l128 126q16 16 31 16t26 -16l83 -126q5 -7 5 -17q0 -16 -16 -26q-10 -6 -18 -6q-14 0 -25 18l-65 114l-106 -114
q-16 -19 -32 -19q-7 0 -15 6q-9 9 -9 19z" />
    <glyph glyph-name="cdotaccent" unicode="&#x10b;" horiz-adv-x="594" 
d="M158.5 15.5q-52.5 25.5 -81.5 73.5t-29 115q0 86 38.5 153t108.5 105t161 38q76 0 130 -22t77 -59q4 -7 4 -15q0 -15 -15 -26q-10 -7 -17 -7q-13 0 -24 15q-22 28 -57.5 43.5t-98.5 15.5q-73 0 -128.5 -31t-85.5 -85.5t-30 -123.5q0 -78 45 -118.5t131 -40.5
q55 0 96.5 15.5t78.5 46.5q15 13 28 13q10 0 18 -7q9 -7 9 -17q0 -11 -15 -26q-43 -38 -100.5 -59.5t-123.5 -21.5q-67 0 -119.5 25.5zM355 608.5q-12 11.5 -12 28.5q0 20 18 37t40 17q16 0 27.5 -11.5t11.5 -27.5q0 -20 -17.5 -37.5t-38.5 -17.5q-17 0 -29 11.5z" />
    <glyph glyph-name="d" unicode="d" horiz-adv-x="680" 
d="M106 43q-60 53 -60 153q0 83 41 153t113.5 110.5t162.5 40.5q69 0 117.5 -27t83.5 -86l59 336q8 36 38 36q25 0 25 -25q0 -7 -1 -11l-122 -697q-7 -36 -37 -36q-13 0 -19.5 7t-6.5 19q0 7 1 10l12 73q-46 -56 -104.5 -82.5t-133.5 -26.5q-109 0 -169 53zM420.5 77.5
q59.5 31.5 90.5 84t31 113.5q0 79 -51 124.5t-135 45.5q-71 0 -127.5 -32.5t-88 -89t-31.5 -124.5q0 -153 171 -153q81 0 140.5 31.5z" />
    <glyph glyph-name="eth" unicode="&#xf0;" horiz-adv-x="650" 
d="M636.5 718q6.5 -6 6.5 -14q0 -12 -13 -23l-74 -65q66 -74 66 -185q0 -125 -46.5 -225.5t-128 -158t-182.5 -57.5q-98 0 -157 53.5t-59 143.5q0 81 38 145.5t105 100.5t152 36q75 0 130 -36t80 -101l2 1q9 56 9 95q0 48 -13 84.5t-40 65.5l-62 -55q-11 -9 -23 -9
q-8 0 -14 6t-6 14q0 13 12 23l58 51q-37 27 -108 54q-14 6 -14 18q0 5 8 21q10 14 25 14q11 0 22 -5q69 -28 113 -63l78 68q11 9 20 9t15.5 -6zM392 76q55 29 87.5 78.5t32.5 106.5q0 67 -49 109t-126 42q-66 0 -117 -28.5t-79 -80t-28 -117.5q0 -68 41 -103.5t119 -35.5
q64 0 119 29z" />
    <glyph glyph-name="dcaron" unicode="&#x10f;" horiz-adv-x="778" 
d="M108 43q-60 53 -60 153q0 83 41 153t113.5 110.5t162.5 40.5q69 0 117.5 -27t83.5 -86l59 336q8 36 38 36q25 0 25 -25q0 -7 -1 -11l-122 -697q-7 -36 -37 -36q-13 0 -19.5 7t-6.5 19q0 7 1 10l12 73q-46 -56 -104.5 -82.5t-133.5 -26.5q-109 0 -169 53zM422.5 77.5
q59.5 31.5 90.5 84t31 113.5q0 79 -51 124.5t-135 45.5q-71 0 -127.5 -32.5t-88 -89t-31.5 -124.5q0 -153 171 -153q81 0 140.5 31.5zM717 547q0 10 21 25q63 46 70 80q-5 -2 -15 -2q-17 0 -29.5 11.5t-12.5 28.5q0 26 20 44t49 18q23 0 35.5 -13.5t12.5 -38.5
q0 -38 -26 -77t-75 -75q-25 -18 -35 -18q-8 0 -12 7q-3 6 -3 10z" />
    <glyph glyph-name="dcroat" unicode="&#x111;" horiz-adv-x="730" 
d="M754.5 624q7.5 -6 5.5 -21q-5 -26 -39 -26h-61l-96 -551q-7 -36 -37 -36q-13 0 -19.5 7t-6.5 19q0 7 1 10l12 73q-46 -56 -104.5 -82.5t-133.5 -26.5q-109 0 -169 53t-60 153q0 83 41 153t113.5 110.5t162.5 40.5q69 0 117.5 -27t83.5 -86l33 190h-128q-35 0 -30 26
q3 15 12.5 21t26.5 6h129l16 93q8 36 38 36q25 0 25 -25q0 -7 -1 -11l-16 -93h60q17 0 24.5 -6zM421.5 77.5q59.5 31.5 90.5 84t31 113.5q0 79 -51 124.5t-135 45.5q-71 0 -127.5 -32.5t-88 -89t-31.5 -124.5q0 -153 171 -153q81 0 140.5 31.5z" />
    <glyph glyph-name="uni1E0D" unicode="&#x1e0d;" horiz-adv-x="680" 
d="M106 43q-60 53 -60 153q0 83 41 153t113.5 110.5t162.5 40.5q69 0 117.5 -27t83.5 -86l59 336q8 36 38 36q25 0 25 -25q0 -7 -1 -11l-122 -697q-7 -36 -37 -36q-13 0 -19.5 7t-6.5 19q0 7 1 10l12 73q-46 -56 -104.5 -82.5t-133.5 -26.5q-109 0 -169 53zM420.5 77.5
q59.5 31.5 90.5 84t31 113.5q0 79 -51 124.5t-135 45.5q-71 0 -127.5 -32.5t-88 -89t-31.5 -124.5q0 -153 171 -153q81 0 140.5 31.5zM234.5 -157q-11.5 11 -11.5 28q0 21 18 38t40 17q17 0 28.5 -11t11.5 -28q0 -21 -17 -38t-39 -17q-19 0 -30.5 11z" />
    <glyph glyph-name="uni1E0F" unicode="&#x1e0f;" horiz-adv-x="680" 
d="M106 43q-60 53 -60 153q0 83 41 153t113.5 110.5t162.5 40.5q69 0 117.5 -27t83.5 -86l59 336q8 36 38 36q25 0 25 -25q0 -7 -1 -11l-122 -697q-7 -36 -37 -36q-13 0 -19.5 7t-6.5 19q0 7 1 10l12 73q-46 -56 -104.5 -82.5t-133.5 -26.5q-109 0 -169 53zM420.5 77.5
q59.5 31.5 90.5 84t31 113.5q0 79 -51 124.5t-135 45.5q-71 0 -127.5 -32.5t-88 -89t-31.5 -124.5q0 -153 171 -153q81 0 140.5 31.5zM119 -120q0 30 37 30h243q14 0 22 -3.5t8 -14.5q0 -29 -38 -29h-243q-29 0 -29 17z" />
    <glyph glyph-name="e" unicode="e" horiz-adv-x="631" 
d="M108.5 47.5q-61.5 56.5 -61.5 157.5q0 87 39 154t109 104t160 37q69 0 123 -22t84.5 -61t30.5 -88t-27.5 -79t-72.5 -30h-381q-2 -22 -2 -31q0 -69 46.5 -105.5t134.5 -36.5q55 0 97.5 13.5t87.5 44.5q20 14 31 14q7 0 13 -6q9 -7 9 -17q0 -11 -13 -24
q-35 -36 -99.5 -58.5t-136.5 -22.5q-110 0 -171.5 56.5zM484 272q22 0 34 13.5t12 37.5q0 56 -47 89t-128 33q-95 0 -156.5 -45.5t-76.5 -127.5h362z" />
    <glyph glyph-name="eacute" unicode="&#xe9;" horiz-adv-x="631" 
d="M108.5 47.5q-61.5 56.5 -61.5 157.5q0 87 39 154t109 104t160 37q69 0 123 -22t84.5 -61t30.5 -88t-27.5 -79t-72.5 -30h-381q-2 -22 -2 -31q0 -69 46.5 -105.5t134.5 -36.5q55 0 97.5 13.5t87.5 44.5q20 14 31 14q7 0 13 -6q9 -7 9 -17q0 -11 -13 -24
q-35 -36 -99.5 -58.5t-136.5 -22.5q-110 0 -171.5 56.5zM484 272q22 0 34 13.5t12 37.5q0 56 -47 89t-128 33q-95 0 -156.5 -45.5t-76.5 -127.5h362zM358 595q0 7 6 17l87 140q17 27 34 27q8 0 16 -5q14 -8 14 -19q0 -10 -10 -23l-102 -138q-12 -15 -26 -15q-3 0 -9 2
q-10 4 -10 14z" />
    <glyph glyph-name="ebreve" unicode="&#x115;" horiz-adv-x="631" 
d="M108.5 47.5q-61.5 56.5 -61.5 157.5q0 87 39 154t109 104t160 37q69 0 123 -22t84.5 -61t30.5 -88t-27.5 -79t-72.5 -30h-381q-2 -22 -2 -31q0 -69 46.5 -105.5t134.5 -36.5q55 0 97.5 13.5t87.5 44.5q20 14 31 14q7 0 13 -6q9 -7 9 -17q0 -11 -13 -24
q-35 -36 -99.5 -58.5t-136.5 -22.5q-110 0 -171.5 56.5zM484 272q22 0 34 13.5t12 37.5q0 56 -47 89t-128 33q-95 0 -156.5 -45.5t-76.5 -127.5h362zM284 611.5q-33 32.5 -33 82.5q0 63 38 63q24 0 24 -23q0 -52 4.5 -73t18 -27.5t48.5 -6.5q45 0 71.5 25.5t34.5 69.5
q6 35 35 35q25 0 25 -23q0 -40 -25 -75.5t-65 -57.5t-84 -22q-59 0 -92 32.5z" />
    <glyph glyph-name="ecaron" unicode="&#x11b;" horiz-adv-x="631" 
d="M108.5 47.5q-61.5 56.5 -61.5 157.5q0 87 39 154t109 104t160 37q69 0 123 -22t84.5 -61t30.5 -88t-27.5 -79t-72.5 -30h-381q-2 -22 -2 -31q0 -69 46.5 -105.5t134.5 -36.5q55 0 97.5 13.5t87.5 44.5q20 14 31 14q7 0 13 -6q9 -7 9 -17q0 -11 -13 -24
q-35 -36 -99.5 -58.5t-136.5 -22.5q-110 0 -171.5 56.5zM484 272q22 0 34 13.5t12 37.5q0 56 -47 89t-128 33q-95 0 -156.5 -45.5t-76.5 -127.5h362zM353 593l-84 127q-5 6 -5 16q0 15 17 26q9 6 18 6q13 0 24 -18l65 -114l107 114q19 19 32 19q8 0 14 -6q10 -7 10 -19
t-13 -25l-128 -126q-16 -16 -32 -16q-14 0 -25 16z" />
    <glyph glyph-name="ecircumflex" unicode="&#xea;" horiz-adv-x="631" 
d="M108.5 47.5q-61.5 56.5 -61.5 157.5q0 87 39 154t109 104t160 37q69 0 123 -22t84.5 -61t30.5 -88t-27.5 -79t-72.5 -30h-381q-2 -22 -2 -31q0 -69 46.5 -105.5t134.5 -36.5q55 0 97.5 13.5t87.5 44.5q20 14 31 14q7 0 13 -6q9 -7 9 -17q0 -11 -13 -24
q-35 -36 -99.5 -58.5t-136.5 -22.5q-110 0 -171.5 56.5zM484 272q22 0 34 13.5t12 37.5q0 56 -47 89t-128 33q-95 0 -156.5 -45.5t-76.5 -127.5h362zM240 602q0 12 13 25l128 126q16 16 31 16t26 -16l83 -126q5 -7 5 -17q0 -16 -16 -26q-10 -6 -18 -6q-14 0 -25 18l-65 114
l-106 -114q-16 -19 -32 -19q-7 0 -15 6q-9 9 -9 19z" />
    <glyph glyph-name="uni1EBF" unicode="&#x1ebf;" horiz-adv-x="631" 
d="M108.5 47.5q-61.5 56.5 -61.5 157.5q0 87 39 154t109 104t160 37q69 0 123 -22t84.5 -61t30.5 -88t-27.5 -79t-72.5 -30h-381q-2 -22 -2 -31q0 -69 46.5 -105.5t134.5 -36.5q55 0 97.5 13.5t87.5 44.5q20 14 31 14q7 0 13 -6q9 -7 9 -17q0 -11 -13 -24
q-35 -36 -99.5 -58.5t-136.5 -22.5q-110 0 -171.5 56.5zM484 272q22 0 34 13.5t12 37.5q0 56 -47 89t-128 33q-95 0 -156.5 -45.5t-76.5 -127.5h362zM490 730q0 8 8 18l79 102q17 20 32 20q8 0 16 -5q11 -7 11 -18q0 -10 -11 -23l-94 -98q-11 -13 -22 -13q-6 0 -11 4
q-8 5 -8 13zM238 603q0 10 13 23l126 111q18 16 31 16q9 0 13.5 -3.5t12.5 -12.5l86 -110q6 -7 6 -16q0 -16 -18 -27q-9 -6 -17 -6q-13 0 -25 18l-68 98l-104 -99q-19 -17 -31 -17q-9 0 -15 6q-10 9 -10 19z" />
    <glyph glyph-name="uni1EC7" unicode="&#x1ec7;" horiz-adv-x="631" 
d="M108.5 47.5q-61.5 56.5 -61.5 157.5q0 87 39 154t109 104t160 37q69 0 123 -22t84.5 -61t30.5 -88t-27.5 -79t-72.5 -30h-381q-2 -22 -2 -31q0 -69 46.5 -105.5t134.5 -36.5q55 0 97.5 13.5t87.5 44.5q20 14 31 14q7 0 13 -6q9 -7 9 -17q0 -11 -13 -24
q-35 -36 -99.5 -58.5t-136.5 -22.5q-110 0 -171.5 56.5zM484 272q22 0 34 13.5t12 37.5q0 56 -47 89t-128 33q-95 0 -156.5 -45.5t-76.5 -127.5h362zM224.5 -157q-11.5 11 -11.5 28q0 21 18 38t40 17q17 0 28.5 -11t11.5 -28q0 -21 -17 -38t-39 -17q-19 0 -30.5 11zM240 602
q0 12 13 25l128 126q16 16 31 16t26 -16l83 -126q5 -7 5 -17q0 -16 -16 -26q-10 -6 -18 -6q-14 0 -25 18l-65 114l-106 -114q-16 -19 -32 -19q-7 0 -15 6q-9 9 -9 19z" />
    <glyph glyph-name="uni1EC1" unicode="&#x1ec1;" horiz-adv-x="631" 
d="M108.5 47.5q-61.5 56.5 -61.5 157.5q0 87 39 154t109 104t160 37q69 0 123 -22t84.5 -61t30.5 -88t-27.5 -79t-72.5 -30h-381q-2 -22 -2 -31q0 -69 46.5 -105.5t134.5 -36.5q55 0 97.5 13.5t87.5 44.5q20 14 31 14q7 0 13 -6q9 -7 9 -17q0 -11 -13 -24
q-35 -36 -99.5 -58.5t-136.5 -22.5q-110 0 -171.5 56.5zM484 272q22 0 34 13.5t12 37.5q0 56 -47 89t-128 33q-95 0 -156.5 -45.5t-76.5 -127.5h362zM546 713q-12 0 -18 13l-58 98q-5 8 -5 16q0 15 20 26q8 4 16 4q19 0 26 -20l42 -102q3 -6 3 -12q0 -12 -14 -20
q-6 -3 -12 -3zM238 603q0 10 13 23l126 111q18 16 31 16q8 0 13.5 -3.5t12.5 -12.5l87 -110q6 -7 6 -15t-5 -15.5t-14 -12.5q-9 -6 -17 -6q-13 0 -25 18l-68 98l-104 -99q-19 -17 -31 -17q-9 0 -15 6q-10 9 -10 19z" />
    <glyph glyph-name="uni1EC3" unicode="&#x1ec3;" horiz-adv-x="631" 
d="M108.5 47.5q-61.5 56.5 -61.5 157.5q0 87 39 154t109 104t160 37q69 0 123 -22t84.5 -61t30.5 -88t-27.5 -79t-72.5 -30h-381q-2 -22 -2 -31q0 -69 46.5 -105.5t134.5 -36.5q55 0 97.5 13.5t87.5 44.5q20 14 31 14q7 0 13 -6q9 -7 9 -17q0 -11 -13 -24
q-35 -36 -99.5 -58.5t-136.5 -22.5q-110 0 -171.5 56.5zM484 272q22 0 34 13.5t12 37.5q0 56 -47 89t-128 33q-95 0 -156.5 -45.5t-76.5 -127.5h362zM480 733l2 8q3 15 14 26t30 24q18 13 27.5 23t9.5 23q0 24 -33 24q-18 0 -30 -5t-23 -17q-11 -11 -20 -11q-5 0 -11 3
q-10 5 -10 14q0 8 7 15q15 20 40 32t57 12q38 0 56 -16t18 -41q0 -27 -12 -41.5t-36 -29.5q-15 -9 -23 -17t-10 -19l-1 -7q-3 -24 -30 -24q-28 0 -22 24zM238 603q0 10 13 23l126 111q18 16 31 16q8 0 13.5 -3.5t12.5 -12.5l87 -110q6 -7 6 -15t-5 -15.5t-14 -12.5
q-9 -6 -17 -6q-13 0 -25 18l-68 98l-104 -99q-19 -17 -31 -17q-9 0 -15 6q-10 9 -10 19z" />
    <glyph glyph-name="uni1EC5" unicode="&#x1ec5;" horiz-adv-x="631" 
d="M108.5 47.5q-61.5 56.5 -61.5 157.5q0 87 39 154t109 104t160 37q69 0 123 -22t84.5 -61t30.5 -88t-27.5 -79t-72.5 -30h-381q-2 -22 -2 -31q0 -69 46.5 -105.5t134.5 -36.5q55 0 97.5 13.5t87.5 44.5q20 14 31 14q7 0 13 -6q9 -7 9 -17q0 -11 -13 -24
q-35 -36 -99.5 -58.5t-136.5 -22.5q-110 0 -171.5 56.5zM484 272q22 0 34 13.5t12 37.5q0 56 -47 89t-128 33q-95 0 -156.5 -45.5t-76.5 -127.5h362zM266 785q0 8 4 16q12 33 39.5 53t59.5 20q23 0 39.5 -8.5t34.5 -23.5q15 -12 25 -17.5t22 -5.5q34 0 52 42q9 19 25 19
q6 0 9 -1q12 -3 12 -14q0 -9 -4 -18q-11 -31 -39 -51.5t-60 -20.5q-21 0 -35.5 7.5t-32.5 22.5q-16 13 -27 19t-26 6q-16 0 -29.5 -11t-21.5 -28q-6 -12 -11.5 -17t-13.5 -5q-2 0 -10 2q-12 3 -12 14zM239 603q0 12 13 24l125 111q7 6 15 11t16 5q17 0 26 -16l86 -111
q6 -7 6 -16q0 -15 -17 -27q-9 -6 -17 -6q-13 0 -25 18l-69 99l-103 -99q-17 -17 -31 -17q-9 0 -16 6q-9 8 -9 18z" />
    <glyph glyph-name="edieresis" unicode="&#xeb;" horiz-adv-x="631" 
d="M108.5 47.5q-61.5 56.5 -61.5 157.5q0 87 39 154t109 104t160 37q69 0 123 -22t84.5 -61t30.5 -88t-27.5 -79t-72.5 -30h-381q-2 -22 -2 -31q0 -69 46.5 -105.5t134.5 -36.5q55 0 97.5 13.5t87.5 44.5q20 14 31 14q7 0 13 -6q9 -7 9 -17q0 -11 -13 -24
q-35 -36 -99.5 -58.5t-136.5 -22.5q-110 0 -171.5 56.5zM484 272q22 0 34 13.5t12 37.5q0 56 -47 89t-128 33q-95 0 -156.5 -45.5t-76.5 -127.5h362zM253.5 610q-11.5 11 -11.5 27q0 20 17.5 37t38.5 17q16 0 27 -11.5t11 -27.5q0 -20 -17 -36.5t-37 -16.5q-17 0 -28.5 11z
M455.5 610q-11.5 11 -11.5 27q0 20 17.5 37t38.5 17q16 0 27 -11.5t11 -27.5q0 -20 -17 -36.5t-38 -16.5q-16 0 -27.5 11z" />
    <glyph glyph-name="edotaccent" unicode="&#x117;" horiz-adv-x="631" 
d="M108.5 47.5q-61.5 56.5 -61.5 157.5q0 87 39 154t109 104t160 37q69 0 123 -22t84.5 -61t30.5 -88t-27.5 -79t-72.5 -30h-381q-2 -22 -2 -31q0 -69 46.5 -105.5t134.5 -36.5q55 0 97.5 13.5t87.5 44.5q20 14 31 14q7 0 13 -6q9 -7 9 -17q0 -11 -13 -24
q-35 -36 -99.5 -58.5t-136.5 -22.5q-110 0 -171.5 56.5zM484 272q22 0 34 13.5t12 37.5q0 56 -47 89t-128 33q-95 0 -156.5 -45.5t-76.5 -127.5h362zM352 608.5q-12 11.5 -12 28.5q0 20 18 37t40 17q16 0 27.5 -11.5t11.5 -27.5q0 -20 -17.5 -37.5t-38.5 -17.5
q-17 0 -29 11.5z" />
    <glyph glyph-name="uni1EB9" unicode="&#x1eb9;" horiz-adv-x="631" 
d="M108.5 47.5q-61.5 56.5 -61.5 157.5q0 87 39 154t109 104t160 37q69 0 123 -22t84.5 -61t30.5 -88t-27.5 -79t-72.5 -30h-381q-2 -22 -2 -31q0 -69 46.5 -105.5t134.5 -36.5q55 0 97.5 13.5t87.5 44.5q20 14 31 14q7 0 13 -6q9 -7 9 -17q0 -11 -13 -24
q-35 -36 -99.5 -58.5t-136.5 -22.5q-110 0 -171.5 56.5zM484 272q22 0 34 13.5t12 37.5q0 56 -47 89t-128 33q-95 0 -156.5 -45.5t-76.5 -127.5h362zM224.5 -157q-11.5 11 -11.5 28q0 21 18 38t40 17q17 0 28.5 -11t11.5 -28q0 -21 -17 -38t-39 -17q-19 0 -30.5 11z" />
    <glyph glyph-name="egrave" unicode="&#xe8;" horiz-adv-x="631" 
d="M108.5 47.5q-61.5 56.5 -61.5 157.5q0 87 39 154t109 104t160 37q69 0 123 -22t84.5 -61t30.5 -88t-27.5 -79t-72.5 -30h-381q-2 -22 -2 -31q0 -69 46.5 -105.5t134.5 -36.5q55 0 97.5 13.5t87.5 44.5q20 14 31 14q7 0 13 -6q9 -7 9 -17q0 -11 -13 -24
q-35 -36 -99.5 -58.5t-136.5 -22.5q-110 0 -171.5 56.5zM484 272q22 0 34 13.5t12 37.5q0 56 -47 89t-128 33q-95 0 -156.5 -45.5t-76.5 -127.5h362zM381 579q-14 0 -20 15l-53 138q-3 8 -3 15q0 16 22 27q9 4 17 4q18 0 24 -26l39 -140q1 -3 1 -8q0 -16 -16 -23
q-8 -2 -11 -2z" />
    <glyph glyph-name="uni1EBB" unicode="&#x1ebb;" horiz-adv-x="631" 
d="M108.5 47.5q-61.5 56.5 -61.5 157.5q0 87 39 154t109 104t160 37q69 0 123 -22t84.5 -61t30.5 -88t-27.5 -79t-72.5 -30h-381q-2 -22 -2 -31q0 -69 46.5 -105.5t134.5 -36.5q55 0 97.5 13.5t87.5 44.5q20 14 31 14q7 0 13 -6q9 -7 9 -17q0 -11 -13 -24
q-35 -36 -99.5 -58.5t-136.5 -22.5q-110 0 -171.5 56.5zM484 272q22 0 34 13.5t12 37.5q0 56 -47 89t-128 33q-95 0 -156.5 -45.5t-76.5 -127.5h362zM348 576l1 8q3 17 15 28.5t34 26.5q22 16 31.5 25.5t9.5 24.5q0 12 -9 19.5t-26 7.5q-37 0 -61 -27q-12 -14 -23 -14
q-5 0 -11 3q-11 6 -11 16q0 7 7 16q16 21 46 36.5t64 15.5q41 0 61 -17.5t20 -45.5t-13.5 -44t-38.5 -31q-18 -12 -26 -20t-9 -20l-1 -8q-6 -27 -36 -27q-27 0 -24 27z" />
    <glyph glyph-name="emacron" unicode="&#x113;" horiz-adv-x="631" 
d="M108.5 47.5q-61.5 56.5 -61.5 157.5q0 87 39 154t109 104t160 37q69 0 123 -22t84.5 -61t30.5 -88t-27.5 -79t-72.5 -30h-381q-2 -22 -2 -31q0 -69 46.5 -105.5t134.5 -36.5q55 0 97.5 13.5t87.5 44.5q20 14 31 14q7 0 13 -6q9 -7 9 -17q0 -11 -13 -24
q-35 -36 -99.5 -58.5t-136.5 -22.5q-110 0 -171.5 56.5zM484 272q22 0 34 13.5t12 37.5q0 56 -47 89t-128 33q-95 0 -156.5 -45.5t-76.5 -127.5h362zM228 599q0 16 9.5 22.5t27.5 6.5h243q14 0 21.5 -3.5t7.5 -13.5q0 -30 -37 -30h-243q-29 0 -29 18z" />
    <glyph glyph-name="eogonek" unicode="&#x119;" horiz-adv-x="631" 
d="M112 220q-2 -22 -2 -31q0 -69 46.5 -105.5t134.5 -36.5q55 0 97.5 13.5t87.5 44.5q20 14 31 14q7 0 13 -6q9 -7 9 -17q0 -11 -13 -24q-32 -34 -91 -56t-126 -25q-50 -35 -74 -60.5t-24 -57.5q0 -16 12 -25.5t34 -9.5q31 0 59 21q11 8 18 8q8 0 13 -7t5 -12q0 -11 -13 -21
q-39 -35 -92 -35q-42 0 -66 20t-24 51q0 63 85 131q-89 12 -137 66.5t-48 144.5q0 87 39 154t109 104t160 37q69 0 123 -22t84.5 -61t30.5 -88t-27.5 -79t-72.5 -30h-381zM198.5 399.5q-61.5 -45.5 -76.5 -127.5h362q22 0 34 13.5t12 37.5q0 56 -47 89t-128 33
q-95 0 -156.5 -45.5z" />
    <glyph glyph-name="uni1EBD" unicode="&#x1ebd;" horiz-adv-x="631" 
d="M108.5 47.5q-61.5 56.5 -61.5 157.5q0 87 39 154t109 104t160 37q69 0 123 -22t84.5 -61t30.5 -88t-27.5 -79t-72.5 -30h-381q-2 -22 -2 -31q0 -69 46.5 -105.5t134.5 -36.5q55 0 97.5 13.5t87.5 44.5q20 14 31 14q7 0 13 -6q9 -7 9 -17q0 -11 -13 -24
q-35 -36 -99.5 -58.5t-136.5 -22.5q-110 0 -171.5 56.5zM484 272q22 0 34 13.5t12 37.5q0 56 -47 89t-128 33q-95 0 -156.5 -45.5t-76.5 -127.5h362zM221 611q0 8 4 17q14 34 42 55.5t62 21.5q25 0 41.5 -8.5t36.5 -24.5q15 -12 25.5 -18t23.5 -6q36 0 55 43q8 20 25 20
q7 0 10 -1q13 -3 13 -16q0 -5 -4 -17q-14 -34 -43 -55t-62 -21q-21 0 -36.5 8t-34.5 23q-18 13 -29.5 19.5t-26.5 6.5q-34 0 -54 -43q-9 -21 -26 -21q-6 0 -9 1q-13 4 -13 16z" />
    <glyph glyph-name="uni0259" unicode="&#x259;" horiz-adv-x="643" 
d="M156.5 14.5q-53.5 23.5 -83.5 65.5t-30 95q0 45 26 70.5t72 25.5h390q1 9 1 25q0 76 -43 112.5t-137 36.5q-58 0 -102 -15t-89 -50q-17 -13 -30 -13q-8 0 -15 7q-8 8 -8 19q0 13 12 23q96 84 241 84q109 0 171 -51.5t63 -144.5q3 -90 -36.5 -161.5t-112.5 -111.5
t-168 -40q-68 0 -121.5 23.5zM441.5 94q64.5 47 77.5 125h-369q-21 0 -32.5 -10.5t-11.5 -29.5q0 -64 46.5 -98t132.5 -34q92 0 156.5 47z" />
    <glyph glyph-name="f" unicode="f" horiz-adv-x="442" 
d="M481 683q0 -12 -9.5 -21.5t-19.5 -9.5q-6 0 -12.5 3.5t-12.5 7.5q-33 20 -74 20q-44 0 -69.5 -22t-33.5 -62l-17 -100h146q31 0 31 -23q0 -14 -11 -22t-30 -8h-146l-73 -420q-7 -36 -37 -36q-15 0 -21.5 9.5t-4.5 26.5l75 420h-54q-31 0 -31 22q0 14 11 22.5t29 8.5h54
l17 96q12 69 54 106.5t108 37.5q38 0 74 -12t51 -28q6 -9 6 -16z" />
    <glyph glyph-name="g" unicode="g" horiz-adv-x="677" 
d="M131 -231q-52 20 -84 57q-8 8 -8 18q0 12 10 21.5t23 9.5q14 0 24 -14q43 -59 155 -59q103 0 164 47t77 137l19 105q-49 -53 -110 -80t-131 -27q-68 0 -119.5 25.5t-79 71.5t-27.5 107q0 91 40.5 161t113.5 109.5t167 39.5q67 0 118.5 -28t80.5 -81l14 78q2 15 13 24
t24 9t20 -9t5 -24l-85 -481q-20 -113 -100.5 -175t-205.5 -62q-66 0 -118 20zM414 73q59 32 92.5 88.5t33.5 124.5q0 73 -47.5 114.5t-131.5 41.5q-76 0 -133.5 -31.5t-89 -89t-31.5 -132.5q0 -72 45.5 -110t131.5 -38q71 0 130 32z" />
    <glyph glyph-name="gbreve" unicode="&#x11f;" horiz-adv-x="677" 
d="M131 -231q-52 20 -84 57q-8 8 -8 18q0 12 10 21.5t23 9.5q14 0 24 -14q43 -59 155 -59q103 0 164 47t77 137l19 105q-49 -53 -110 -80t-131 -27q-68 0 -119.5 25.5t-79 71.5t-27.5 107q0 91 40.5 161t113.5 109.5t167 39.5q67 0 118.5 -28t80.5 -81l14 78q2 15 13 24
t24 9t20 -9t5 -24l-85 -481q-20 -113 -100.5 -175t-205.5 -62q-66 0 -118 20zM414 73q59 32 92.5 88.5t33.5 124.5q0 73 -47.5 114.5t-131.5 41.5q-76 0 -133.5 -31.5t-89 -89t-31.5 -132.5q0 -72 45.5 -110t131.5 -38q71 0 130 32zM285 614.5q-33 32.5 -33 82.5q0 63 38 63
q24 0 24 -23q0 -52 4.5 -73t18 -27.5t48.5 -6.5q45 0 71.5 25.5t34.5 69.5q6 35 35 35q25 0 25 -23q0 -40 -25 -75.5t-65 -57.5t-84 -22q-59 0 -92 32.5z" />
    <glyph glyph-name="gcaron" unicode="&#x1e7;" horiz-adv-x="677" 
d="M131 -231q-52 20 -84 57q-8 8 -8 18q0 12 10 21.5t23 9.5q14 0 24 -14q43 -59 155 -59q103 0 164 47t77 137l19 105q-49 -53 -110 -80t-131 -27q-68 0 -119.5 25.5t-79 71.5t-27.5 107q0 91 40.5 161t113.5 109.5t167 39.5q67 0 118.5 -28t80.5 -81l14 78q2 15 13 24
t24 9t20 -9t5 -24l-85 -481q-20 -113 -100.5 -175t-205.5 -62q-66 0 -118 20zM414 73q59 32 92.5 88.5t33.5 124.5q0 73 -47.5 114.5t-131.5 41.5q-76 0 -133.5 -31.5t-89 -89t-31.5 -132.5q0 -72 45.5 -110t131.5 -38q71 0 130 32zM353 596l-84 127q-5 6 -5 16q0 15 17 26
q9 6 18 6q13 0 24 -18l65 -114l107 114q19 19 32 19q8 0 14 -6q10 -7 10 -19t-13 -25l-128 -126q-16 -16 -32 -16q-14 0 -25 16z" />
    <glyph glyph-name="gcircumflex" unicode="&#x11d;" horiz-adv-x="677" 
d="M131 -231q-52 20 -84 57q-8 8 -8 18q0 12 10 21.5t23 9.5q14 0 24 -14q43 -59 155 -59q103 0 164 47t77 137l19 105q-49 -53 -110 -80t-131 -27q-68 0 -119.5 25.5t-79 71.5t-27.5 107q0 91 40.5 161t113.5 109.5t167 39.5q67 0 118.5 -28t80.5 -81l14 78q2 15 13 24
t24 9t20 -9t5 -24l-85 -481q-20 -113 -100.5 -175t-205.5 -62q-66 0 -118 20zM414 73q59 32 92.5 88.5t33.5 124.5q0 73 -47.5 114.5t-131.5 41.5q-76 0 -133.5 -31.5t-89 -89t-31.5 -132.5q0 -72 45.5 -110t131.5 -38q71 0 130 32zM240 605q0 12 13 25l128 126q16 16 31 16
t26 -16l83 -126q5 -7 5 -17q0 -16 -16 -26q-10 -6 -18 -6q-14 0 -25 18l-65 114l-106 -114q-16 -19 -32 -19q-7 0 -15 6q-9 9 -9 19z" />
    <glyph glyph-name="uni0123" unicode="&#x123;" horiz-adv-x="677" 
d="M131 -231q-52 20 -84 57q-8 8 -8 18q0 12 10 21.5t23 9.5q14 0 24 -14q43 -59 155 -59q103 0 164 47t77 137l19 105q-49 -53 -110 -80t-131 -27q-68 0 -119.5 25.5t-79 71.5t-27.5 107q0 91 40.5 161t113.5 109.5t167 39.5q67 0 118.5 -28t80.5 -81l14 78q2 15 13 24
t24 9t20 -9t5 -24l-85 -481q-20 -113 -100.5 -175t-205.5 -62q-66 0 -118 20zM414 73q59 32 92.5 88.5t33.5 124.5q0 73 -47.5 114.5t-131.5 41.5q-76 0 -133.5 -31.5t-89 -89t-31.5 -132.5q0 -72 45.5 -110t131.5 -38q71 0 130 32zM332.5 580.5q-12.5 13.5 -12.5 38.5
q0 38 26 77t75 75q26 18 35 18q7 0 12 -8q3 -4 3 -9t-5.5 -11t-13.5 -13q-64 -48 -72 -81q5 2 15 2q18 0 30 -11t12 -29q0 -26 -20 -44t-49 -18q-23 0 -35.5 13.5z" />
    <glyph glyph-name="gdotaccent" unicode="&#x121;" horiz-adv-x="677" 
d="M131 -231q-52 20 -84 57q-8 8 -8 18q0 12 10 21.5t23 9.5q14 0 24 -14q43 -59 155 -59q103 0 164 47t77 137l19 105q-49 -53 -110 -80t-131 -27q-68 0 -119.5 25.5t-79 71.5t-27.5 107q0 91 40.5 161t113.5 109.5t167 39.5q67 0 118.5 -28t80.5 -81l14 78q2 15 13 24
t24 9t20 -9t5 -24l-85 -481q-20 -113 -100.5 -175t-205.5 -62q-66 0 -118 20zM414 73q59 32 92.5 88.5t33.5 124.5q0 73 -47.5 114.5t-131.5 41.5q-76 0 -133.5 -31.5t-89 -89t-31.5 -132.5q0 -72 45.5 -110t131.5 -38q71 0 130 32zM353 611.5q-12 11.5 -12 28.5q0 20 18 37
t40 17q16 0 27.5 -11.5t11.5 -27.5q0 -20 -17.5 -37.5t-38.5 -17.5q-17 0 -29 11.5z" />
    <glyph glyph-name="uni1E21" unicode="&#x1e21;" horiz-adv-x="677" 
d="M131 -231q-52 20 -84 57q-8 8 -8 18q0 12 10 21.5t23 9.5q14 0 24 -14q43 -59 155 -59q103 0 164 47t77 137l19 105q-49 -53 -110 -80t-131 -27q-68 0 -119.5 25.5t-79 71.5t-27.5 107q0 91 40.5 161t113.5 109.5t167 39.5q67 0 118.5 -28t80.5 -81l14 78q2 15 13 24
t24 9t20 -9t5 -24l-85 -481q-20 -113 -100.5 -175t-205.5 -62q-66 0 -118 20zM414 73q59 32 92.5 88.5t33.5 124.5q0 73 -47.5 114.5t-131.5 41.5q-76 0 -133.5 -31.5t-89 -89t-31.5 -132.5q0 -72 45.5 -110t131.5 -38q71 0 130 32zM229 602q0 16 9.5 22.5t27.5 6.5h243
q14 0 21.5 -3.5t7.5 -13.5q0 -30 -37 -30h-243q-29 0 -29 18z" />
    <glyph glyph-name="h" unicode="h" horiz-adv-x="620" 
d="M41 16q0 6 1 10l123 697q6 36 37 36q26 0 26 -25q0 -7 -1 -11l-57 -324q39 48 99 74.5t124 26.5q79 0 122 -40t43 -112q0 -26 -4 -49l-47 -273q-7 -36 -39 -36q-24 0 -24 24q0 8 1 12l47 273q5 30 5 48q0 51 -28.5 74.5t-88.5 23.5q-91 0 -155.5 -53.5t-80.5 -140.5
l-40 -225q-6 -36 -38 -36q-25 0 -25 26z" />
    <glyph glyph-name="hbar" unicode="&#x127;" horiz-adv-x="662" 
d="M568 459.5q43 -40.5 43 -113.5q0 -24 -4 -47l-48 -273q-3 -17 -13 -26.5t-25 -9.5q-25 0 -25 26q0 6 1 10l48 273q5 28 5 47q0 52 -28.5 75.5t-89.5 23.5q-91 0 -155.5 -53.5t-79.5 -140.5l-40 -225q-7 -36 -38 -36q-25 0 -25 25q0 7 1 11l97 555h-65q-30 0 -30 21
q0 32 40 32h64l16 89q8 36 38 36q12 0 19 -6.5t7 -19.5q0 -6 -1 -10l-16 -89h108q31 0 31 -20q0 -16 -10.5 -24.5t-29.5 -8.5h-108l-32 -182q39 48 98.5 74.5t124.5 26.5q79 0 122 -40.5z" />
    <glyph glyph-name="uni1E2B" unicode="&#x1e2b;" horiz-adv-x="620" 
d="M41 16q0 6 1 10l123 697q6 36 37 36q26 0 26 -25q0 -7 -1 -11l-57 -324q39 48 99 74.5t124 26.5q79 0 122 -40t43 -112q0 -26 -4 -49l-47 -273q-7 -36 -39 -36q-24 0 -24 24q0 8 1 12l47 273q5 30 5 48q0 51 -28.5 74.5t-88.5 23.5q-91 0 -155.5 -53.5t-80.5 -140.5
l-40 -225q-6 -36 -38 -36q-25 0 -25 26zM134 -217.5q-32 31.5 -32 81.5q0 63 37 63q23 0 23 -22q0 -51 4.5 -72.5t18.5 -28t49 -6.5q45 0 72 25t34 67q4 19 12 28t23 9q24 0 24 -23q0 -39 -24.5 -74.5t-64.5 -57t-84 -21.5q-60 0 -92 31.5z" />
    <glyph glyph-name="hcircumflex" unicode="&#x125;" horiz-adv-x="620" 
d="M41 16q0 6 1 10l123 697q6 36 37 36q26 0 26 -25q0 -7 -1 -11l-57 -324q39 48 99 74.5t124 26.5q79 0 122 -40t43 -112q0 -26 -4 -49l-47 -273q-7 -36 -39 -36q-24 0 -24 24q0 8 1 12l47 273q5 30 5 48q0 51 -28.5 74.5t-88.5 23.5q-91 0 -155.5 -53.5t-80.5 -140.5
l-40 -225q-6 -36 -38 -36q-25 0 -25 26zM182 861q0 12 13 25l128 126q16 16 31 16t26 -16l83 -126q5 -7 5 -17q0 -16 -16 -26q-10 -6 -18 -6q-14 0 -25 18l-65 114l-106 -114q-16 -19 -32 -19q-7 0 -15 6q-9 9 -9 19z" />
    <glyph glyph-name="uni1E25" unicode="&#x1e25;" horiz-adv-x="620" 
d="M41 16q0 6 1 10l123 697q6 36 37 36q26 0 26 -25q0 -7 -1 -11l-57 -324q39 48 99 74.5t124 26.5q79 0 122 -40t43 -112q0 -26 -4 -49l-47 -273q-7 -36 -39 -36q-24 0 -24 24q0 8 1 12l47 273q5 30 5 48q0 51 -28.5 74.5t-88.5 23.5q-91 0 -155.5 -53.5t-80.5 -140.5
l-40 -225q-6 -36 -38 -36q-25 0 -25 26zM209.5 -157q-11.5 11 -11.5 28q0 21 18 38t40 17q17 0 28.5 -11t11.5 -28q0 -21 -17 -38t-39 -17q-19 0 -30.5 11z" />
    <glyph glyph-name="i" unicode="i" horiz-adv-x="257" 
d="M164 622.5q-12 11.5 -12 27.5q0 21 18 37.5t39 16.5q17 0 29.5 -11.5t12.5 -27.5q0 -20 -18 -37t-40 -17q-17 0 -29 11.5zM62 0.5q-5 10.5 -3 25.5l78 438q6 36 36 36q27 0 27 -25q0 -7 -1 -11l-78 -438q-3 -18 -13 -27t-25 -9q-16 0 -21 10.5z" />
    <glyph glyph-name="dotlessi" unicode="&#x131;" horiz-adv-x="257" 
d="M58 15q0 7 1 11l78 438q5 36 36 36q27 0 27 -26q0 -6 -1 -10l-78 -438q-3 -17 -13 -26.5t-25 -9.5q-25 0 -25 25z" />
    <glyph glyph-name="iacute" unicode="&#xed;" horiz-adv-x="257" 
d="M58 15q0 7 1 11l78 438q5 36 36 36q27 0 27 -26q0 -6 -1 -10l-78 -438q-3 -17 -13 -26.5t-25 -9.5q-25 0 -25 25zM165 575q0 7 6 17l87 140q17 27 34 27q8 0 16 -5q14 -8 14 -19q0 -10 -10 -23l-102 -138q-12 -15 -26 -15q-3 0 -9 2q-10 4 -10 14z" />
    <glyph glyph-name="ibreve" unicode="&#x12d;" horiz-adv-x="257" 
d="M58 15q0 7 1 11l78 438q5 36 36 36q27 0 27 -26q0 -6 -1 -10l-78 -438q-3 -17 -13 -26.5t-25 -9.5q-25 0 -25 25zM92 591.5q-33 32.5 -33 82.5q0 63 38 63q24 0 24 -23q0 -52 4.5 -73t18.5 -27.5t49 -6.5q45 0 71.5 25.5t34.5 69.5q6 35 35 35q24 0 24 -23
q0 -40 -24.5 -75.5t-64.5 -57.5t-84 -22q-60 0 -93 32.5z" />
    <glyph glyph-name="uni01D0" unicode="&#x1d0;" horiz-adv-x="257" 
d="M58 15q0 7 1 11l78 438q5 36 36 36q27 0 27 -26q0 -6 -1 -10l-78 -438q-3 -17 -13 -26.5t-25 -9.5q-25 0 -25 25zM159 573l-84 127q-5 6 -5 16q0 15 17 26q9 6 18 6q13 0 24 -18l65 -114l107 114q19 19 33 19q8 0 14 -6q10 -7 10 -19t-13 -25l-129 -126q-16 -16 -32 -16
q-14 0 -25 16z" />
    <glyph glyph-name="icircumflex" unicode="&#xee;" horiz-adv-x="257" 
d="M58 15q0 7 1 11l78 438q5 36 36 36q27 0 27 -26q0 -6 -1 -10l-78 -438q-3 -17 -13 -26.5t-25 -9.5q-25 0 -25 25zM46 582q0 12 13 25l128 126q16 16 32 16q15 0 25 -16l84 -126q5 -6 5 -16q0 -17 -17 -27q-10 -6 -18 -6q-13 0 -24 18l-66 114l-107 -114q-17 -19 -31 -19
q-8 0 -15 6q-9 9 -9 19z" />
    <glyph glyph-name="idieresis" unicode="&#xef;" horiz-adv-x="257" 
d="M58 15q0 7 1 11l78 438q5 36 36 36q27 0 27 -26q0 -6 -1 -10l-78 -438q-3 -17 -13 -26.5t-25 -9.5q-25 0 -25 25zM60.5 590q-11.5 11 -11.5 27q0 20 17.5 37t38.5 17q16 0 27 -11.5t11 -27.5q0 -20 -17 -36.5t-37 -16.5q-17 0 -28.5 11zM262.5 590q-11.5 11 -11.5 27
q0 20 17.5 37t38.5 17q16 0 27 -11.5t11 -27.5q0 -20 -17 -36.5t-37 -16.5q-17 0 -28.5 11z" />
    <glyph glyph-name="uni1ECB" unicode="&#x1ecb;" horiz-adv-x="257" 
d="M164 622.5q-12 11.5 -12 27.5q0 21 18 37.5t39 16.5q17 0 29.5 -11.5t12.5 -27.5q0 -20 -18 -37t-40 -17q-17 0 -29 11.5zM62 0.5q-5 10.5 -3 25.5l78 438q6 36 36 36q27 0 27 -25q0 -7 -1 -11l-78 -438q-3 -18 -13 -27t-25 -9q-16 0 -21 10.5zM24.5 -157
q-11.5 11 -11.5 28q0 21 18 38t40 17q17 0 28.5 -11t11.5 -28q0 -21 -17 -38t-39 -17q-19 0 -30.5 11z" />
    <glyph glyph-name="igrave" unicode="&#xec;" horiz-adv-x="257" 
d="M58 15q0 7 1 11l78 438q5 36 36 36q27 0 27 -26q0 -6 -1 -10l-78 -438q-3 -17 -13 -26.5t-25 -9.5q-25 0 -25 25zM186 559q-14 0 -20 15l-53 138q-3 8 -3 15q0 16 22 27q9 4 17 4q18 0 24 -26l39 -140q1 -3 1 -8q0 -16 -16 -23q-8 -2 -11 -2z" />
    <glyph glyph-name="uni1EC9" unicode="&#x1ec9;" horiz-adv-x="257" 
d="M58 15q0 7 1 11l78 438q5 36 36 36q27 0 27 -26q0 -6 -1 -10l-78 -438q-3 -17 -13 -26.5t-25 -9.5q-25 0 -25 25zM155 556l1 8q3 17 15 28.5t34 26.5q22 16 31.5 25.5t9.5 24.5q0 12 -9 19.5t-26 7.5q-37 0 -61 -27q-12 -14 -23 -14q-5 0 -11 3q-11 6 -11 16q0 7 7 16
q16 21 46 36.5t64 15.5q41 0 61 -17.5t20 -45.5t-13.5 -44t-38.5 -31q-18 -12 -26 -20t-9 -20l-1 -8q-6 -27 -36 -27q-27 0 -24 27z" />
    <glyph glyph-name="ij" unicode="&#x133;" horiz-adv-x="481" 
d="M158.5 592.5q-11.5 11.5 -11.5 27.5q0 20 17.5 37t39.5 17q17 0 29.5 -12t12.5 -28q0 -20 -18.5 -36.5t-40.5 -16.5q-17 0 -28.5 11.5zM381.5 592.5q-11.5 11.5 -11.5 27.5q0 20 17.5 37t38.5 17q17 0 29.5 -12t12.5 -28q0 -20 -18 -36.5t-40 -16.5q-17 0 -28.5 11.5z
M64.5 -3q-6.5 7 -6.5 20l1 9l78 438q6 36 36 36q27 0 27 -25q0 -7 -1 -11l-78 -438q-3 -18 -13 -27t-25 -9q-12 0 -18.5 7zM100.5 -285.5q-7.5 6.5 -7.5 16.5q0 14 10.5 23.5t26.5 9.5q43 0 67 10.5t37 35t21 69.5l104 585q6 36 37 36q14 0 20.5 -5.5t6.5 -18.5q0 -8 -1 -12
l-105 -584q-16 -91 -62.5 -131.5t-134.5 -40.5q-12 0 -19.5 6.5z" />
    <glyph glyph-name="imacron" unicode="&#x12b;" horiz-adv-x="257" 
d="M58 15q0 7 1 11l78 438q5 36 36 36q27 0 27 -26q0 -6 -1 -10l-78 -438q-3 -17 -13 -26.5t-25 -9.5q-25 0 -25 25zM31 562q0 16 10 22.5t28 6.5h243q13 0 21 -3t8 -14q0 -30 -37 -30h-243q-30 0 -30 18z" />
    <glyph glyph-name="iogonek" unicode="&#x12f;" horiz-adv-x="257" 
d="M238.5 692.5q12.5 -11.5 12.5 -27.5q0 -20 -18 -37t-40 -17q-17 0 -29 11.5t-12 27.5q0 21 18 37.5t39 16.5q17 0 29.5 -11.5zM200 475q0 -7 -1 -11l-78 -438q-5 -30 -29 -35q-47 -33 -71 -59t-24 -57q0 -16 12 -25.5t34 -9.5q31 0 59 21q11 8 18 8q8 0 13 -7t5 -12
q0 -11 -13 -21q-39 -35 -92 -35q-43 0 -67 19.5t-24 51.5q0 45 34 82.5t82 71.5q1 2 1 7l78 438q6 36 36 36q27 0 27 -25z" />
    <glyph glyph-name="itilde" unicode="&#x129;" horiz-adv-x="257" 
d="M58 15q0 7 1 11l78 438q5 36 36 36q27 0 27 -26q0 -6 -1 -10l-78 -438q-3 -17 -13 -26.5t-25 -9.5q-25 0 -25 25zM30 596q0 6 5 19q13 33 41.5 54.5t62.5 21.5q24 0 41 -8.5t36 -24.5q15 -12 26 -18t24 -6q34 0 54 44q9 20 27 20q6 0 9 -1q13 -3 13 -15q0 -8 -5 -18
q-14 -35 -42 -56t-62 -21q-22 0 -37.5 8t-34.5 23q-16 13 -28 19.5t-27 6.5q-35 0 -54 -43q-9 -20 -26 -20q-6 0 -10 1q-13 3 -13 14z" />
    <glyph glyph-name="j" unicode="j" horiz-adv-x="334" 
d="M240.5 629q-11.5 11 -11.5 27q0 20 17.5 37t38.5 17q17 0 29.5 -11.5t12.5 -28.5q0 -19 -18 -35.5t-40 -16.5q-17 0 -28.5 11zM-47.5 -285.5q-7.5 6.5 -7.5 16.5q0 14 10.5 23.5t26.5 9.5q43 0 67.5 10.5t37.5 35t21 69.5l104 585q7 36 37 36q14 0 20.5 -5.5t6.5 -18.5
q0 -7 -1 -12l-105 -584q-17 -93 -62 -132.5t-136 -39.5q-12 0 -19.5 6.5z" />
    <glyph glyph-name="uni0237" unicode="&#x237;" horiz-adv-x="314" 
d="M-49.5 -284q-7.5 8 -4.5 21q2 12 12 19.5t23 7.5q44 0 68.5 11t37 35t20.5 70l105 584q5 36 36 36q27 0 27 -27q0 -6 -1 -9l-104 -584q-15 -86 -59 -129t-139 -43q-14 0 -21.5 8z" />
    <glyph glyph-name="jcircumflex" unicode="&#x135;" horiz-adv-x="314" 
d="M-49.5 -284q-7.5 8 -4.5 21q2 12 12 19.5t23 7.5q44 0 68.5 11t37 35t20.5 70l105 584q5 36 36 36q27 0 27 -27q0 -6 -1 -9l-104 -584q-15 -86 -59 -129t-139 -43q-14 0 -21.5 8zM117 582q0 12 13 25l128 126q16 16 32 16q15 0 25 -16l84 -126q5 -6 5 -16q0 -17 -17 -27
q-10 -6 -18 -6q-13 0 -24 18l-66 114l-107 -114q-17 -19 -31 -19q-8 0 -15 6q-9 9 -9 19z" />
    <glyph glyph-name="k" unicode="k" horiz-adv-x="582" 
d="M43 15q0 7 1 11l122 697q8 36 38 36q12 0 19 -6.5t7 -19.5q0 -6 -1 -10l-80 -454l370 227q9 6 18 6q15 0 21 -14q2 -6 2 -10q0 -17 -20 -29l-205 -125q78 -59 116 -132t38 -168q0 -15 -8.5 -24.5t-22.5 -9.5q-28 0 -28 24q-5 107 -37.5 168t-110.5 111l-145 -90l-31 -177
q-3 -17 -13 -26.5t-25 -9.5q-25 0 -25 25z" />
    <glyph glyph-name="uni0137" unicode="&#x137;" horiz-adv-x="582" 
d="M43 15q0 7 1 11l122 697q8 36 38 36q12 0 19 -6.5t7 -19.5q0 -6 -1 -10l-80 -454l370 227q9 6 18 6q15 0 21 -14q2 -6 2 -10q0 -17 -20 -29l-205 -125q78 -59 116 -132t38 -168q0 -15 -8.5 -24.5t-22.5 -9.5q-28 0 -28 24q-5 107 -37.5 168t-110.5 111l-145 -90l-31 -177
q-3 -17 -13 -26.5t-25 -9.5q-25 0 -25 25zM137 -282q0 10 20 25q64 44 73 82q-5 -2 -16 -2q-18 0 -30.5 11t-12.5 28q0 27 20.5 45.5t49.5 18.5q23 0 36.5 -14t13.5 -39q0 -39 -28 -80.5t-77 -74.5q-11 -8 -20 -13t-14 -5q-6 0 -11 7q-4 8 -4 11z" />
    <glyph glyph-name="kgreenlandic" unicode="&#x138;" horiz-adv-x="587" 
d="M42 16q0 6 1 10l78 438q6 36 36 36q27 0 27 -26q0 -6 -1 -10l-36 -202l381 234q7 4 15 4q7 0 13 -3.5t8 -10.5q3 -6 3 -12q0 -18 -18 -27l-222 -137q83 -56 125 -126t42 -160q0 -15 -9.5 -24.5t-23.5 -9.5q-28 0 -28 24q-4 92 -41 149.5t-125 112.5l-132 -80l-30 -170
q-3 -17 -13 -26.5t-25 -9.5q-25 0 -25 26z" />
    <glyph glyph-name="l" unicode="l" horiz-adv-x="263" 
d="M61 16q0 6 1 10l123 697q6 36 37 36q26 0 26 -25q0 -7 -1 -11l-123 -697q-3 -17 -13 -26.5t-25 -9.5q-25 0 -25 26z" />
    <glyph glyph-name="lacute" unicode="&#x13a;" horiz-adv-x="263" 
d="M61 16q0 6 1 10l123 697q6 36 37 36q26 0 26 -25q0 -7 -1 -11l-123 -697q-3 -17 -13 -26.5t-25 -9.5q-25 0 -25 26zM217 854q0 7 6 17l87 140q17 27 34 27q8 0 16 -5q14 -8 14 -19q0 -10 -10 -23l-102 -138q-12 -15 -26 -15q-3 0 -9 2q-10 4 -10 14z" />
    <glyph glyph-name="lcaron" unicode="&#x13e;" horiz-adv-x="338" 
d="M63 16q0 6 1 10l123 697q6 36 37 36q26 0 26 -25q0 -7 -1 -11l-123 -697q-3 -17 -13 -26.5t-25 -9.5q-25 0 -25 26zM278 554q0 10 21 25q63 46 70 80q-5 -2 -15 -2q-17 0 -29.5 11.5t-12.5 28.5q0 26 20 44t49 18q23 0 35.5 -13.5t12.5 -38.5q0 -38 -26 -77t-75 -75
q-25 -18 -35 -18q-8 0 -12 7q-3 6 -3 10z" />
    <glyph glyph-name="uni013C" unicode="&#x13c;" horiz-adv-x="263" 
d="M61 16q0 6 1 10l123 697q6 36 37 36q26 0 26 -25q0 -7 -1 -11l-123 -697q-3 -17 -13 -26.5t-25 -9.5q-25 0 -25 26zM-32 -282q0 10 20 25q64 44 73 82q-5 -2 -16 -2q-18 0 -30.5 11t-12.5 28q0 27 20.5 45.5t49.5 18.5q23 0 36.5 -14t13.5 -39q0 -39 -28 -80.5t-77 -74.5
q-11 -8 -20 -13t-14 -5q-6 0 -11 7q-4 8 -4 11z" />
    <glyph glyph-name="ldot" unicode="&#x140;" horiz-adv-x="421" 
d="M61 16q0 6 1 10l123 697q6 36 37 36q26 0 26 -25q0 -7 -1 -11l-123 -697q-3 -17 -13 -26.5t-25 -9.5q-25 0 -25 26zM260.5 300q-13.5 13 -13.5 32q0 24 20.5 43.5t45.5 19.5q19 0 32 -13.5t13 -32.5q0 -23 -20.5 -42.5t-44.5 -19.5q-19 0 -32.5 13z" />
    <glyph glyph-name="uni1E37" unicode="&#x1e37;" horiz-adv-x="263" 
d="M61 16q0 6 1 10l123 697q6 36 37 36q26 0 26 -25q0 -7 -1 -11l-123 -697q-3 -17 -13 -26.5t-25 -9.5q-25 0 -25 26zM29.5 -157q-11.5 11 -11.5 28q0 21 18 38t40 17q17 0 28.5 -11t11.5 -28q0 -21 -17 -38t-39 -17q-19 0 -30.5 11z" />
    <glyph glyph-name="uni1E39" unicode="&#x1e39;" horiz-adv-x="263" 
d="M61 16q0 6 1 10l123 697q6 36 37 36q26 0 26 -25q0 -7 -1 -11l-123 -697q-3 -17 -13 -26.5t-25 -9.5q-25 0 -25 26zM29.5 -157q-11.5 11 -11.5 28q0 21 18 38t40 17q17 0 28.5 -11t11.5 -28q0 -21 -17 -38t-39 -17q-19 0 -30.5 11zM87 858q0 16 9.5 22.5t27.5 6.5h243
q14 0 21.5 -3.5t7.5 -13.5q0 -30 -37 -30h-243q-29 0 -29 18z" />
    <glyph glyph-name="uni1E3B" unicode="&#x1e3b;" horiz-adv-x="263" 
d="M61 16q0 6 1 10l123 697q6 36 37 36q26 0 26 -25q0 -7 -1 -11l-123 -697q-3 -17 -13 -26.5t-25 -9.5q-25 0 -25 26zM-86 -120q0 30 37 30h243q14 0 22 -3.5t8 -14.5q0 -29 -38 -29h-243q-29 0 -29 17z" />
    <glyph glyph-name="lslash" unicode="&#x142;" horiz-adv-x="338" 
d="M346 496q0 -16 -16 -26l-68 -43l-71 -401q-3 -17 -13 -26.5t-25 -9.5q-25 0 -25 26q0 6 1 10l63 357l-101 -64q-8 -5 -16 -5q-13 0 -19 11q-2 4 -2 12q0 18 15 27l135 85l48 274q6 36 37 36q26 0 26 -25q0 -7 -1 -11l-41 -230l35 22q5 4 14 4q15 0 21 -11q3 -6 3 -12z
" />
    <glyph glyph-name="m" unicode="m" horiz-adv-x="840" 
d="M39 16q0 6 1 10l78 438q6 36 36 36q12 0 19.5 -7t7.5 -20q0 -6 -1 -9l-12 -64q37 47 84 73.5t95 26.5t78.5 -26t38.5 -75q43 49 92 75t96 26q131 0 131 -132q0 -23 -5 -56l-51 -286q-3 -17 -13 -26.5t-25 -9.5q-12 0 -18.5 6.5t-6.5 17.5q0 8 1 12l51 287q5 33 5 52
q0 42 -19.5 61t-61.5 19q-48 0 -90.5 -28.5t-72.5 -81.5l-55 -309q-3 -18 -13 -27t-25 -9q-25 0 -25 26q0 6 1 10l48 273q5 25 5 54q0 92 -78 92q-45 0 -85.5 -24.5t-69 -67.5t-37.5 -97l-41 -230q-6 -36 -38 -36q-25 0 -25 26z" />
    <glyph glyph-name="uni1E43" unicode="&#x1e43;" horiz-adv-x="840" 
d="M39 16q0 6 1 10l78 438q6 36 36 36q12 0 19.5 -7t7.5 -20q0 -6 -1 -9l-12 -64q37 47 84 73.5t95 26.5t78.5 -26t38.5 -75q43 49 92 75t96 26q131 0 131 -132q0 -23 -5 -56l-51 -286q-3 -17 -13 -26.5t-25 -9.5q-12 0 -18.5 6.5t-6.5 17.5q0 8 1 12l51 287q5 33 5 52
q0 42 -19.5 61t-61.5 19q-48 0 -90.5 -28.5t-72.5 -81.5l-55 -309q-3 -18 -13 -27t-25 -9q-25 0 -25 26q0 6 1 10l48 273q5 25 5 54q0 92 -78 92q-45 0 -85.5 -24.5t-69 -67.5t-37.5 -97l-41 -230q-6 -36 -38 -36q-25 0 -25 26zM319.5 -157q-11.5 11 -11.5 28q0 21 18 38
t40 17q17 0 28.5 -11t11.5 -28q0 -21 -17 -38t-39 -17q-19 0 -30.5 11z" />
    <glyph glyph-name="n" unicode="n" horiz-adv-x="619" 
d="M40 16q0 6 1 10l78 438q2 17 11.5 26.5t24.5 9.5q26 0 26 -26q0 -6 -1 -10l-12 -65q96 101 223 101q81 0 124 -39t43 -112q0 -20 -5 -50l-47 -273q-7 -36 -39 -36q-24 0 -24 24q0 8 1 12l47 273q5 30 5 49q0 49 -28 73t-89 24q-91 0 -155.5 -53.5t-80.5 -140.5l-40 -225
q-3 -17 -13 -26.5t-25 -9.5q-25 0 -25 26z" />
    <glyph glyph-name="nacute" unicode="&#x144;" horiz-adv-x="619" 
d="M40 16q0 6 1 10l78 438q2 17 11.5 26.5t24.5 9.5q26 0 26 -26q0 -6 -1 -10l-12 -65q96 101 223 101q81 0 124 -39t43 -112q0 -20 -5 -50l-47 -273q-7 -36 -39 -36q-24 0 -24 24q0 8 1 12l47 273q5 30 5 49q0 49 -28 73t-89 24q-91 0 -155.5 -53.5t-80.5 -140.5l-40 -225
q-3 -17 -13 -26.5t-25 -9.5q-25 0 -25 26zM350 595q0 7 6 17l87 140q17 27 34 27q8 0 16 -5q14 -8 14 -19q0 -10 -10 -23l-102 -138q-12 -15 -26 -15q-3 0 -9 2q-10 4 -10 14z" />
    <glyph glyph-name="napostrophe" unicode="&#x149;" horiz-adv-x="703" 
d="M124 16q0 6 1 10l78 438q2 17 11.5 26.5t24.5 9.5q26 0 26 -26q0 -6 -1 -10l-12 -65q96 101 223 101q81 0 124 -39t43 -112q0 -20 -5 -50l-47 -273q-7 -36 -39 -36q-24 0 -24 24q0 8 1 12l47 273q5 30 5 49q0 49 -28 73t-89 24q-91 0 -155.5 -53.5t-80.5 -140.5l-40 -225
q-3 -17 -13 -26.5t-25 -9.5q-25 0 -25 26zM59 440q0 10 21 25q63 46 70 80q-5 -2 -15 -2q-17 0 -29.5 11.5t-12.5 28.5q0 26 20 44t49 18q23 0 35.5 -13.5t12.5 -38.5q0 -38 -26 -77t-75 -75q-25 -18 -35 -18q-8 0 -12 7q-3 6 -3 10z" />
    <glyph glyph-name="ncaron" unicode="&#x148;" horiz-adv-x="619" 
d="M40 16q0 6 1 10l78 438q2 17 11.5 26.5t24.5 9.5q26 0 26 -26q0 -6 -1 -10l-12 -65q96 101 223 101q81 0 124 -39t43 -112q0 -20 -5 -50l-47 -273q-7 -36 -39 -36q-24 0 -24 24q0 8 1 12l47 273q5 30 5 49q0 49 -28 73t-89 24q-91 0 -155.5 -53.5t-80.5 -140.5l-40 -225
q-3 -17 -13 -26.5t-25 -9.5q-25 0 -25 26zM345 593l-84 127q-5 6 -5 16q0 15 17 26q9 6 18 6q13 0 24 -18l65 -114l107 114q19 19 32 19q8 0 14 -6q10 -7 10 -19t-13 -25l-128 -126q-16 -16 -32 -16q-14 0 -25 16z" />
    <glyph glyph-name="uni0146" unicode="&#x146;" horiz-adv-x="619" 
d="M40 16q0 6 1 10l78 438q2 17 11.5 26.5t24.5 9.5q26 0 26 -26q0 -6 -1 -10l-12 -65q96 101 223 101q81 0 124 -39t43 -112q0 -20 -5 -50l-47 -273q-7 -36 -39 -36q-24 0 -24 24q0 8 1 12l47 273q5 30 5 49q0 49 -28 73t-89 24q-91 0 -155.5 -53.5t-80.5 -140.5l-40 -225
q-3 -17 -13 -26.5t-25 -9.5q-25 0 -25 26zM146 -282q0 10 20 25q64 44 73 82q-5 -2 -16 -2q-18 0 -30.5 11t-12.5 28q0 27 20.5 45.5t49.5 18.5q23 0 36.5 -14t13.5 -39q0 -39 -28 -80.5t-77 -74.5q-11 -8 -20 -13t-14 -5q-6 0 -11 7q-4 8 -4 11z" />
    <glyph glyph-name="uni1E45" unicode="&#x1e45;" horiz-adv-x="619" 
d="M40 16q0 6 1 10l78 438q2 17 11.5 26.5t24.5 9.5q26 0 26 -26q0 -6 -1 -10l-12 -65q96 101 223 101q81 0 124 -39t43 -112q0 -20 -5 -50l-47 -273q-7 -36 -39 -36q-24 0 -24 24q0 8 1 12l47 273q5 30 5 49q0 49 -28 73t-89 24q-91 0 -155.5 -53.5t-80.5 -140.5l-40 -225
q-3 -17 -13 -26.5t-25 -9.5q-25 0 -25 26zM344 608.5q-12 11.5 -12 28.5q0 20 18 37t40 17q16 0 27.5 -11.5t11.5 -27.5q0 -20 -17.5 -37.5t-38.5 -17.5q-17 0 -29 11.5z" />
    <glyph glyph-name="uni1E47" unicode="&#x1e47;" horiz-adv-x="619" 
d="M40 16q0 6 1 10l78 438q2 17 11.5 26.5t24.5 9.5q26 0 26 -26q0 -6 -1 -10l-12 -65q96 101 223 101q81 0 124 -39t43 -112q0 -20 -5 -50l-47 -273q-7 -36 -39 -36q-24 0 -24 24q0 8 1 12l47 273q5 30 5 49q0 49 -28 73t-89 24q-91 0 -155.5 -53.5t-80.5 -140.5l-40 -225
q-3 -17 -13 -26.5t-25 -9.5q-25 0 -25 26zM207.5 -157q-11.5 11 -11.5 28q0 21 18 38t40 17q17 0 28.5 -11t11.5 -28q0 -21 -17 -38t-39 -17q-19 0 -30.5 11z" />
    <glyph glyph-name="eng" unicode="&#x14b;" horiz-adv-x="619" 
d="M262.5 -286q-7.5 6 -7.5 16q0 15 10 24.5t26 9.5q43 0 67.5 11t37.5 35.5t21 69.5l74 419q4 23 4 46q0 50 -28 75t-88 25q-90 0 -155 -53t-81 -141l-40 -225q-3 -17 -13 -26.5t-25 -9.5q-25 0 -25 26q0 6 1 10l78 438q2 17 11.5 26.5t24.5 9.5q26 0 26 -26q0 -6 -1 -10
l-12 -65q46 49 103.5 75t120.5 26q80 0 123 -39.5t43 -112.5q0 -21 -5 -49l-74 -419q-16 -89 -62 -130.5t-135 -41.5q-12 0 -19.5 6z" />
    <glyph glyph-name="uni1E49" unicode="&#x1e49;" horiz-adv-x="619" 
d="M40 16q0 6 1 10l78 438q2 17 11.5 26.5t24.5 9.5q26 0 26 -26q0 -6 -1 -10l-12 -65q96 101 223 101q81 0 124 -39t43 -112q0 -20 -5 -50l-47 -273q-7 -36 -39 -36q-24 0 -24 24q0 8 1 12l47 273q5 30 5 49q0 49 -28 73t-89 24q-91 0 -155.5 -53.5t-80.5 -140.5l-40 -225
q-3 -17 -13 -26.5t-25 -9.5q-25 0 -25 26zM92 -120q0 30 37 30h243q14 0 22 -3.5t8 -14.5q0 -29 -38 -29h-243q-29 0 -29 17z" />
    <glyph glyph-name="ntilde" unicode="&#xf1;" horiz-adv-x="619" 
d="M40 16q0 6 1 10l78 438q2 17 11.5 26.5t24.5 9.5q26 0 26 -26q0 -6 -1 -10l-12 -65q96 101 223 101q81 0 124 -39t43 -112q0 -20 -5 -50l-47 -273q-7 -36 -39 -36q-24 0 -24 24q0 8 1 12l47 273q5 30 5 49q0 49 -28 73t-89 24q-91 0 -155.5 -53.5t-80.5 -140.5l-40 -225
q-3 -17 -13 -26.5t-25 -9.5q-25 0 -25 26zM213 611q0 8 4 17q14 34 42 55.5t62 21.5q25 0 41.5 -8.5t36.5 -24.5q15 -12 25.5 -18t23.5 -6q36 0 55 43q8 20 25 20q7 0 10 -1q13 -3 13 -16q0 -5 -4 -17q-14 -34 -43 -55t-62 -21q-21 0 -36.5 8t-34.5 23q-18 13 -29.5 19.5
t-26.5 6.5q-34 0 -54 -43q-9 -21 -26 -21q-6 0 -9 1q-13 4 -13 16z" />
    <glyph glyph-name="o" unicode="o" horiz-adv-x="642" 
d="M159.5 16.5q-52.5 26.5 -81.5 74.5t-29 110q0 85 40.5 153.5t112.5 107t162 38.5q68 0 120.5 -26t81 -73.5t28.5 -109.5q0 -86 -40.5 -155t-112 -107.5t-162.5 -38.5q-67 0 -119.5 26.5zM413.5 77q55.5 31 86.5 87t31 127q0 73 -46 113.5t-128 40.5q-72 0 -127.5 -31
t-86.5 -86.5t-31 -126.5q0 -73 46 -114t129 -41q71 0 126.5 31z" />
    <glyph glyph-name="oacute" unicode="&#xf3;" horiz-adv-x="642" 
d="M159.5 16.5q-52.5 26.5 -81.5 74.5t-29 110q0 85 40.5 153.5t112.5 107t162 38.5q68 0 120.5 -26t81 -73.5t28.5 -109.5q0 -86 -40.5 -155t-112 -107.5t-162.5 -38.5q-67 0 -119.5 26.5zM413.5 77q55.5 31 86.5 87t31 127q0 73 -46 113.5t-128 40.5q-72 0 -127.5 -31
t-86.5 -86.5t-31 -126.5q0 -73 46 -114t129 -41q71 0 126.5 31zM361 595q0 7 6 17l87 140q17 27 34 27q8 0 16 -5q14 -8 14 -19q0 -10 -10 -23l-102 -138q-12 -15 -26 -15q-3 0 -9 2q-10 4 -10 14z" />
    <glyph glyph-name="obreve" unicode="&#x14f;" horiz-adv-x="642" 
d="M159.5 16.5q-52.5 26.5 -81.5 74.5t-29 110q0 85 40.5 153.5t112.5 107t162 38.5q68 0 120.5 -26t81 -73.5t28.5 -109.5q0 -86 -40.5 -155t-112 -107.5t-162.5 -38.5q-67 0 -119.5 26.5zM413.5 77q55.5 31 86.5 87t31 127q0 73 -46 113.5t-128 40.5q-72 0 -127.5 -31
t-86.5 -86.5t-31 -126.5q0 -73 46 -114t129 -41q71 0 126.5 31zM287 611.5q-33 32.5 -33 82.5q0 63 38 63q24 0 24 -23q0 -52 4.5 -73t18 -27.5t48.5 -6.5q45 0 71.5 25.5t34.5 69.5q6 35 35 35q25 0 25 -23q0 -40 -25 -75.5t-65 -57.5t-84 -22q-59 0 -92 32.5z" />
    <glyph glyph-name="uni01D2" unicode="&#x1d2;" horiz-adv-x="642" 
d="M159.5 16.5q-52.5 26.5 -81.5 74.5t-29 110q0 85 40.5 153.5t112.5 107t162 38.5q68 0 120.5 -26t81 -73.5t28.5 -109.5q0 -86 -40.5 -155t-112 -107.5t-162.5 -38.5q-67 0 -119.5 26.5zM413.5 77q55.5 31 86.5 87t31 127q0 73 -46 113.5t-128 40.5q-72 0 -127.5 -31
t-86.5 -86.5t-31 -126.5q0 -73 46 -114t129 -41q71 0 126.5 31zM356 593l-84 127q-5 6 -5 16q0 15 17 26q9 6 18 6q13 0 24 -18l65 -114l107 114q19 19 32 19q8 0 14 -6q10 -7 10 -19t-13 -25l-128 -126q-16 -16 -32 -16q-14 0 -25 16z" />
    <glyph glyph-name="ocircumflex" unicode="&#xf4;" horiz-adv-x="642" 
d="M159.5 16.5q-52.5 26.5 -81.5 74.5t-29 110q0 85 40.5 153.5t112.5 107t162 38.5q68 0 120.5 -26t81 -73.5t28.5 -109.5q0 -86 -40.5 -155t-112 -107.5t-162.5 -38.5q-67 0 -119.5 26.5zM413.5 77q55.5 31 86.5 87t31 127q0 73 -46 113.5t-128 40.5q-72 0 -127.5 -31
t-86.5 -86.5t-31 -126.5q0 -73 46 -114t129 -41q71 0 126.5 31zM243 602q0 12 13 25l128 126q16 16 31 16t26 -16l83 -126q5 -7 5 -17q0 -16 -16 -26q-10 -6 -18 -6q-14 0 -25 18l-65 114l-106 -114q-16 -19 -32 -19q-7 0 -15 6q-9 9 -9 19z" />
    <glyph glyph-name="uni1ED1" unicode="&#x1ed1;" horiz-adv-x="642" 
d="M159.5 16.5q-52.5 26.5 -81.5 74.5t-29 110q0 85 40.5 153.5t112.5 107t162 38.5q68 0 120.5 -26t81 -73.5t28.5 -109.5q0 -86 -40.5 -155t-112 -107.5t-162.5 -38.5q-67 0 -119.5 26.5zM413.5 77q55.5 31 86.5 87t31 127q0 73 -46 113.5t-128 40.5q-72 0 -127.5 -31
t-86.5 -86.5t-31 -126.5q0 -73 46 -114t129 -41q71 0 126.5 31zM493 730q0 8 8 18l79 102q17 20 32 20q8 0 16 -5q11 -7 11 -18q0 -10 -11 -23l-94 -98q-11 -13 -22 -13q-6 0 -11 4q-8 5 -8 13zM241 603q0 10 13 23l126 111q18 16 31 16q9 0 13.5 -3.5t12.5 -12.5l86 -110
q6 -7 6 -16q0 -16 -18 -27q-9 -6 -17 -6q-13 0 -25 18l-68 98l-104 -99q-19 -17 -31 -17q-9 0 -15 6q-10 9 -10 19z" />
    <glyph glyph-name="uni1ED9" unicode="&#x1ed9;" horiz-adv-x="642" 
d="M159.5 16.5q-52.5 26.5 -81.5 74.5t-29 110q0 85 40.5 153.5t112.5 107t162 38.5q68 0 120.5 -26t81 -73.5t28.5 -109.5q0 -86 -40.5 -155t-112 -107.5t-162.5 -38.5q-67 0 -119.5 26.5zM413.5 77q55.5 31 86.5 87t31 127q0 73 -46 113.5t-128 40.5q-72 0 -127.5 -31
t-86.5 -86.5t-31 -126.5q0 -73 46 -114t129 -41q71 0 126.5 31zM218.5 -157q-11.5 11 -11.5 28q0 21 18 38t40 17q17 0 28.5 -11t11.5 -28q0 -21 -17 -38t-39 -17q-19 0 -30.5 11zM243 602q0 12 13 25l128 126q16 16 31 16t26 -16l83 -126q5 -7 5 -17q0 -16 -16 -26
q-10 -6 -18 -6q-14 0 -25 18l-65 114l-106 -114q-16 -19 -32 -19q-7 0 -15 6q-9 9 -9 19z" />
    <glyph glyph-name="uni1ED3" unicode="&#x1ed3;" horiz-adv-x="642" 
d="M159.5 16.5q-52.5 26.5 -81.5 74.5t-29 110q0 85 40.5 153.5t112.5 107t162 38.5q68 0 120.5 -26t81 -73.5t28.5 -109.5q0 -86 -40.5 -155t-112 -107.5t-162.5 -38.5q-67 0 -119.5 26.5zM413.5 77q55.5 31 86.5 87t31 127q0 73 -46 113.5t-128 40.5q-72 0 -127.5 -31
t-86.5 -86.5t-31 -126.5q0 -73 46 -114t129 -41q71 0 126.5 31zM549 713q-12 0 -18 13l-58 98q-5 8 -5 16q0 15 20 26q8 4 16 4q19 0 26 -20l42 -102q3 -6 3 -12q0 -12 -14 -20q-6 -3 -12 -3zM241 603q0 10 13 23l126 111q18 16 31 16q8 0 13.5 -3.5t12.5 -12.5l87 -110
q6 -7 6 -15t-5 -15.5t-14 -12.5q-9 -6 -17 -6q-13 0 -25 18l-68 98l-104 -99q-19 -17 -31 -17q-9 0 -15 6q-10 9 -10 19z" />
    <glyph glyph-name="uni1ED5" unicode="&#x1ed5;" horiz-adv-x="642" 
d="M159.5 16.5q-52.5 26.5 -81.5 74.5t-29 110q0 85 40.5 153.5t112.5 107t162 38.5q68 0 120.5 -26t81 -73.5t28.5 -109.5q0 -86 -40.5 -155t-112 -107.5t-162.5 -38.5q-67 0 -119.5 26.5zM413.5 77q55.5 31 86.5 87t31 127q0 73 -46 113.5t-128 40.5q-72 0 -127.5 -31
t-86.5 -86.5t-31 -126.5q0 -73 46 -114t129 -41q71 0 126.5 31zM483 733l2 8q3 15 14 26t30 24q18 13 27.5 23t9.5 23q0 24 -33 24q-18 0 -30 -5t-23 -17q-11 -11 -20 -11q-5 0 -11 3q-10 5 -10 14q0 8 7 15q15 20 40 32t57 12q38 0 56 -16t18 -41q0 -27 -12 -41.5
t-36 -29.5q-15 -9 -23 -17t-10 -19l-1 -7q-3 -24 -30 -24q-28 0 -22 24zM241 603q0 10 13 23l126 111q18 16 31 16q8 0 13.5 -3.5t12.5 -12.5l87 -110q6 -7 6 -15t-5 -15.5t-14 -12.5q-9 -6 -17 -6q-13 0 -25 18l-68 98l-104 -99q-19 -17 -31 -17q-9 0 -15 6q-10 9 -10 19z
" />
    <glyph glyph-name="uni1ED7" unicode="&#x1ed7;" horiz-adv-x="642" 
d="M159.5 16.5q-52.5 26.5 -81.5 74.5t-29 110q0 85 40.5 153.5t112.5 107t162 38.5q68 0 120.5 -26t81 -73.5t28.5 -109.5q0 -86 -40.5 -155t-112 -107.5t-162.5 -38.5q-67 0 -119.5 26.5zM413.5 77q55.5 31 86.5 87t31 127q0 73 -46 113.5t-128 40.5q-72 0 -127.5 -31
t-86.5 -86.5t-31 -126.5q0 -73 46 -114t129 -41q71 0 126.5 31zM269 785q0 8 4 16q12 33 39.5 53t59.5 20q23 0 39.5 -8.5t34.5 -23.5q15 -12 25 -17.5t22 -5.5q34 0 52 42q9 19 25 19q6 0 9 -1q12 -3 12 -14q0 -9 -4 -18q-11 -31 -39 -51.5t-60 -20.5q-21 0 -35.5 7.5
t-32.5 22.5q-16 13 -27 19t-26 6q-16 0 -29.5 -11t-21.5 -28q-6 -12 -11.5 -17t-13.5 -5q-2 0 -10 2q-12 3 -12 14zM242 603q0 12 13 24l125 111q7 6 15 11t16 5q17 0 26 -16l86 -111q6 -7 6 -16q0 -15 -17 -27q-9 -6 -17 -6q-13 0 -25 18l-69 99l-103 -99q-17 -17 -31 -17
q-9 0 -16 6q-9 8 -9 18z" />
    <glyph glyph-name="odieresis" unicode="&#xf6;" horiz-adv-x="642" 
d="M159.5 16.5q-52.5 26.5 -81.5 74.5t-29 110q0 85 40.5 153.5t112.5 107t162 38.5q68 0 120.5 -26t81 -73.5t28.5 -109.5q0 -86 -40.5 -155t-112 -107.5t-162.5 -38.5q-67 0 -119.5 26.5zM413.5 77q55.5 31 86.5 87t31 127q0 73 -46 113.5t-128 40.5q-72 0 -127.5 -31
t-86.5 -86.5t-31 -126.5q0 -73 46 -114t129 -41q71 0 126.5 31zM256.5 610q-11.5 11 -11.5 27q0 20 17.5 37t38.5 17q16 0 27 -11.5t11 -27.5q0 -20 -17 -36.5t-37 -16.5q-17 0 -28.5 11zM458.5 610q-11.5 11 -11.5 27q0 20 17.5 37t38.5 17q16 0 27 -11.5t11 -27.5
q0 -20 -17 -36.5t-38 -16.5q-16 0 -27.5 11z" />
    <glyph glyph-name="uni1ECD" unicode="&#x1ecd;" horiz-adv-x="642" 
d="M159.5 16.5q-52.5 26.5 -81.5 74.5t-29 110q0 85 40.5 153.5t112.5 107t162 38.5q68 0 120.5 -26t81 -73.5t28.5 -109.5q0 -86 -40.5 -155t-112 -107.5t-162.5 -38.5q-67 0 -119.5 26.5zM413.5 77q55.5 31 86.5 87t31 127q0 73 -46 113.5t-128 40.5q-72 0 -127.5 -31
t-86.5 -86.5t-31 -126.5q0 -73 46 -114t129 -41q71 0 126.5 31zM218.5 -157q-11.5 11 -11.5 28q0 21 18 38t40 17q17 0 28.5 -11t11.5 -28q0 -21 -17 -38t-39 -17q-19 0 -30.5 11z" />
    <glyph glyph-name="ograve" unicode="&#xf2;" horiz-adv-x="642" 
d="M159.5 16.5q-52.5 26.5 -81.5 74.5t-29 110q0 85 40.5 153.5t112.5 107t162 38.5q68 0 120.5 -26t81 -73.5t28.5 -109.5q0 -86 -40.5 -155t-112 -107.5t-162.5 -38.5q-67 0 -119.5 26.5zM413.5 77q55.5 31 86.5 87t31 127q0 73 -46 113.5t-128 40.5q-72 0 -127.5 -31
t-86.5 -86.5t-31 -126.5q0 -73 46 -114t129 -41q71 0 126.5 31zM384 579q-14 0 -20 15l-53 138q-3 8 -3 15q0 16 22 27q9 4 17 4q18 0 24 -26l39 -140q1 -3 1 -8q0 -16 -16 -23q-8 -2 -11 -2z" />
    <glyph glyph-name="uni1ECF" unicode="&#x1ecf;" horiz-adv-x="642" 
d="M159.5 16.5q-52.5 26.5 -81.5 74.5t-29 110q0 85 40.5 153.5t112.5 107t162 38.5q68 0 120.5 -26t81 -73.5t28.5 -109.5q0 -86 -40.5 -155t-112 -107.5t-162.5 -38.5q-67 0 -119.5 26.5zM413.5 77q55.5 31 86.5 87t31 127q0 73 -46 113.5t-128 40.5q-72 0 -127.5 -31
t-86.5 -86.5t-31 -126.5q0 -73 46 -114t129 -41q71 0 126.5 31zM351 576l1 8q3 17 15 28.5t34 26.5q22 16 31.5 25.5t9.5 24.5q0 12 -9 19.5t-26 7.5q-37 0 -61 -27q-12 -14 -23 -14q-5 0 -11 3q-11 6 -11 16q0 7 7 16q16 21 46 36.5t64 15.5q41 0 61 -17.5t20 -45.5
t-13.5 -44t-38.5 -31q-18 -12 -26 -20t-9 -20l-1 -8q-6 -27 -36 -27q-27 0 -24 27z" />
    <glyph glyph-name="ohorn" unicode="&#x1a1;" horiz-adv-x="642" 
d="M717 440.5q-21 -33.5 -56.5 -56t-76.5 -26.5q10 -30 10 -67q0 -86 -40.5 -155t-112 -107.5t-162.5 -38.5q-67 0 -119.5 26.5t-81.5 74.5t-29 110q0 85 40.5 153.5t112.5 107t162 38.5q67 0 118.5 -25t80.5 -70l24 3q38 4 61.5 27.5t30.5 63.5q2 16 11 25.5t24 9.5
q24 0 24 -25q0 -35 -21 -68.5zM413.5 77q55.5 31 86.5 87t31 127q0 73 -46 113.5t-128 40.5q-72 0 -127.5 -31t-86.5 -86.5t-31 -126.5q0 -73 46 -114t129 -41q71 0 126.5 31z" />
    <glyph glyph-name="uni1EDB" unicode="&#x1edb;" horiz-adv-x="642" 
d="M717 440.5q-21 -33.5 -56.5 -56t-76.5 -26.5q10 -30 10 -67q0 -86 -40.5 -155t-112 -107.5t-162.5 -38.5q-67 0 -119.5 26.5t-81.5 74.5t-29 110q0 85 40.5 153.5t112.5 107t162 38.5q67 0 118.5 -25t80.5 -70l24 3q38 4 61.5 27.5t30.5 63.5q2 16 11 25.5t24 9.5
q24 0 24 -25q0 -35 -21 -68.5zM413.5 77q55.5 31 86.5 87t31 127q0 73 -46 113.5t-128 40.5q-72 0 -127.5 -31t-86.5 -86.5t-31 -126.5q0 -73 46 -114t129 -41q71 0 126.5 31zM353 575q0 7 6 17l87 140q17 27 34 27q8 0 16 -5q14 -8 14 -19q0 -10 -10 -23l-102 -138
q-12 -15 -26 -15q-3 0 -9 2q-10 4 -10 14z" />
    <glyph glyph-name="uni1EE3" unicode="&#x1ee3;" horiz-adv-x="642" 
d="M717 440.5q-21 -33.5 -56.5 -56t-76.5 -26.5q10 -30 10 -67q0 -86 -40.5 -155t-112 -107.5t-162.5 -38.5q-67 0 -119.5 26.5t-81.5 74.5t-29 110q0 85 40.5 153.5t112.5 107t162 38.5q67 0 118.5 -25t80.5 -70l24 3q38 4 61.5 27.5t30.5 63.5q2 16 11 25.5t24 9.5
q24 0 24 -25q0 -35 -21 -68.5zM413.5 77q55.5 31 86.5 87t31 127q0 73 -46 113.5t-128 40.5q-72 0 -127.5 -31t-86.5 -86.5t-31 -126.5q0 -73 46 -114t129 -41q71 0 126.5 31zM214.5 -157q-11.5 11 -11.5 28q0 21 18 38t40 17q17 0 28.5 -11t11.5 -28q0 -21 -17 -38t-39 -17
q-19 0 -30.5 11z" />
    <glyph glyph-name="uni1EDD" unicode="&#x1edd;" horiz-adv-x="642" 
d="M717 440.5q-21 -33.5 -56.5 -56t-76.5 -26.5q10 -30 10 -67q0 -86 -40.5 -155t-112 -107.5t-162.5 -38.5q-67 0 -119.5 26.5t-81.5 74.5t-29 110q0 85 40.5 153.5t112.5 107t162 38.5q67 0 118.5 -25t80.5 -70l24 3q38 4 61.5 27.5t30.5 63.5q2 16 11 25.5t24 9.5
q24 0 24 -25q0 -35 -21 -68.5zM413.5 77q55.5 31 86.5 87t31 127q0 73 -46 113.5t-128 40.5q-72 0 -127.5 -31t-86.5 -86.5t-31 -126.5q0 -73 46 -114t129 -41q71 0 126.5 31zM374 559q-14 0 -20 15l-53 138q-3 8 -3 15q0 16 22 27q9 4 17 4q18 0 24 -26l39 -140q1 -3 1 -8
q0 -16 -16 -23q-8 -2 -11 -2z" />
    <glyph glyph-name="uni1EDF" unicode="&#x1edf;" horiz-adv-x="642" 
d="M717 440.5q-21 -33.5 -56.5 -56t-76.5 -26.5q10 -30 10 -67q0 -86 -40.5 -155t-112 -107.5t-162.5 -38.5q-67 0 -119.5 26.5t-81.5 74.5t-29 110q0 85 40.5 153.5t112.5 107t162 38.5q67 0 118.5 -25t80.5 -70l24 3q38 4 61.5 27.5t30.5 63.5q2 16 11 25.5t24 9.5
q24 0 24 -25q0 -35 -21 -68.5zM413.5 77q55.5 31 86.5 87t31 127q0 73 -46 113.5t-128 40.5q-72 0 -127.5 -31t-86.5 -86.5t-31 -126.5q0 -73 46 -114t129 -41q71 0 126.5 31zM343 556l1 8q3 17 15 28.5t34 26.5q22 16 31.5 25.5t9.5 24.5q0 12 -9 19.5t-26 7.5
q-37 0 -61 -27q-12 -14 -23 -14q-5 0 -11 3q-11 6 -11 16q0 7 7 16q16 21 46 36.5t64 15.5q41 0 61 -17.5t20 -45.5t-13.5 -44t-38.5 -31q-18 -12 -26 -20t-9 -20l-1 -8q-6 -27 -36 -27q-27 0 -24 27z" />
    <glyph glyph-name="uni1EE1" unicode="&#x1ee1;" horiz-adv-x="642" 
d="M717 440.5q-21 -33.5 -56.5 -56t-76.5 -26.5q10 -30 10 -67q0 -86 -40.5 -155t-112 -107.5t-162.5 -38.5q-67 0 -119.5 26.5t-81.5 74.5t-29 110q0 85 40.5 153.5t112.5 107t162 38.5q67 0 118.5 -25t80.5 -70l24 3q38 4 61.5 27.5t30.5 63.5q2 16 11 25.5t24 9.5
q24 0 24 -25q0 -35 -21 -68.5zM413.5 77q55.5 31 86.5 87t31 127q0 73 -46 113.5t-128 40.5q-72 0 -127.5 -31t-86.5 -86.5t-31 -126.5q0 -73 46 -114t129 -41q71 0 126.5 31zM218 596q0 6 5 19q13 33 41.5 54.5t62.5 21.5q24 0 41 -8.5t36 -24.5q15 -12 26 -18t24 -6
q34 0 54 44q9 20 27 20q6 0 9 -1q13 -3 13 -15q0 -8 -5 -18q-14 -35 -42 -56t-62 -21q-22 0 -37.5 8t-34.5 23q-16 13 -28 19.5t-27 6.5q-35 0 -54 -43q-9 -20 -26 -20q-6 0 -10 1q-13 3 -13 14z" />
    <glyph glyph-name="ohungarumlaut" unicode="&#x151;" horiz-adv-x="642" 
d="M159.5 16.5q-52.5 26.5 -81.5 74.5t-29 110q0 85 40.5 153.5t112.5 107t162 38.5q68 0 120.5 -26t81 -73.5t28.5 -109.5q0 -86 -40.5 -155t-112 -107.5t-162.5 -38.5q-67 0 -119.5 26.5zM413.5 77q55.5 31 86.5 87t31 127q0 73 -46 113.5t-128 40.5q-72 0 -127.5 -31
t-86.5 -86.5t-31 -126.5q0 -73 46 -114t129 -41q71 0 126.5 31zM442 589q0 9 8 20l116 146q9 12 17 18t17 6q6 0 16 -5q15 -9 15 -21q0 -10 -10 -22l-131 -145q-13 -15 -28 -15q-7 0 -10 2q-10 4 -10 16zM272 589q0 9 8 20l115 147q17 22 33 22q8 0 16 -4q15 -9 15 -21
q0 -9 -10 -22l-129 -145q-13 -15 -28 -15q-7 0 -10 2q-10 6 -10 16z" />
    <glyph glyph-name="omacron" unicode="&#x14d;" horiz-adv-x="642" 
d="M159.5 16.5q-52.5 26.5 -81.5 74.5t-29 110q0 85 40.5 153.5t112.5 107t162 38.5q68 0 120.5 -26t81 -73.5t28.5 -109.5q0 -86 -40.5 -155t-112 -107.5t-162.5 -38.5q-67 0 -119.5 26.5zM413.5 77q55.5 31 86.5 87t31 127q0 73 -46 113.5t-128 40.5q-72 0 -127.5 -31
t-86.5 -86.5t-31 -126.5q0 -73 46 -114t129 -41q71 0 126.5 31zM231 599q0 16 9.5 22.5t27.5 6.5h243q14 0 21.5 -3.5t7.5 -13.5q0 -30 -37 -30h-243q-29 0 -29 18z" />
    <glyph glyph-name="oslash" unicode="&#xf8;" horiz-adv-x="647" 
d="M570 397.5q27 -48.5 27 -107.5q0 -25 -4 -45q-20 -111 -97.5 -183t-213.5 -72q-50 0 -90 14l-36 -56q-5 -8 -12.5 -13t-15.5 -5q-12 0 -18.5 6.5t-6.5 15.5q0 8 5 16l37 58q-46 28 -70 74.5t-24 101.5q0 15 4 43q20 111 98 183t213 72q42 0 76 -9l33 52q5 8 12.5 12.5
t15.5 4.5q6 0 11 -3q13 -6 13 -19q0 -8 -5 -16l-31 -49q52 -27 79 -75.5zM114 200q0 -84 62 -125l234 365q-27 5 -50 5q-96 0 -160.5 -52.5t-81.5 -148.5q-4 -20 -4 -44zM534 291q0 46 -19.5 80t-55.5 53l-235 -370q32 -8 66 -8q93 0 158 52.5t82 147.5q4 21 4 45z" />
    <glyph glyph-name="oslashacute" unicode="&#x1ff;" horiz-adv-x="647" 
d="M570 397.5q27 -48.5 27 -107.5q0 -25 -4 -45q-20 -111 -97.5 -183t-213.5 -72q-50 0 -90 14l-36 -56q-5 -8 -12.5 -13t-15.5 -5q-12 0 -18.5 6.5t-6.5 15.5q0 8 5 16l37 58q-46 28 -70 74.5t-24 101.5q0 15 4 43q20 111 98 183t213 72q42 0 76 -9l33 52q5 8 12.5 12.5
t15.5 4.5q6 0 11 -3q13 -6 13 -19q0 -8 -5 -16l-31 -49q52 -27 79 -75.5zM114 200q0 -84 62 -125l234 365q-27 5 -50 5q-96 0 -160.5 -52.5t-81.5 -148.5q-4 -20 -4 -44zM534 291q0 46 -19.5 80t-55.5 53l-235 -370q32 -8 66 -8q93 0 158 52.5t82 147.5q4 21 4 45zM360 575
q0 7 6 17l87 140q17 27 34 27q8 0 16 -5q14 -8 14 -19q0 -10 -10 -23l-102 -138q-12 -15 -26 -15q-3 0 -9 2q-10 4 -10 14z" />
    <glyph glyph-name="otilde" unicode="&#xf5;" horiz-adv-x="642" 
d="M159.5 16.5q-52.5 26.5 -81.5 74.5t-29 110q0 85 40.5 153.5t112.5 107t162 38.5q68 0 120.5 -26t81 -73.5t28.5 -109.5q0 -86 -40.5 -155t-112 -107.5t-162.5 -38.5q-67 0 -119.5 26.5zM413.5 77q55.5 31 86.5 87t31 127q0 73 -46 113.5t-128 40.5q-72 0 -127.5 -31
t-86.5 -86.5t-31 -126.5q0 -73 46 -114t129 -41q71 0 126.5 31zM224 611q0 8 4 17q14 34 42 55.5t62 21.5q25 0 41.5 -8.5t36.5 -24.5q15 -12 25.5 -18t23.5 -6q36 0 55 43q8 20 25 20q7 0 10 -1q13 -3 13 -16q0 -5 -4 -17q-14 -34 -43 -55t-62 -21q-21 0 -36.5 8t-34.5 23
q-18 13 -29.5 19.5t-26.5 6.5q-34 0 -54 -43q-9 -21 -26 -21q-6 0 -9 1q-13 4 -13 16z" />
    <glyph glyph-name="oe" unicode="&#x153;" horiz-adv-x="1116" 
d="M111 46.5q-62 56.5 -62 151.5q0 87 41 156t113.5 107.5t163.5 38.5q77 0 131 -33.5t77 -97.5q42 61 113.5 96t153.5 35q68 0 121 -21.5t83 -60.5t30 -88q0 -50 -27 -80t-73 -30h-390q-3 -24 -3 -35q0 -65 47.5 -101.5t133.5 -36.5q60 0 104 14t89 48q19 15 30 15
q7 0 14 -7q9 -9 9 -18q0 -12 -13 -22q-47 -42 -109.5 -64t-134.5 -22q-81 0 -136 33.5t-77 96.5q-45 -64 -113.5 -97.5t-149.5 -33.5q-104 0 -166 56.5zM414.5 77q55.5 31 86.5 87t31 127q0 72 -46.5 113t-127.5 41q-71 0 -127 -31.5t-87.5 -87.5t-31.5 -128
q0 -74 45.5 -113t130.5 -39q71 0 126.5 31zM967 272q24 0 35 12.5t11 45.5q0 55 -47 85t-134 30q-91 0 -156 -48t-79 -125h370z" />
    <glyph glyph-name="p" unicode="p" horiz-adv-x="679" 
d="M-11 -273q0 6 1 10l129 728q6 35 36 35q27 0 27 -25q0 -7 -1 -11l-13 -72q89 108 239 108q108 0 167.5 -51.5t59.5 -145.5q0 -93 -39.5 -164t-111 -110t-165.5 -39q-66 0 -117.5 27.5t-83.5 79.5l-65 -360q-6 -36 -38 -36q-25 0 -25 26zM455 78q56 32 86.5 90t30.5 135
q0 71 -43.5 106.5t-133.5 35.5q-74 0 -132.5 -30.5t-91.5 -85t-33 -123.5q0 -73 51 -116.5t136 -43.5q74 0 130 32z" />
    <glyph glyph-name="thorn" unicode="&#xfe;" horiz-adv-x="682" 
d="M-11 -273q0 6 1 10l179 1017q6 35 37 35q27 0 27 -26q0 -6 -1 -10l-63 -359q99 106 237 106q108 0 168 -52.5t60 -146.5q0 -91 -39.5 -161.5t-111 -110t-162.5 -39.5q-69 0 -120.5 27t-83.5 80l-65 -360q-3 -17 -13 -26.5t-25 -9.5q-25 0 -25 26zM454 78q56 32 87 89.5
t31 132.5q0 145 -177 145q-74 0 -132 -30.5t-91 -84.5t-33 -122q0 -72 51.5 -117t134.5 -45q73 0 129 32z" />
    <glyph glyph-name="q" unicode="q" horiz-adv-x="680" 
d="M453.5 -289q-6.5 10 -4.5 26l63 360q-49 -54 -108 -80.5t-134 -26.5q-106 0 -165 54.5t-59 152.5q0 89 40 158t112 107t165 38q148 0 202 -108l13 72q6 36 37 36q13 0 19.5 -7t6.5 -19q0 -7 -1 -10l-128 -727q-3 -18 -13 -27t-24 -9q-15 0 -21.5 10zM411 78
q61 32 96.5 87t35.5 121q0 75 -48.5 117t-136.5 42q-75 0 -131 -30.5t-87 -86t-31 -127.5q0 -76 42.5 -115.5t124.5 -39.5q74 0 135 32z" />
    <glyph glyph-name="r" unicode="r" horiz-adv-x="437" 
d="M40 16q0 6 1 10l78 438q2 17 11.5 26.5t24.5 9.5q26 0 26 -26q0 -6 -1 -10l-12 -65q43 46 94.5 68.5t114.5 22.5h25q16 0 24.5 -6t8.5 -16q0 -16 -11.5 -24.5t-30.5 -8.5h-27q-88 0 -147.5 -49t-75.5 -135l-40 -225q-3 -17 -13 -26.5t-25 -9.5q-25 0 -25 26z" />
    <glyph glyph-name="racute" unicode="&#x155;" horiz-adv-x="437" 
d="M40 16q0 6 1 10l78 438q2 17 11.5 26.5t24.5 9.5q26 0 26 -26q0 -6 -1 -10l-12 -65q43 46 94.5 68.5t114.5 22.5h25q16 0 24.5 -6t8.5 -16q0 -16 -11.5 -24.5t-30.5 -8.5h-27q-88 0 -147.5 -49t-75.5 -135l-40 -225q-3 -17 -13 -26.5t-25 -9.5q-25 0 -25 26zM279 595
q0 7 6 17l87 140q17 27 34 27q8 0 16 -5q14 -8 14 -19q0 -10 -10 -23l-102 -138q-12 -15 -26 -15q-3 0 -9 2q-10 4 -10 14z" />
    <glyph glyph-name="rcaron" unicode="&#x159;" horiz-adv-x="437" 
d="M40 16q0 6 1 10l78 438q2 17 11.5 26.5t24.5 9.5q26 0 26 -26q0 -6 -1 -10l-12 -65q43 46 94.5 68.5t114.5 22.5h25q16 0 24.5 -6t8.5 -16q0 -16 -11.5 -24.5t-30.5 -8.5h-27q-88 0 -147.5 -49t-75.5 -135l-40 -225q-3 -17 -13 -26.5t-25 -9.5q-25 0 -25 26zM274 593
l-84 127q-5 6 -5 16q0 15 17 26q9 6 18 6q13 0 24 -18l65 -114l107 114q19 19 32 19q8 0 14 -6q10 -7 10 -19t-13 -25l-128 -126q-16 -16 -32 -16q-14 0 -25 16z" />
    <glyph glyph-name="uni0157" unicode="&#x157;" horiz-adv-x="437" 
d="M40 16q0 6 1 10l78 438q2 17 11.5 26.5t24.5 9.5q26 0 26 -26q0 -6 -1 -10l-12 -65q43 46 94.5 68.5t114.5 22.5h25q16 0 24.5 -6t8.5 -16q0 -16 -11.5 -24.5t-30.5 -8.5h-27q-88 0 -147.5 -49t-75.5 -135l-40 -225q-3 -17 -13 -26.5t-25 -9.5q-25 0 -25 26zM-56 -282
q0 10 20 25q64 44 73 82q-5 -2 -16 -2q-18 0 -30.5 11t-12.5 28q0 27 20.5 45.5t49.5 18.5q23 0 36.5 -14t13.5 -39q0 -39 -28 -80.5t-77 -74.5q-11 -8 -20 -13t-14 -5q-6 0 -11 7q-4 8 -4 11z" />
    <glyph glyph-name="uni1E5B" unicode="&#x1e5b;" horiz-adv-x="437" 
d="M40 16q0 6 1 10l78 438q2 17 11.5 26.5t24.5 9.5q26 0 26 -26q0 -6 -1 -10l-12 -65q43 46 94.5 68.5t114.5 22.5h25q16 0 24.5 -6t8.5 -16q0 -16 -11.5 -24.5t-30.5 -8.5h-27q-88 0 -147.5 -49t-75.5 -135l-40 -225q-3 -17 -13 -26.5t-25 -9.5q-25 0 -25 26zM8.5 -157
q-11.5 11 -11.5 28q0 21 18 38t40 17q17 0 28.5 -11t11.5 -28q0 -21 -17 -38t-39 -17q-19 0 -30.5 11z" />
    <glyph glyph-name="uni1E5D" unicode="&#x1e5d;" horiz-adv-x="437" 
d="M40 16q0 6 1 10l78 438q2 17 11.5 26.5t24.5 9.5q26 0 26 -26q0 -6 -1 -10l-12 -65q43 46 94.5 68.5t114.5 22.5h25q16 0 24.5 -6t8.5 -16q0 -16 -11.5 -24.5t-30.5 -8.5h-27q-88 0 -147.5 -49t-75.5 -135l-40 -225q-3 -17 -13 -26.5t-25 -9.5q-25 0 -25 26zM8.5 -157
q-11.5 11 -11.5 28q0 21 18 38t40 17q17 0 28.5 -11t11.5 -28q0 -21 -17 -38t-39 -17q-19 0 -30.5 11zM149 599q0 16 9.5 22.5t27.5 6.5h243q14 0 21.5 -3.5t7.5 -13.5q0 -30 -37 -30h-243q-29 0 -29 18z" />
    <glyph glyph-name="uni1E5F" unicode="&#x1e5f;" horiz-adv-x="437" 
d="M40 16q0 6 1 10l78 438q2 17 11.5 26.5t24.5 9.5q26 0 26 -26q0 -6 -1 -10l-12 -65q43 46 94.5 68.5t114.5 22.5h25q16 0 24.5 -6t8.5 -16q0 -16 -11.5 -24.5t-30.5 -8.5h-27q-88 0 -147.5 -49t-75.5 -135l-40 -225q-3 -17 -13 -26.5t-25 -9.5q-25 0 -25 26zM-106 -120
q0 30 37 30h243q14 0 22 -3.5t8 -14.5q0 -29 -38 -29h-243q-29 0 -29 17z" />
    <glyph glyph-name="s" unicode="s" horiz-adv-x="523" 
d="M119.5 18.5q-57.5 27.5 -86.5 74.5q-4 7 -4 14q0 18 19 27q8 4 15 4q14 0 27 -18q56 -72 161 -72q64 0 100.5 22.5t36.5 61.5q0 19 -10 32t-38.5 26.5t-90.5 35.5q-78 28 -112.5 60t-34.5 75q0 62 55.5 100.5t144.5 38.5q55 0 108 -21.5t75 -56.5q4 -8 4 -13
q0 -17 -19 -27q-10 -5 -18 -5q-14 0 -24 13q-23 29 -56 41.5t-78 12.5q-58 0 -92.5 -21t-34.5 -59q0 -19 9.5 -31.5t35 -25.5t76.5 -30q92 -32 128 -63.5t36 -77.5q0 -67 -55.5 -106t-152.5 -39q-67 0 -124.5 27.5z" />
    </font>
</defs>
</svg>
